{
.appVersion = "983";
copyright = "Copyright 2011 The Metrophobic Project Authors (contact@sansoxygen.com), with Reserved Font Name 'Metrophobic'.";
customParameters = (
{
name = licenseURL;
value = "http://scripts.sil.org/OFL";
},
{
name = vendorID;
value = newt;
},
{
name = license;
value = "This Font Software is licensed under the SIL Open Font License, Version 1.1. This license is available with a FAQ at: http://scripts.sil.org/OFL";
},
{
name = fsType;
value = (
);
},
{
name = "Disable Last Change";
value = 1;
},
{
name = "Use Line Breaks";
value = 1;
},
{
name = "Use Typo Metrics";
value = 1;
}
);
date = "2011-05-04 23:11:35 +0000";
designer = "Vernon Adams";
designerURL = "http://www.sansoxygen.com";
disablesAutomaticAlignment = 1;
disablesNiceNames = 1;
familyName = "Metrophobic TEST 01";
featurePrefixes = (
{
automatic = 1;
code = "languagesystem DFLT dflt;
";
name = Languagesystems;
}
);
features = (
{
automatic = 1;
code = "feature sups;
feature frac;
feature ordn;
";
name = aalt;
},
{
automatic = 1;
code = "sub one by onesuperior;
sub two by twosuperior;
sub three by threesuperior;
sub four by foursuperior;
";
name = sups;
},
{
automatic = 1;
code = "sub one slash four by onequarter;
sub one slash two by onehalf;
sub three slash four by threequarters;
";
name = frac;
},
{
automatic = 1;
code = "sub [zero one two three four five six seven eight nine] [A a]' by ordfeminine;
sub [zero one two three four five six seven eight nine] [O o]' by ordmasculine;
";
name = ordn;
},
{
automatic = 1;
code = "sub f i by fi;
sub f l by fl;
";
name = liga;
}
);
fontMaster = (
{
ascender = 2065;
capHeight = 1441;
customParameters = (
{
name = typoAscender;
value = 2065;
},
{
name = typoDescender;
value = -460;
},
{
name = typoLineGap;
value = 0;
},
{
name = winAscent;
value = 2065;
},
{
name = winDescent;
value = 545;
},
{
name = hheaAscender;
value = 2065;
},
{
name = hheaDescender;
value = -460;
},
{
name = hheaLineGap;
value = 0;
}
);
descender = -460;

glyphs = (
{
color = 4;
glyphname = A;
layers = (
{
layerId = "2F8B9CD4-7B7F-4ACC-ADF3-B6E0F7033A19";
paths = (
{
closed = 1;
nodes = (
"400 502 LINE",
"685 1294 LINE",
"975 502 LINE"
);
},
{
closed = 1;
nodes = (
"217 0 LINE",
"353 361 LINE",
"1023 361 LINE",
"1160 0 LINE",
"1336 0 LINE",
"785 1441 LINE",
"584 1441 LINE",
"40 0 LINE"
);
}
);
width = 1366;
}
);
note = A;
unicode = 0041;
},
{
color = 4;
glyphname = AE;
layers = (
{
layerId = "2F8B9CD4-7B7F-4ACC-ADF3-B6E0F7033A19";
paths = (
{
closed = 1;
nodes = (
"928 509 LINE",
"403 509 LINE",
"771 1286 LINE",
"805 1286 LINE"
);
},
{
closed = 1;
nodes = (
"166 0 LINE",
"343 368 LINE",
"941 368 LINE",
"1003 0 LINE",
"1768 0 LINE",
"1768 152 LINE",
"1166 152 LINE",
"1074 671 LINE",
"1655 671 LINE",
"1655 821 LINE",
"1048 821 LINE",
"969 1289 LINE",
"1620 1289 LINE",
"1620 1441 LINE",
"670 1441 LINE",
"-17 0 LINE"
);
}
);
width = 1839;
}
);
note = AE;
unicode = 00C6;
},
{
color = 4;
glyphname = B;
layers = (
{
layerId = "2F8B9CD4-7B7F-4ACC-ADF3-B6E0F7033A19";
paths = (
{
closed = 1;
nodes = (
"873 1294 OFFCURVE",
"921 1281 OFFCURVE",
"964 1238 CURVE SMOOTH",
"998 1204 OFFCURVE",
"1011 1152 OFFCURVE",
"1011 1079 CURVE SMOOTH",
"1011 992 OFFCURVE",
"993 944 OFFCURVE",
"956 907 CURVE SMOOTH",
"909 860 OFFCURVE",
"828 833 OFFCURVE",
"704 833 CURVE SMOOTH",
"362 833 LINE",
"362 1294 LINE",
"692 1294 LINE SMOOTH"
);
},
{
closed = 1;
nodes = (
"878 691 OFFCURVE",
"950 658 OFFCURVE",
"989 625 CURVE SMOOTH",
"1043 579 OFFCURVE",
"1063 501 OFFCURVE",
"1063 410 CURVE SMOOTH",
"1063 189 OFFCURVE",
"971 146 OFFCURVE",
"749 146 CURVE SMOOTH",
"362 146 LINE",
"362 691 LINE",
"724 691 LINE SMOOTH"
);
},
{
closed = 1;
nodes = (
"778 0 LINE SMOOTH",
"882 0 OFFCURVE",
"949 10 OFFCURVE",
"1006 27 CURVE SMOOTH",
"1173 77 OFFCURVE",
"1241 220 OFFCURVE",
"1241 407 CURVE SMOOTH",
"1241 527 OFFCURVE",
"1216 603 OFFCURVE",
"1179 650 CURVE SMOOTH",
"1122 722 OFFCURVE",
"1065 751 OFFCURVE",
"939 770 CURVE",
"1022 791 OFFCURVE",
"1069 819 OFFCURVE",
"1106 861 CURVE SMOOTH",
"1144 904 OFFCURVE",
"1170 968 OFFCURVE",
"1170 1072 CURVE SMOOTH",
"1170 1191 OFFCURVE",
"1146 1284 OFFCURVE",
"1079 1348 CURVE SMOOTH",
"1023 1401 OFFCURVE",
"933 1433 OFFCURVE",
"812 1437 CURVE SMOOTH",
"752 1439 OFFCURVE",
"685 1441 OFFCURVE",
"605 1441 CURVE SMOOTH",
"192 1441 LINE",
"192 0 LINE"
);
}
);
width = 1353;
}
);
note = B;
unicode = 0042;
},
{
color = 4;
glyphname = C;
layers = (
{
layerId = "2F8B9CD4-7B7F-4ACC-ADF3-B6E0F7033A19";
paths = (
{
closed = 1;
nodes = (
"1151 263 OFFCURVE",
"1122 217 OFFCURVE",
"1049 169 CURVE SMOOTH",
"971 118 OFFCURVE",
"888 111 OFFCURVE",
"763 110 CURVE SMOOTH",
"675 109 OFFCURVE",
"601 128 OFFCURVE",
"541 151 CURVE SMOOTH",
"423 196 OFFCURVE",
"374 258 OFFCURVE",
"338 380 CURVE SMOOTH",
"315 457 OFFCURVE",
"298 566 OFFCURVE",
"298 714 CURVE SMOOTH",
"298 863 OFFCURVE",
"317 975 OFFCURVE",
"342 1055 CURVE SMOOTH",
"379 1174 OFFCURVE",
"432 1237 OFFCURVE",
"542 1282 CURVE SMOOTH",
"597 1305 OFFCURVE",
"691 1322 OFFCURVE",
"787 1322 CURVE SMOOTH",
"888 1322 OFFCURVE",
"971 1315 OFFCURVE",
"1049 1264 CURVE SMOOTH",
"1122 1216 OFFCURVE",
"1151 1170 OFFCURVE",
"1164 1033 CURVE",
"1333 1033 LINE",
"1335 1183 OFFCURVE",
"1274 1284 OFFCURVE",
"1195 1351 CURVE SMOOTH",
"1088 1442 OFFCURVE",
"917 1472 OFFCURVE",
"764 1472 CURVE SMOOTH",
"632 1472 OFFCURVE",
"526 1444 OFFCURVE",
"446 1408 CURVE SMOOTH",
"307 1344 OFFCURVE",
"231 1256 OFFCURVE",
"176 1097 CURVE SMOOTH",
"143 1002 OFFCURVE",
"118 872 OFFCURVE",
"118 699 CURVE SMOOTH",
"118 559 OFFCURVE",
"139 436 OFFCURVE",
"172 337 CURVE SMOOTH",
"223 178 OFFCURVE",
"298 84 OFFCURVE",
"451 20 CURVE SMOOTH",
"527 -13 OFFCURVE",
"631 -39 OFFCURVE",
"763 -39 CURVE SMOOTH",
"917 -39 OFFCURVE",
"1092 -6 OFFCURVE",
"1195 82 CURVE SMOOTH",
"1273 149 OFFCURVE",
"1335 250 OFFCURVE",
"1333 400 CURVE",
"1164 400 LINE"
);
}
);
width = 1405;
}
);
note = C;
unicode = 0043;
},
{
color = 4;
glyphname = D;
layers = (
{
layerId = "2F8B9CD4-7B7F-4ACC-ADF3-B6E0F7033A19";
paths = (
{
closed = 1;
nodes = (
"844 0 OFFCURVE",
"1027 45 OFFCURVE",
"1138 140 CURVE SMOOTH",
"1284 265 OFFCURVE",
"1334 496 OFFCURVE",
"1334 727 CURVE SMOOTH",
"1334 945 OFFCURVE",
"1290 1159 OFFCURVE",
"1142 1292 CURVE SMOOTH",
"1022 1400 OFFCURVE",
"849 1441 OFFCURVE",
"670 1441 CURVE SMOOTH",
"192 1441 LINE",
"192 0 LINE",
"666 0 LINE SMOOTH"
);
},
{
closed = 1;
nodes = (
"896 1289 OFFCURVE",
"1058 1231 OFFCURVE",
"1116 1033 CURVE SMOOTH",
"1137 961 OFFCURVE",
"1155 862 OFFCURVE",
"1155 723 CURVE SMOOTH",
"1155 579 OFFCURVE",
"1137 477 OFFCURVE",
"1114 405 CURVE SMOOTH",
"1091 333 OFFCURVE",
"1063 295 OFFCURVE",
"1041 271 CURVE SMOOTH",
"965 188 OFFCURVE",
"810 152 OFFCURVE",
"673 152 CURVE SMOOTH",
"366 152 LINE",
"366 1289 LINE",
"655 1289 LINE SMOOTH"
);
}
);
width = 1442;
}
);
note = D;
unicode = 0044;
},
{
glyphname = DZcaron;
layers = (
{
layerId = "2F8B9CD4-7B7F-4ACC-ADF3-B6E0F7033A19";
paths = (
{
closed = 1;
nodes = (
"2150 1289 LINE",
"1301 126 LINE",
"1301 0 LINE",
"2346 0 LINE",
"2346 152 LINE",
"1510 152 LINE",
"2343 1313 LINE",
"2343 1441 LINE",
"1315 1441 LINE",
"1315 1289 LINE"
);
},
{
closed = 1;
nodes = (
"752 0 OFFCURVE",
"935 45 OFFCURVE",
"1046 140 CURVE SMOOTH",
"1192 265 OFFCURVE",
"1242 496 OFFCURVE",
"1242 727 CURVE SMOOTH",
"1242 945 OFFCURVE",
"1198 1159 OFFCURVE",
"1050 1292 CURVE SMOOTH",
"930 1400 OFFCURVE",
"757 1441 OFFCURVE",
"578 1441 CURVE SMOOTH",
"100 1441 LINE",
"100 0 LINE",
"574 0 LINE SMOOTH"
);
},
{
closed = 1;
nodes = (
"804 1289 OFFCURVE",
"966 1231 OFFCURVE",
"1024 1033 CURVE SMOOTH",
"1045 961 OFFCURVE",
"1063 862 OFFCURVE",
"1063 723 CURVE SMOOTH",
"1063 579 OFFCURVE",
"1045 477 OFFCURVE",
"1022 405 CURVE SMOOTH",
"999 333 OFFCURVE",
"971 295 OFFCURVE",
"949 271 CURVE SMOOTH",
"873 188 OFFCURVE",
"718 152 OFFCURVE",
"581 152 CURVE SMOOTH",
"274 152 LINE",
"274 1289 LINE",
"563 1289 LINE SMOOTH"
);
},
{
closed = 1;
nodes = (
"1702 1908 LINE",
"1557 1908 LINE",
"1735 1571 LINE",
"1879 1571 LINE",
"2058 1908 LINE",
"1913 1908 LINE",
"1810 1641 LINE"
);
}
);
width = 2446;
}
);
unicode = 01C4;
},
{
color = 4;
glyphname = Eth;
layers = (
{
layerId = "2F8B9CD4-7B7F-4ACC-ADF3-B6E0F7033A19";
paths = (
{
closed = 1;
nodes = (
"844 0 OFFCURVE",
"1027 45 OFFCURVE",
"1138 140 CURVE SMOOTH",
"1284 265 OFFCURVE",
"1334 496 OFFCURVE",
"1334 727 CURVE SMOOTH",
"1334 945 OFFCURVE",
"1290 1159 OFFCURVE",
"1142 1292 CURVE SMOOTH",
"1022 1400 OFFCURVE",
"849 1441 OFFCURVE",
"670 1441 CURVE SMOOTH",
"192 1441 LINE",
"192 0 LINE",
"666 0 LINE SMOOTH"
);
},
{
closed = 1;
nodes = (
"896 1289 OFFCURVE",
"1058 1231 OFFCURVE",
"1116 1033 CURVE SMOOTH",
"1137 961 OFFCURVE",
"1155 862 OFFCURVE",
"1155 723 CURVE SMOOTH",
"1155 579 OFFCURVE",
"1137 477 OFFCURVE",
"1114 405 CURVE SMOOTH",
"1091 333 OFFCURVE",
"1063 295 OFFCURVE",
"1041 271 CURVE SMOOTH",
"965 188 OFFCURVE",
"810 152 OFFCURVE",
"673 152 CURVE SMOOTH",
"366 152 LINE",
"366 1289 LINE",
"655 1289 LINE SMOOTH"
);
},
{
closed = 1;
nodes = (
"43 657 LINE",
"643 657 LINE",
"643 810 LINE",
"43 810 LINE"
);
}
);
width = 1444;
}
);
note = Eth;
unicode = 00D0;
},
{
color = 4;
glyphname = E;
layers = (
{
layerId = "2F8B9CD4-7B7F-4ACC-ADF3-B6E0F7033A19";
paths = (
{
closed = 1;
nodes = (
"1125 0 LINE",
"1125 152 LINE",
"336 152 LINE",
"336 677 LINE",
"1004 677 LINE",
"1004 827 LINE",
"336 827 LINE",
"336 1289 LINE",
"1122 1289 LINE",
"1122 1441 LINE",
"162 1441 LINE",
"162 0 LINE"
);
}
);
width = 1195;
}
);
note = E;
unicode = 0045;
},
{
color = 4;
glyphname = F;
layers = (
{
layerId = "2F8B9CD4-7B7F-4ACC-ADF3-B6E0F7033A19";
paths = (
{
closed = 1;
nodes = (
"366 0 LINE",
"366 677 LINE",
"1027 677 LINE",
"1027 827 LINE",
"366 827 LINE",
"366 1289 LINE",
"1152 1289 LINE",
"1152 1441 LINE",
"192 1441 LINE",
"192 0 LINE"
);
}
);
width = 1136;
}
);
note = F;
unicode = 0046;
},
{
color = 4;
glyphname = G;
layers = (
{
layerId = "2F8B9CD4-7B7F-4ACC-ADF3-B6E0F7033A19";
paths = (
{
closed = 1;
nodes = (
"118 872 OFFCURVE",
"143 1002 OFFCURVE",
"176 1097 CURVE SMOOTH",
"231 1256 OFFCURVE",
"307 1344 OFFCURVE",
"446 1408 CURVE SMOOTH",
"526 1444 OFFCURVE",
"632 1472 OFFCURVE",
"764 1472 CURVE SMOOTH",
"917 1472 OFFCURVE",
"1088 1442 OFFCURVE",
"1195 1351 CURVE SMOOTH",
"1273 1284 OFFCURVE",
"1335 1183 OFFCURVE",
"1333 1033 CURVE",
"1164 1033 LINE",
"1151 1170 OFFCURVE",
"1122 1216 OFFCURVE",
"1049 1264 CURVE SMOOTH",
"971 1315 OFFCURVE",
"888 1322 OFFCURVE",
"767 1322 CURVE SMOOTH",
"671 1322 OFFCURVE",
"597 1305 OFFCURVE",
"542 1282 CURVE SMOOTH",
"432 1237 OFFCURVE",
"379 1174 OFFCURVE",
"342 1055 CURVE SMOOTH",
"317 975 OFFCURVE",
"298 863 OFFCURVE",
"298 714 CURVE SMOOTH",
"298 566 OFFCURVE",
"315 457 OFFCURVE",
"338 380 CURVE SMOOTH",
"374 258 OFFCURVE",
"423 196 OFFCURVE",
"541 151 CURVE SMOOTH",
"601 128 OFFCURVE",
"675 110 OFFCURVE",
"763 110 CURVE SMOOTH",
"852 110 OFFCURVE",
"948 132 OFFCURVE",
"1014 166 CURVE SMOOTH",
"1135 229 OFFCURVE",
"1170 334 OFFCURVE",
"1170 465 CURVE SMOOTH",
"1170 544 LINE",
"733 544 LINE",
"733 704 LINE",
"1344 704 LINE",
"1344 -10 LINE",
"1220 -10 LINE",
"1203 193 LINE",
"1139 71 OFFCURVE",
"1075 16 OFFCURVE",
"928 -24 CURVE SMOOTH",
"881 -37 OFFCURVE",
"825 -39 OFFCURVE",
"763 -39 CURVE SMOOTH",
"631 -39 OFFCURVE",
"527 -13 OFFCURVE",
"451 20 CURVE SMOOTH",
"298 84 OFFCURVE",
"223 178 OFFCURVE",
"172 337 CURVE SMOOTH",
"139 436 OFFCURVE",
"118 559 OFFCURVE",
"118 699 CURVE SMOOTH"
);
}
);
width = 1482;
}
);
note = G;
unicode = 0047;
},
{
color = 4;
glyphname = H;
layers = (
{
layerId = "2F8B9CD4-7B7F-4ACC-ADF3-B6E0F7033A19";
paths = (
{
closed = 1;
nodes = (
"361 0 LINE",
"360 677 LINE",
"1162 677 LINE",
"1163 0 LINE",
"1337 0 LINE",
"1337 1441 LINE",
"1163 1441 LINE",
"1163 829 LINE",
"361 829 LINE",
"361 1441 LINE",
"187 1441 LINE",
"187 0 LINE"
);
}
);
width = 1523;
}
);
note = H;
unicode = 0048;
},
{
glyphname = Hbar;
layers = (
{
components = (
{
name = H;
transform = "{1, 0, 0, 1, 171, 0}";
}
);
layerId = "2F8B9CD4-7B7F-4ACC-ADF3-B6E0F7033A19";
paths = (
{
closed = 1;
nodes = (
"200 1088 LINE",
"1666 1088 LINE",
"1666 1234 LINE",
"200 1234 LINE"
);
}
);
width = 1866;
}
);
unicode = 0126;
},
{
color = 4;
glyphname = I;
layers = (
{
layerId = "2F8B9CD4-7B7F-4ACC-ADF3-B6E0F7033A19";
paths = (
{
closed = 1;
nodes = (
"286 1294 LINE",
"286 147 LINE",
"86 147 LINE",
"86 0 LINE",
"660 0 LINE",
"660 147 LINE",
"460 147 LINE",
"460 1294 LINE",
"667 1294 LINE",
"667 1441 LINE",
"75 1441 LINE",
"75 1294 LINE"
);
}
);
width = 742;
}
);
note = I;
unicode = 0049;
},
{
color = 4;
glyphname = J;
layers = (
{
guideLines = (
{
position = "{355, -45}";
}
);
layerId = "2F8B9CD4-7B7F-4ACC-ADF3-B6E0F7033A19";
paths = (
{
closed = 1;
nodes = (
"598 237 OFFCURVE",
"597 207 OFFCURVE",
"576 165 CURVE SMOOTH",
"556 124 OFFCURVE",
"518 95 OFFCURVE",
"444 95 CURVE SMOOTH",
"376 95 OFFCURVE",
"325 114 OFFCURVE",
"304 148 CURVE SMOOTH",
"288 174 OFFCURVE",
"276 198 OFFCURVE",
"275 275 CURVE",
"115 275 LINE",
"110 177 OFFCURVE",
"128 105 OFFCURVE",
"193 40 CURVE SMOOTH",
"243 -10 OFFCURVE",
"330 -42 OFFCURVE",
"443 -42 CURVE SMOOTH",
"550 -42 OFFCURVE",
"631 -7 OFFCURVE",
"682 40 CURVE SMOOTH",
"753 106 OFFCURVE",
"772 205 OFFCURVE",
"772 348 CURVE SMOOTH",
"772 1441 LINE",
"598 1441 LINE",
"598 396 LINE SMOOTH"
);
}
);
width = 952;
}
);
note = J;
unicode = 004A;
},
{
color = 4;
glyphname = K;
layers = (
{
guideLines = (
{
position = "{645, 835}";
},
{
position = "{695, 695}";
}
);
layerId = "2F8B9CD4-7B7F-4ACC-ADF3-B6E0F7033A19";
paths = (
{
closed = 1;
nodes = (
"346 831 LINE",
"346 1441 LINE",
"175 1441 LINE",
"175 0 LINE",
"346 0 LINE",
"346 688 LINE",
"692 689 LINE SMOOTH",
"819 689 OFFCURVE",
"867 677 OFFCURVE",
"921 640 CURVE SMOOTH",
"987 595 OFFCURVE",
"988 537 OFFCURVE",
"1003 415 CURVE SMOOTH",
"1053 0 LINE",
"1227 -2 LINE",
"1177 401 LINE SMOOTH",
"1160 538 OFFCURVE",
"1151 611 OFFCURVE",
"1101 667 CURVE SMOOTH",
"1068 704 OFFCURVE",
"1006 740 OFFCURVE",
"927 760 CURVE",
"1001 780 OFFCURVE",
"1048 816 OFFCURVE",
"1081 853 CURVE SMOOTH",
"1131 909 OFFCURVE",
"1155 982 OFFCURVE",
"1160 1119 CURVE SMOOTH",
"1160 1442 LINE",
"986 1440 LINE",
"986 1105 LINE SMOOTH",
"981 983 OFFCURVE",
"965 925 OFFCURVE",
"894 880 CURVE SMOOTH",
"840 846 OFFCURVE",
"798 831 OFFCURVE",
"734 831 CURVE SMOOTH"
);
}
);
width = 1282;
}
);
note = K;
unicode = 004B;
},
{
color = 4;
glyphname = L;
layers = (
{
layerId = "2F8B9CD4-7B7F-4ACC-ADF3-B6E0F7033A19";
paths = (
{
closed = 1;
nodes = (
"1041 147 LINE",
"366 147 LINE",
"366 1441 LINE",
"192 1441 LINE",
"192 0 LINE",
"1041 0 LINE"
);
}
);
width = 1081;
}
);
note = L;
unicode = 004C;
},
{
color = 4;
glyphname = Lslash;
layers = (
{
layerId = "2F8B9CD4-7B7F-4ACC-ADF3-B6E0F7033A19";
paths = (
{
closed = 1;
nodes = (
"957 143 LINE",
"370 143 LINE",
"370 662 LINE",
"667 829 LINE",
"602 936 LINE",
"370 805 LINE",
"370 1441 LINE",
"196 1441 LINE",
"196 708 LINE",
"41 621 LINE",
"102 512 LINE",
"196 564 LINE",
"196 0 LINE",
"957 0 LINE"
);
}
);
width = 1039;
}
);
note = Lslash;
unicode = 0141;
},
{
color = 4;
glyphname = M;
layers = (
{
layerId = "2F8B9CD4-7B7F-4ACC-ADF3-B6E0F7033A19";
paths = (
{
closed = 1;
nodes = (
"297 0 LINE",
"297 1286 LINE",
"333 1286 LINE",
"749 174 LINE",
"980 174 LINE",
"1399 1286 LINE",
"1435 1286 LINE",
"1435 0 LINE",
"1591 0 LINE",
"1591 1441 LINE",
"1294 1441 LINE",
"882 346 LINE",
"847 346 LINE",
"437 1441 LINE",
"141 1441 LINE",
"141 0 LINE"
);
}
);
width = 1721;
}
);
note = M;
unicode = 004D;
},
{
color = 4;
glyphname = N;
layers = (
{
layerId = "2F8B9CD4-7B7F-4ACC-ADF3-B6E0F7033A19";
paths = (
{
closed = 1;
nodes = (
"320 0 LINE",
"310 1285 LINE",
"343 1285 LINE",
"1148 0 LINE",
"1406 0 LINE",
"1406 1441 LINE",
"1250 1441 LINE",
"1250 173 LINE",
"1218 173 LINE",
"428 1441 LINE",
"164 1441 LINE",
"164 0 LINE"
);
}
);
width = 1561;
}
);
note = N;
unicode = 004E;
},
{
glyphname = Eng;
layers = (
{
components = (
{
name = N;
}
);
layerId = "2F8B9CD4-7B7F-4ACC-ADF3-B6E0F7033A19";
paths = (
{
closed = 1;
nodes = (
"1252 -108 LINE",
"1252 -167 OFFCURVE",
"1248 -215 OFFCURVE",
"1219 -240 CURVE SMOOTH",
"1192 -263 OFFCURVE",
"1146 -266 OFFCURVE",
"1088 -266 CURVE SMOOTH",
"1048 -266 OFFCURVE",
"1028 -265 OFFCURVE",
"982 -255 CURVE",
"982 -388 LINE",
"1014 -396 OFFCURVE",
"1048 -402 OFFCURVE",
"1108 -402 CURVE SMOOTH",
"1201 -402 OFFCURVE",
"1273 -383 OFFCURVE",
"1313 -358 CURVE SMOOTH",
"1368 -324 OFFCURVE",
"1406 -268 OFFCURVE",
"1406 -87 CURVE",
"1406 1011 LINE",
"1253 1011 LINE"
);
}
);
width = 1506;
}
);
unicode = 014A;
},
{
color = 4;
glyphname = O;
layers = (
{
layerId = "2F8B9CD4-7B7F-4ACC-ADF3-B6E0F7033A19";
paths = (
{
closed = 1;
nodes = (
"872 1323 OFFCURVE",
"953 1306 OFFCURVE",
"1014 1281 CURVE SMOOTH",
"1202 1203 OFFCURVE",
"1241 1010 OFFCURVE",
"1241 729 CURVE SMOOTH",
"1241 438 OFFCURVE",
"1206 236 OFFCURVE",
"1017 157 CURVE SMOOTH",
"957 132 OFFCURVE",
"869 110 OFFCURVE",
"771 110 CURVE SMOOTH",
"673 110 OFFCURVE",
"584 132 OFFCURVE",
"523 157 CURVE SMOOTH",
"338 232 OFFCURVE",
"300 430 OFFCURVE",
"300 721 CURVE SMOOTH",
"300 1007 OFFCURVE",
"338 1203 OFFCURVE",
"528 1281 CURVE SMOOTH",
"589 1306 OFFCURVE",
"671 1323 OFFCURVE",
"771 1323 CURVE SMOOTH"
);
},
{
closed = 1;
nodes = (
"121 230 OFFCURVE",
"284 -38 OFFCURVE",
"771 -38 CURVE SMOOTH",
"1258 -38 OFFCURVE",
"1420 230 OFFCURVE",
"1420 728 CURVE SMOOTH",
"1420 1060 OFFCURVE",
"1352 1295 OFFCURVE",
"1104 1409 CURVE SMOOTH",
"1023 1444 OFFCURVE",
"915 1472 OFFCURVE",
"771 1472 CURVE SMOOTH",
"629 1472 OFFCURVE",
"518 1445 OFFCURVE",
"438 1409 CURVE SMOOTH",
"190 1299 OFFCURVE",
"121 1060 OFFCURVE",
"121 727 CURVE SMOOTH"
);
}
);
width = 1541;
}
);
note = O;
unicode = 004F;
},
{
glyphname = Ohookabove;
layers = (
{
components = (
{
name = O;
}
);
layerId = "2F8B9CD4-7B7F-4ACC-ADF3-B6E0F7033A19";
paths = (
{
closed = 1;
nodes = (
"1037 1980 OFFCURVE",
"943 1979 OFFCURVE",
"724 1979 CURVE",
"724 1888 LINE",
"893 1888 OFFCURVE",
"923 1884 OFFCURVE",
"923 1809 CURVE",
"923 1740 OFFCURVE",
"899 1729 OFFCURVE",
"848 1729 CURVE",
"730 1729 OFFCURVE",
"718 1640 OFFCURVE",
"718 1579 CURVE",
"827 1579 LINE",
"827 1634 OFFCURVE",
"836 1640 OFFCURVE",
"881 1640 CURVE",
"927 1640 OFFCURVE",
"1037 1655 OFFCURVE",
"1037 1811 CURVE"
);
}
);
width = 1541;
}
);
unicode = 1ECE;
},
{
glyphname = Ohorn;
layers = (
{
layerId = "2F8B9CD4-7B7F-4ACC-ADF3-B6E0F7033A19";
paths = (
{
closed = 1;
nodes = (
"872 1323 OFFCURVE",
"953 1306 OFFCURVE",
"1014 1281 CURVE SMOOTH",
"1202 1203 OFFCURVE",
"1241 1010 OFFCURVE",
"1241 729 CURVE SMOOTH",
"1241 438 OFFCURVE",
"1206 236 OFFCURVE",
"1017 157 CURVE SMOOTH",
"957 132 OFFCURVE",
"869 110 OFFCURVE",
"771 110 CURVE SMOOTH",
"673 110 OFFCURVE",
"584 132 OFFCURVE",
"523 157 CURVE SMOOTH",
"338 232 OFFCURVE",
"300 430 OFFCURVE",
"300 721 CURVE SMOOTH",
"300 1007 OFFCURVE",
"338 1203 OFFCURVE",
"528 1281 CURVE SMOOTH",
"589 1306 OFFCURVE",
"671 1323 OFFCURVE",
"771 1323 CURVE SMOOTH"
);
},
{
closed = 1;
nodes = (
"121 230 OFFCURVE",
"284 -38 OFFCURVE",
"771 -38 CURVE SMOOTH",
"1258 -38 OFFCURVE",
"1420 230 OFFCURVE",
"1420 728 CURVE SMOOTH",
"1420 1060 OFFCURVE",
"1352 1295 OFFCURVE",
"1104 1409 CURVE SMOOTH",
"1023 1444 OFFCURVE",
"915 1472 OFFCURVE",
"771 1472 CURVE SMOOTH",
"629 1472 OFFCURVE",
"518 1445 OFFCURVE",
"438 1409 CURVE SMOOTH",
"190 1299 OFFCURVE",
"121 1060 OFFCURVE",
"121 727 CURVE SMOOTH"
);
},
{
closed = 1;
nodes = (
"704 1350 LINE",
"802 1350 OFFCURVE",
"1267 1350 OFFCURVE",
"1307 1350 CURVE SMOOTH",
"1389 1350 OFFCURVE",
"1446 1396 OFFCURVE",
"1446 1477 CURVE SMOOTH",
"1446 1515 OFFCURVE",
"1446 1565 OFFCURVE",
"1446 1603 CURVE SMOOTH",
"1446 1647 OFFCURVE",
"1446 1690 OFFCURVE",
"1446 1726 CURVE",
"1321 1726 LINE",
"1321 1656 OFFCURVE",
"1323 1583 OFFCURVE",
"1323 1532 CURVE SMOOTH",
"1323 1493 OFFCURVE",
"1311 1471 OFFCURVE",
"1248 1471 CURVE",
"1201 1471 OFFCURVE",
"747 1470 OFFCURVE",
"704 1470 CURVE"
);
}
);
width = 1620;
}
);
unicode = 01A0;
},
{
color = 4;
glyphname = OE;
layers = (
{
layerId = "2F8B9CD4-7B7F-4ACC-ADF3-B6E0F7033A19";
paths = (
{
closed = 1;
nodes = (
"1046 132 OFFCURVE",
"1013 127 OFFCURVE",
"981 122 CURVE SMOOTH",
"925 114 OFFCURVE",
"857 107 OFFCURVE",
"805 107 CURVE SMOOTH",
"688 107 OFFCURVE",
"603 123 OFFCURVE",
"541 144 CURVE SMOOTH",
"479 165 OFFCURVE",
"440 194 OFFCURVE",
"417 218 CURVE",
"393 246 OFFCURVE",
"364 289 OFFCURVE",
"341 367 CURVE SMOOTH",
"317 445 OFFCURVE",
"301 557 OFFCURVE",
"301 724 CURVE SMOOTH",
"301 880 OFFCURVE",
"315 989 OFFCURVE",
"341 1065 CURVE SMOOTH",
"366 1139 OFFCURVE",
"395 1184 OFFCURVE",
"419 1212 CURVE SMOOTH",
"440 1236 OFFCURVE",
"482 1264 OFFCURVE",
"544 1287 CURVE SMOOTH",
"607 1310 OFFCURVE",
"697 1323 OFFCURVE",
"814 1323 CURVE SMOOTH",
"837 1323 OFFCURVE",
"863 1322 OFFCURVE",
"894 1319 CURVE SMOOTH",
"954 1313 OFFCURVE",
"1012 1305 OFFCURVE",
"1079 1296 CURVE",
"1079 138 LINE"
);
},
{
closed = 1;
nodes = (
"629 1472 OFFCURVE",
"519 1450 OFFCURVE",
"440 1411 CURVE SMOOTH",
"362 1373 OFFCURVE",
"309 1330 OFFCURVE",
"277 1294 CURVE SMOOTH",
"246 1259 OFFCURVE",
"208 1204 OFFCURVE",
"175 1115 CURVE SMOOTH",
"141 1023 OFFCURVE",
"121 896 OFFCURVE",
"121 720 CURVE SMOOTH",
"121 529 OFFCURVE",
"146 396 OFFCURVE",
"180 301 CURVE SMOOTH",
"214 206 OFFCURVE",
"257 150 OFFCURVE",
"294 117 CURVE SMOOTH",
"323 90 OFFCURVE",
"372 50 OFFCURVE",
"448 18 CURVE SMOOTH",
"524 -15 OFFCURVE",
"628 -41 OFFCURVE",
"768 -41 CURVE SMOOTH",
"801 -41 OFFCURVE",
"837 -39 OFFCURVE",
"874 -34 CURVE SMOOTH",
"948 -26 OFFCURVE",
"1014 -15 OFFCURVE",
"1087 1 CURVE",
"1928 1 LINE",
"1928 141 LINE",
"1248 141 LINE",
"1248 686 LINE",
"1862 686 LINE",
"1862 822 LINE",
"1248 822 LINE",
"1248 1303 LINE",
"1928 1303 LINE",
"1928 1441 LINE",
"1081 1441 LINE",
"1046 1446 OFFCURVE",
"1011 1451 OFFCURVE",
"975 1456 CURVE SMOOTH",
"914 1464 OFFCURVE",
"839 1471 OFFCURVE",
"776 1472 CURVE SMOOTH"
);
}
);
width = 2050;
}
);
note = OE;
unicode = 0152;
},
{
color = 4;
glyphname = P;
layers = (
{
guideLines = (
{
angle = 180;
position = "{504, 1293}";
},
{
position = "{763, 732}";
},
{
position = "{1065, 586}";
}
);
layerId = "2F8B9CD4-7B7F-4ACC-ADF3-B6E0F7033A19";
paths = (
{
closed = 1;
nodes = (
"366 0 LINE",
"366 584 LINE",
"675 584 LINE SMOOTH",
"916 584 OFFCURVE",
"1085 626 OFFCURVE",
"1152 758 CURVE SMOOTH",
"1178 809 OFFCURVE",
"1199 904 OFFCURVE",
"1199 1010 CURVE SMOOTH",
"1199 1100 OFFCURVE",
"1183 1197 OFFCURVE",
"1160 1249 CURVE SMOOTH",
"1087 1415 OFFCURVE",
"902 1441 OFFCURVE",
"631 1441 CURVE SMOOTH",
"192 1441 LINE",
"192 0 LINE"
);
},
{
closed = 1;
nodes = (
"923 747 OFFCURVE",
"870 730 OFFCURVE",
"631 730 CURVE SMOOTH",
"366 730 LINE",
"366 1300 LINE",
"631 1300 LINE SMOOTH",
"870 1300 OFFCURVE",
"923 1283 OFFCURVE",
"971 1235 CURVE SMOOTH",
"1015 1191 OFFCURVE",
"1034 1123 OFFCURVE",
"1034 1010 CURVE SMOOTH",
"1034 907 OFFCURVE",
"1020 840 OFFCURVE",
"971 795 CURVE"
);
}
);
width = 1266;
}
);
note = P;
unicode = 0050;
},
{
color = 4;
glyphname = Thorn;
layers = (
{
layerId = "2F8B9CD4-7B7F-4ACC-ADF3-B6E0F7033A19";
paths = (
{
closed = 1;
nodes = (
"726 1087 OFFCURVE",
"782 1081 OFFCURVE",
"822 1071 CURVE SMOOTH",
"862 1061 OFFCURVE",
"885 1046 OFFCURVE",
"904 1033 CURVE",
"927 1016 OFFCURVE",
"948 994 OFFCURVE",
"964 958 CURVE SMOOTH",
"980 922 OFFCURVE",
"990 872 OFFCURVE",
"990 799 CURVE SMOOTH",
"990 727 OFFCURVE",
"981 681 OFFCURVE",
"966 648 CURVE SMOOTH",
"951 615 OFFCURVE",
"932 596 OFFCURVE",
"912 580 CURVE SMOOTH",
"885 559 OFFCURVE",
"852 544 OFFCURVE",
"796 534 CURVE SMOOTH",
"740 524 OFFCURVE",
"661 518 OFFCURVE",
"548 518 CURVE SMOOTH",
"365 518 LINE",
"365 1087 LINE",
"641 1087 LINE SMOOTH"
);
},
{
closed = 1;
nodes = (
"365 0 LINE",
"365 378 LINE",
"628 378 LINE SMOOTH",
"749 378 OFFCURVE",
"839 390 OFFCURVE",
"906 410 CURVE SMOOTH",
"973 430 OFFCURVE",
"1017 456 OFFCURVE",
"1049 484 CURVE SMOOTH",
"1078 509 OFFCURVE",
"1109 545 OFFCURVE",
"1133 596 CURVE SMOOTH",
"1157 647 OFFCURVE",
"1173 714 OFFCURVE",
"1173 802 CURVE SMOOTH",
"1173 890 OFFCURVE",
"1157 957 OFFCURVE",
"1134 1009 CURVE SMOOTH",
"1110 1061 OFFCURVE",
"1080 1097 OFFCURVE",
"1051 1124 CURVE SMOOTH",
"1011 1161 OFFCURVE",
"959 1188 OFFCURVE",
"881 1205 CURVE SMOOTH",
"803 1222 OFFCURVE",
"701 1231 OFFCURVE",
"561 1231 CURVE SMOOTH",
"365 1231 LINE",
"365 1441 LINE",
"191 1441 LINE",
"191 0 LINE"
);
}
);
width = 1245;
}
);
note = Thorn;
unicode = 00DE;
},
{
color = 4;
glyphname = Q;
layers = (
{
layerId = "2F8B9CD4-7B7F-4ACC-ADF3-B6E0F7033A19";
paths = (
{
closed = 1;
nodes = (
"872 1323 OFFCURVE",
"953 1306 OFFCURVE",
"1014 1281 CURVE SMOOTH",
"1202 1203 OFFCURVE",
"1241 1010 OFFCURVE",
"1241 729 CURVE SMOOTH",
"1241 438 OFFCURVE",
"1206 236 OFFCURVE",
"1017 157 CURVE SMOOTH",
"957 132 OFFCURVE",
"869 110 OFFCURVE",
"771 110 CURVE SMOOTH",
"673 110 OFFCURVE",
"584 132 OFFCURVE",
"523 157 CURVE SMOOTH",
"338 232 OFFCURVE",
"300 430 OFFCURVE",
"300 721 CURVE SMOOTH",
"300 1007 OFFCURVE",
"338 1203 OFFCURVE",
"528 1281 CURVE SMOOTH",
"589 1306 OFFCURVE",
"671 1323 OFFCURVE",
"771 1323 CURVE SMOOTH"
);
},
{
closed = 1;
nodes = (
"121 230 OFFCURVE",
"284 -38 OFFCURVE",
"771 -38 CURVE SMOOTH",
"1258 -38 OFFCURVE",
"1420 230 OFFCURVE",
"1420 728 CURVE SMOOTH",
"1420 1060 OFFCURVE",
"1352 1295 OFFCURVE",
"1104 1409 CURVE SMOOTH",
"1023 1444 OFFCURVE",
"915 1472 OFFCURVE",
"771 1472 CURVE SMOOTH",
"629 1472 OFFCURVE",
"518 1445 OFFCURVE",
"438 1409 CURVE SMOOTH",
"190 1299 OFFCURVE",
"121 1060 OFFCURVE",
"121 727 CURVE SMOOTH"
);
},
{
closed = 1;
nodes = (
"770 -297 LINE",
"1425 -297 LINE",
"1425 -158 LINE",
"770 -158 LINE"
);
}
);
width = 1530;
}
);
note = Q;
unicode = 0051;
},
{
color = 4;
glyphname = R;
layers = (
{
layerId = "2F8B9CD4-7B7F-4ACC-ADF3-B6E0F7033A19";
paths = (
{
closed = 1;
nodes = (
"366 0 LINE",
"366 639 LINE",
"714 639 LINE SMOOTH",
"841 639 OFFCURVE",
"889 627 OFFCURVE",
"943 590 CURVE SMOOTH",
"1009 545 OFFCURVE",
"1011 487 OFFCURVE",
"1025 365 CURVE SMOOTH",
"1068 0 LINE",
"1244 0 LINE",
"1200 361 LINE SMOOTH",
"1183 498 OFFCURVE",
"1174 571 OFFCURVE",
"1124 627 CURVE SMOOTH",
"1091 664 OFFCURVE",
"1029 696 OFFCURVE",
"950 716 CURVE",
"1029 735 OFFCURVE",
"1091 775 OFFCURVE",
"1124 811 CURVE SMOOTH",
"1176 868 OFFCURVE",
"1199 954 OFFCURVE",
"1199 1040 CURVE SMOOTH",
"1199 1120 OFFCURVE",
"1183 1197 OFFCURVE",
"1160 1249 CURVE SMOOTH",
"1111 1361 OFFCURVE",
"1023 1400 OFFCURVE",
"928 1420 CURVE SMOOTH",
"849 1437 OFFCURVE",
"767 1441 OFFCURVE",
"597 1441 CURVE SMOOTH",
"192 1441 LINE",
"192 0 LINE"
);
},
{
closed = 1;
nodes = (
"366 1293 LINE",
"663 1293 LINE SMOOTH",
"810 1293 OFFCURVE",
"896 1291 OFFCURVE",
"958 1244 CURVE",
"1005 1203 OFFCURVE",
"1031 1151 OFFCURVE",
"1031 1040 CURVE SMOOTH",
"1031 965 OFFCURVE",
"1015 898 OFFCURVE",
"968 853 CURVE",
"902 783 OFFCURVE",
"795 785 OFFCURVE",
"633 785 CURVE SMOOTH",
"366 785 LINE"
);
}
);
width = 1354;
}
);
note = R;
unicode = 0052;
},
{
color = 4;
glyphname = S;
layers = (
{
layerId = "2F8B9CD4-7B7F-4ACC-ADF3-B6E0F7033A19";
paths = (
{
closed = 1;
nodes = (
"120 259 OFFCURVE",
"138 145 OFFCURVE",
"241 69 CURVE SMOOTH",
"338 -3 OFFCURVE",
"442 -29 OFFCURVE",
"657 -29 CURVE SMOOTH",
"983 -29 OFFCURVE",
"1154 83 OFFCURVE",
"1154 400 CURVE SMOOTH",
"1154 674 OFFCURVE",
"1036 776 OFFCURVE",
"646 833 CURVE SMOOTH",
"354 876 OFFCURVE",
"298 925 OFFCURVE",
"298 1101 CURVE SMOOTH",
"298 1304 OFFCURVE",
"450 1325 OFFCURVE",
"631 1325 CURVE SMOOTH",
"784 1325 OFFCURVE",
"878 1317 OFFCURVE",
"924 1248 CURVE SMOOTH",
"950 1209 OFFCURVE",
"955 1162 OFFCURVE",
"955 1111 CURVE",
"1114 1111 LINE",
"1114 1186 OFFCURVE",
"1111 1243 OFFCURVE",
"1079 1302 CURVE SMOOTH",
"1016 1428 OFFCURVE",
"871 1477 OFFCURVE",
"646 1477 CURVE SMOOTH",
"343 1477 OFFCURVE",
"124 1398 OFFCURVE",
"124 1097 CURVE SMOOTH",
"124 839 OFFCURVE",
"228 733 OFFCURVE",
"577 680 CURVE SMOOTH",
"898 632 OFFCURVE",
"980 582 OFFCURVE",
"980 392 CURVE SMOOTH",
"980 184 OFFCURVE",
"872 122 OFFCURVE",
"664 122 CURVE SMOOTH",
"516 122 OFFCURVE",
"429 123 OFFCURVE",
"352 180 CURVE SMOOTH",
"298 220 OFFCURVE",
"285 288 OFFCURVE",
"285 366 CURVE",
"120 366 LINE"
);
}
);
width = 1250;
}
);
note = S;
unicode = 0053;
},
{
glyphname = Schwa;
layers = (
{
layerId = "2F8B9CD4-7B7F-4ACC-ADF3-B6E0F7033A19";
paths = (
{
closed = 1;
nodes = (
"1042 458 OFFCURVE",
"1024 383 OFFCURVE",
"1004 327 CURVE SMOOTH",
"950 177 OFFCURVE",
"826 128 OFFCURVE",
"623 128 CURVE SMOOTH",
"431 128 OFFCURVE",
"317 167 OFFCURVE",
"264 301 CURVE SMOOTH",
"240 362 OFFCURVE",
"218 446 OFFCURVE",
"221 576 CURVE",
"1046 576 LINE"
);
},
{
closed = 1;
nodes = (
"211 1257 OFFCURVE",
"395 1279 OFFCURVE",
"606 1279 CURVE SMOOTH",
"689 1279 OFFCURVE",
"811 1268 OFFCURVE",
"870 1234 CURVE",
"998 1164 OFFCURVE",
"1049 948 OFFCURVE",
"1049 737 CURVE",
"-8 737 LINE",
"-8 606 OFFCURVE",
"-23 428 OFFCURVE",
"30 289 CURVE SMOOTH",
"56 221 OFFCURVE",
"80 175 OFFCURVE",
"101 147 CURVE SMOOTH",
"211 1 OFFCURVE",
"407 -46 OFFCURVE",
"618 -46 CURVE SMOOTH",
"919 -46 OFFCURVE",
"1120 50 OFFCURVE",
"1216 297 CURVE SMOOTH",
"1251 387 OFFCURVE",
"1278 516 OFFCURVE",
"1278 702 CURVE SMOOTH",
"1278 887 OFFCURVE",
"1252 1018 OFFCURVE",
"1218 1109 CURVE SMOOTH",
"1163 1257 OFFCURVE",
"1087 1343 OFFCURVE",
"953 1395 CURVE SMOOTH",
"875 1425 OFFCURVE",
"764 1450 OFFCURVE",
"612 1450 CURVE SMOOTH",
"424 1450 OFFCURVE",
"208 1421 OFFCURVE",
"106 1304 CURVE SMOOTH",
"39 1227 OFFCURVE",
"3 1141 OFFCURVE",
"3 1023 CURVE",
"199 1023 LINE"
);
}
);
width = 978;
}
);
unicode = 018F;
},
{
color = 4;
glyphname = T;
layers = (
{
layerId = "2F8B9CD4-7B7F-4ACC-ADF3-B6E0F7033A19";
paths = (
{
closed = 1;
nodes = (
"485 1288 LINE",
"485 -1 LINE",
"658 -1 LINE",
"658 1288 LINE",
"1105 1288 LINE",
"1105 1441 LINE",
"38 1441 LINE",
"38 1288 LINE"
);
}
);
width = 1145;
}
);
note = T;
unicode = 0054;
},
{
glyphname = Tbar;
layers = (
{
layerId = "2F8B9CD4-7B7F-4ACC-ADF3-B6E0F7033A19";
paths = (
{
closed = 1;
nodes = (
"485 1288 LINE",
"485 -1 LINE",
"658 -1 LINE",
"658 1288 LINE",
"1105 1288 LINE",
"1105 1441 LINE",
"38 1441 LINE",
"38 1288 LINE"
);
},
{
closed = 1;
nodes = (
"187 452 LINE",
"956 452 LINE",
"956 609 LINE",
"187 609 LINE"
);
}
);
width = 1145;
}
);
unicode = 0166;
},
{
color = 4;
glyphname = U;
layers = (
{
layerId = "2F8B9CD4-7B7F-4ACC-ADF3-B6E0F7033A19";
paths = (
{
closed = 1;
nodes = (
"350 1441 LINE",
"176 1441 LINE",
"176 684 LINE SMOOTH",
"176 497 OFFCURVE",
"192 373 OFFCURVE",
"217 279 CURVE SMOOTH",
"244 176 OFFCURVE",
"303 60 OFFCURVE",
"456 3 CURVE SMOOTH",
"529 -24 OFFCURVE",
"633 -48 OFFCURVE",
"756 -48 CURVE SMOOTH",
"877 -48 OFFCURVE",
"986 -25 OFFCURVE",
"1059 3 CURVE SMOOTH",
"1208 60 OFFCURVE",
"1267 176 OFFCURVE",
"1294 279 CURVE SMOOTH",
"1319 376 OFFCURVE",
"1335 497 OFFCURVE",
"1335 684 CURVE SMOOTH",
"1335 1441 LINE",
"1161 1441 LINE",
"1161 681 LINE SMOOTH",
"1161 425 OFFCURVE",
"1149 211 OFFCURVE",
"993 151 CURVE SMOOTH",
"937 130 OFFCURVE",
"858 109 OFFCURVE",
"756 109 CURVE SMOOTH",
"656 109 OFFCURVE",
"573 130 OFFCURVE",
"518 151 CURVE SMOOTH",
"362 212 OFFCURVE",
"350 425 OFFCURVE",
"350 681 CURVE SMOOTH"
);
}
);
width = 1511;
}
);
note = U;
unicode = 0055;
},
{
color = 4;
glyphname = V;
layers = (
{
layerId = "2F8B9CD4-7B7F-4ACC-ADF3-B6E0F7033A19";
paths = (
{
closed = 1;
nodes = (
"1235 1441 LINE",
"1061 1441 LINE",
"705 372 LINE",
"647 189 LINE",
"614 189 LINE",
"556 372 LINE",
"195 1441 LINE",
"21 1441 LINE",
"537 0 LINE",
"731 0 LINE"
);
}
);
width = 1261;
}
);
note = V;
unicode = 0056;
},
{
color = 4;
glyphname = W;
layers = (
{
layerId = "2F8B9CD4-7B7F-4ACC-ADF3-B6E0F7033A19";
paths = (
{
closed = 1;
nodes = (
"386 0 LINE",
"600 0 LINE",
"896 1235 LINE",
"931 1235 LINE",
"1216 0 LINE",
"1430 0 LINE",
"1782 1441 LINE",
"1618 1441 LINE",
"1333 193 LINE",
"1304 193 LINE",
"1244 474 LINE",
"1021 1441 LINE",
"796 1441 LINE",
"572 476 LINE",
"514 194 LINE",
"485 194 LINE",
"199 1441 LINE",
"35 1441 LINE"
);
}
);
width = 1789;
}
);
note = W;
unicode = 0057;
},
{
color = 4;
glyphname = X;
layers = (
{
layerId = "2F8B9CD4-7B7F-4ACC-ADF3-B6E0F7033A19";
paths = (
{
closed = 1;
nodes = (
"40 0 LINE",
"217 0 LINE",
"618 614 LINE",
"1029 0 LINE",
"1206 0 LINE",
"715 747 LINE",
"1175 1441 LINE",
"1001 1441 LINE",
"618 871 LINE",
"231 1441 LINE",
"57 1441 LINE",
"522 745 LINE"
);
}
);
width = 1236;
}
);
note = X;
unicode = 0058;
},
{
color = 4;
glyphname = Y;
layers = (
{
layerId = "2F8B9CD4-7B7F-4ACC-ADF3-B6E0F7033A19";
paths = (
{
closed = 1;
nodes = (
"659 0 LINE",
"659 596 LINE",
"1152 1441 LINE",
"971 1441 LINE",
"587 773 LINE",
"559 773 LINE",
"180 1441 LINE",
"-4 1441 LINE",
"485 596 LINE",
"485 0 LINE"
);
}
);
width = 1142;
}
);
note = Y;
unicode = 0059;
},
{
color = 4;
glyphname = Z;
layers = (
{
layerId = "2F8B9CD4-7B7F-4ACC-ADF3-B6E0F7033A19";
paths = (
{
closed = 1;
nodes = (
"919 1289 LINE",
"70 126 LINE",
"70 0 LINE",
"1115 0 LINE",
"1115 152 LINE",
"279 152 LINE",
"1112 1313 LINE",
"1112 1441 LINE",
"84 1441 LINE",
"84 1289 LINE"
);
}
);
width = 1225;
}
);
note = Z;
unicode = 005A;
},
{
color = 4;
glyphname = a;
layers = (
{
layerId = "2F8B9CD4-7B7F-4ACC-ADF3-B6E0F7033A19";
paths = (
{
closed = 1;
nodes = (
"272 793 OFFCURVE",
"301 849 OFFCURVE",
"333 871 CURVE SMOOTH",
"375 900 OFFCURVE",
"432 909 OFFCURVE",
"529 909 CURVE SMOOTH",
"632 909 OFFCURVE",
"690 899 OFFCURVE",
"725 871 CURVE SMOOTH",
"760 844 OFFCURVE",
"777 819 OFFCURVE",
"777 738 CURVE SMOOTH",
"777 701 OFFCURVE",
"777 652 OFFCURVE",
"777 593 CURVE",
"669 593 OFFCURVE",
"623 593 OFFCURVE",
"534 593 CURVE SMOOTH",
"271 593 OFFCURVE",
"99 520 OFFCURVE",
"99 282 CURVE SMOOTH",
"99 77 OFFCURVE",
"253 -23 OFFCURVE",
"450 -23 CURVE SMOOTH",
"581 -23 OFFCURVE",
"731 26 OFFCURVE",
"799 118 CURVE",
"799 42 OFFCURVE",
"865 -24 OFFCURVE",
"961 -24 CURVE SMOOTH",
"989 -24 OFFCURVE",
"1005 -24 OFFCURVE",
"1031 -15 CURVE",
"1031 107 LINE",
"941 99 OFFCURVE",
"931 122 OFFCURVE",
"931 211 CURVE SMOOTH",
"931 727 LINE SMOOTH",
"931 926 OFFCURVE",
"829 1033 OFFCURVE",
"529 1033 CURVE SMOOTH",
"296 1033 OFFCURVE",
"133 953 OFFCURVE",
"133 738 CURVE",
"272 738 LINE"
);
},
{
closed = 1;
nodes = (
"778 233 OFFCURVE",
"751 194 OFFCURVE",
"702 158 CURVE SMOOTH",
"653 122 OFFCURVE",
"580 99 OFFCURVE",
"487 99 CURVE SMOOTH",
"354 99 OFFCURVE",
"257 159 OFFCURVE",
"257 285 CURVE SMOOTH",
"257 472 OFFCURVE",
"389 479 OFFCURVE",
"711 479 CURVE SMOOTH",
"732 479 OFFCURVE",
"755 479 OFFCURVE",
"778 479 CURVE",
"778 305 LINE SMOOTH"
);
}
);
width = 1091;
}
);
note = a;
unicode = 0061;
},
{
glyphname = ahookabove;
layers = (
{
components = (
{
name = a;
}
);
layerId = "2F8B9CD4-7B7F-4ACC-ADF3-B6E0F7033A19";
paths = (
{
closed = 1;
nodes = (
"808 1432 OFFCURVE",
"714 1431 OFFCURVE",
"495 1431 CURVE",
"495 1340 LINE",
"664 1340 OFFCURVE",
"694 1336 OFFCURVE",
"694 1261 CURVE",
"694 1192 OFFCURVE",
"670 1181 OFFCURVE",
"619 1181 CURVE",
"501 1181 OFFCURVE",
"489 1092 OFFCURVE",
"489 1031 CURVE",
"596 1031 LINE",
"596 1086 OFFCURVE",
"605 1092 OFFCURVE",
"652 1092 CURVE",
"698 1092 OFFCURVE",
"808 1107 OFFCURVE",
"808 1263 CURVE"
);
}
);
width = 1091;
}
);
unicode = 1EA3;
},
{
color = 4;
glyphname = ae;
layers = (
{
layerId = "2F8B9CD4-7B7F-4ACC-ADF3-B6E0F7033A19";
paths = (
{
closed = 1;
nodes = (
"99 520 OFFCURVE",
"271 593 OFFCURVE",
"534 593 CURVE SMOOTH",
"623 593 OFFCURVE",
"669 593 OFFCURVE",
"777 593 CURVE",
"777 738 LINE SMOOTH",
"777 819 OFFCURVE",
"760 844 OFFCURVE",
"725 871 CURVE SMOOTH",
"690 899 OFFCURVE",
"632 909 OFFCURVE",
"529 909 CURVE SMOOTH",
"432 909 OFFCURVE",
"375 900 OFFCURVE",
"333 871 CURVE SMOOTH",
"301 849 OFFCURVE",
"272 793 OFFCURVE",
"272 738 CURVE",
"133 738 LINE",
"133 953 OFFCURVE",
"296 1033 OFFCURVE",
"529 1033 CURVE SMOOTH",
"712 1033 OFFCURVE",
"827 990 OFFCURVE",
"878 908 CURVE",
"949 990 OFFCURVE",
"1034 1034 OFFCURVE",
"1218 1034 CURVE SMOOTH",
"1352 1034 OFFCURVE",
"1484 999 OFFCURVE",
"1560 898 CURVE SMOOTH",
"1575 878 OFFCURVE",
"1592 845 OFFCURVE",
"1609 797 CURVE SMOOTH",
"1644 699 OFFCURVE",
"1635 573 OFFCURVE",
"1635 480 CURVE",
"934 480 LINE",
"934 321 OFFCURVE",
"968 179 OFFCURVE",
"1057 129 CURVE",
"1096 105 OFFCURVE",
"1179 97 OFFCURVE",
"1236 97 CURVE SMOOTH",
"1360 97 OFFCURVE",
"1486 113 OFFCURVE",
"1493 278 CURVE",
"1627 278 LINE",
"1627 195 OFFCURVE",
"1603 134 OFFCURVE",
"1557 80 CURVE SMOOTH",
"1487 -3 OFFCURVE",
"1340 -23 OFFCURVE",
"1232 -23 CURVE SMOOTH",
"1128 -23 OFFCURVE",
"1051 -7 OFFCURVE",
"997 15 CURVE SMOOTH",
"927 43 OFFCURVE",
"896 86 OFFCURVE",
"865 151 CURVE",
"799 47 OFFCURVE",
"653 -25 OFFCURVE",
"450 -23 CURVE SMOOTH",
"253 -21 OFFCURVE",
"99 77 OFFCURVE",
"99 282 CURVE SMOOTH"
);
},
{
closed = 1;
nodes = (
"257 159 OFFCURVE",
"354 99 OFFCURVE",
"487 99 CURVE SMOOTH",
"580 99 OFFCURVE",
"653 122 OFFCURVE",
"702 158 CURVE SMOOTH",
"751 194 OFFCURVE",
"778 233 OFFCURVE",
"778 305 CURVE SMOOTH",
"778 480 LINE",
"711 479 LINE SMOOTH",
"389 479 OFFCURVE",
"257 472 OFFCURVE",
"257 285 CURVE SMOOTH"
);
},
{
closed = 1;
nodes = (
"1479 594 LINE",
"1481 686 OFFCURVE",
"1465 746 OFFCURVE",
"1449 789 CURVE SMOOTH",
"1414 884 OFFCURVE",
"1335 911 OFFCURVE",
"1214 911 CURVE SMOOTH",
"1086 911 OFFCURVE",
"998 877 OFFCURVE",
"964 771 CURVE SMOOTH",
"951 731 OFFCURVE",
"939 678 OFFCURVE",
"936 594 CURVE"
);
}
);
width = 1731;
}
);
note = ae;
unicode = 00E6;
},
{
color = 4;
glyphname = b;
layers = (
{
layerId = "2F8B9CD4-7B7F-4ACC-ADF3-B6E0F7033A19";
paths = (
{
closed = 1;
nodes = (
"724 909 OFFCURVE",
"800 871 OFFCURVE",
"830 732 CURVE SMOOTH",
"841 681 OFFCURVE",
"849 607 OFFCURVE",
"849 495 CURVE SMOOTH",
"849 218 OFFCURVE",
"818 102 OFFCURVE",
"566 102 CURVE SMOOTH",
"311 102 OFFCURVE",
"268 218 OFFCURVE",
"268 505 CURVE SMOOTH",
"268 804 OFFCURVE",
"301 909 OFFCURVE",
"563 909 CURVE SMOOTH"
);
},
{
closed = 1;
nodes = (
"268 1441 LINE",
"114 1441 LINE",
"114 0 LINE",
"237 0 LINE",
"255 134 LINE",
"303 59 OFFCURVE",
"383 -23 OFFCURVE",
"601 -23 CURVE SMOOTH",
"805 -23 OFFCURVE",
"936 55 OFFCURVE",
"980 236 CURVE SMOOTH",
"1016 379 OFFCURVE",
"1014 660 OFFCURVE",
"971 803 CURVE SMOOTH",
"944 897 OFFCURVE",
"897 955 OFFCURVE",
"807 995 CURVE SMOOTH",
"759 1017 OFFCURVE",
"691 1033 OFFCURVE",
"599 1033 CURVE SMOOTH",
"378 1033 OFFCURVE",
"315 966 OFFCURVE",
"268 898 CURVE"
);
}
);
width = 1145;
}
);
note = b;
unicode = 0062;
},
{
color = 4;
glyphname = c;
layers = (
{
layerId = "2F8B9CD4-7B7F-4ACC-ADF3-B6E0F7033A19";
paths = (
{
closed = 1;
nodes = (
"836 226 OFFCURVE",
"817 151 OFFCURVE",
"732 122 CURVE SMOOTH",
"696 110 OFFCURVE",
"646 97 OFFCURVE",
"577 97 CURVE SMOOTH",
"496 97 OFFCURVE",
"441 109 OFFCURVE",
"402 125 CURVE SMOOTH",
"340 150 OFFCURVE",
"306 187 OFFCURVE",
"287 266 CURVE SMOOTH",
"275 315 OFFCURVE",
"265 390 OFFCURVE",
"265 507 CURVE SMOOTH",
"265 620 OFFCURVE",
"275 693 OFFCURVE",
"287 741 CURVE SMOOTH",
"305 814 OFFCURVE",
"333 855 OFFCURVE",
"397 882 CURVE SMOOTH",
"435 898 OFFCURVE",
"489 910 OFFCURVE",
"572 910 CURVE SMOOTH",
"656 910 OFFCURVE",
"751 895 OFFCURVE",
"793 846 CURVE SMOOTH",
"824 810 OFFCURVE",
"834 757 OFFCURVE",
"838 702 CURVE",
"970 702 LINE",
"968 812 OFFCURVE",
"939 888 OFFCURVE",
"889 938 CURVE SMOOTH",
"818 1009 OFFCURVE",
"691 1035 OFFCURVE",
"576 1035 CURVE SMOOTH",
"472 1035 OFFCURVE",
"393 1016 OFFCURVE",
"334 991 CURVE SMOOTH",
"157 916 OFFCURVE",
"109 749 OFFCURVE",
"109 509 CURVE SMOOTH",
"109 380 OFFCURVE",
"125 290 OFFCURVE",
"146 226 CURVE SMOOTH",
"178 123 OFFCURVE",
"234 60 OFFCURVE",
"333 21 CURVE SMOOTH",
"392 -4 OFFCURVE",
"471 -23 OFFCURVE",
"575 -23 CURVE SMOOTH",
"675 -23 OFFCURVE",
"749 -9 OFFCURVE",
"801 13 CURVE SMOOTH",
"918 62 OFFCURVE",
"969 167 OFFCURVE",
"970 310 CURVE",
"838 310 LINE"
);
}
);
width = 1068;
}
);
note = c;
unicode = 0063;
},
{
color = 4;
glyphname = d;
layers = (
{
layerId = "2F8B9CD4-7B7F-4ACC-ADF3-B6E0F7033A19";
paths = (
{
closed = 1;
nodes = (
"818 909 OFFCURVE",
"851 804 OFFCURVE",
"851 505 CURVE SMOOTH",
"851 218 OFFCURVE",
"808 102 OFFCURVE",
"553 102 CURVE SMOOTH",
"301 102 OFFCURVE",
"270 218 OFFCURVE",
"270 495 CURVE SMOOTH",
"270 607 OFFCURVE",
"278 681 OFFCURVE",
"289 732 CURVE SMOOTH",
"319 871 OFFCURVE",
"395 909 OFFCURVE",
"556 909 CURVE SMOOTH"
);
},
{
closed = 1;
nodes = (
"801 973 OFFCURVE",
"741 1033 OFFCURVE",
"520 1033 CURVE SMOOTH",
"428 1033 OFFCURVE",
"360 1017 OFFCURVE",
"312 995 CURVE SMOOTH",
"222 955 OFFCURVE",
"175 897 OFFCURVE",
"148 803 CURVE SMOOTH",
"105 660 OFFCURVE",
"103 379 OFFCURVE",
"139 236 CURVE SMOOTH",
"183 55 OFFCURVE",
"314 -23 OFFCURVE",
"518 -23 CURVE SMOOTH",
"736 -23 OFFCURVE",
"816 59 OFFCURVE",
"864 134 CURVE",
"882 0 LINE",
"1005 0 LINE",
"1005 1441 LINE",
"851 1441 LINE",
"851 905 LINE"
);
}
);
width = 1163;
}
);
note = d;
unicode = 0064;
},
{
color = 4;
glyphname = eth;
layers = (
{
guideLines = (
{
position = "{902, 1350}";
},
{
position = "{891, 1011}";
}
);
layerId = "2F8B9CD4-7B7F-4ACC-ADF3-B6E0F7033A19";
paths = (
{
closed = 1;
nodes = (
"328 984 LINE",
"328 1163 OFFCURVE",
"412 1209 OFFCURVE",
"605 1209 CURVE SMOOTH",
"779 1209 OFFCURVE",
"878 1163 OFFCURVE",
"887 944 CURVE SMOOTH",
"891 849 OFFCURVE",
"887 748 OFFCURVE",
"890 680 CURVE",
"821 781 OFFCURVE",
"728 810 OFFCURVE",
"557 810 CURVE SMOOTH",
"391 810 OFFCURVE",
"302 785 OFFCURVE",
"240 721 CURVE SMOOTH",
"166 644 OFFCURVE",
"153 537 OFFCURVE",
"153 398 CURVE SMOOTH",
"153 74 OFFCURVE",
"246 -32 OFFCURVE",
"590 -32 CURVE SMOOTH",
"929 -32 OFFCURVE",
"1037 67 OFFCURVE",
"1037 483 CURVE SMOOTH",
"1037 796 OFFCURVE",
"1037 876 OFFCURVE",
"1037 956 CURVE SMOOTH",
"1037 1247 OFFCURVE",
"858 1334 OFFCURVE",
"601 1334 CURVE SMOOTH",
"353 1334 OFFCURVE",
"186 1255 OFFCURVE",
"186 984 CURVE"
);
},
{
closed = 1;
nodes = (
"485 93 OFFCURVE",
"395 110 OFFCURVE",
"353 154 CURVE SMOOTH",
"312 196 OFFCURVE",
"305 274 OFFCURVE",
"305 397 CURVE SMOOTH",
"305 516 OFFCURVE",
"324 601 OFFCURVE",
"380 644 CURVE SMOOTH",
"419 674 OFFCURVE",
"498 680 OFFCURVE",
"578 680 CURVE SMOOTH",
"738 680 OFFCURVE",
"842 653 OFFCURVE",
"889 528 CURVE",
"893 264 OFFCURVE",
"873 196 OFFCURVE",
"829 154 CURVE SMOOTH",
"787 114 OFFCURVE",
"701 93 OFFCURVE",
"592 93 CURVE SMOOTH"
);
},
{
closed = 1;
nodes = (
"716 965 LINE",
"1130 1267 LINE",
"1051 1379 LINE",
"644 1065 LINE"
);
}
);
width = 1119;
}
);
note = eth;
unicode = 00F0;
},
{
glyphname = dcroat;
layers = (
{
layerId = "2F8B9CD4-7B7F-4ACC-ADF3-B6E0F7033A19";
paths = (
{
closed = 1;
nodes = (
"818 909 OFFCURVE",
"851 804 OFFCURVE",
"851 505 CURVE SMOOTH",
"851 218 OFFCURVE",
"808 102 OFFCURVE",
"553 102 CURVE SMOOTH",
"301 102 OFFCURVE",
"270 218 OFFCURVE",
"270 495 CURVE SMOOTH",
"270 607 OFFCURVE",
"278 681 OFFCURVE",
"289 732 CURVE SMOOTH",
"319 871 OFFCURVE",
"395 909 OFFCURVE",
"556 909 CURVE SMOOTH"
);
},
{
closed = 1;
nodes = (
"801 973 OFFCURVE",
"741 1033 OFFCURVE",
"520 1033 CURVE SMOOTH",
"428 1033 OFFCURVE",
"360 1017 OFFCURVE",
"312 995 CURVE SMOOTH",
"222 955 OFFCURVE",
"175 897 OFFCURVE",
"148 803 CURVE SMOOTH",
"105 660 OFFCURVE",
"103 379 OFFCURVE",
"139 236 CURVE SMOOTH",
"183 55 OFFCURVE",
"314 -23 OFFCURVE",
"518 -23 CURVE SMOOTH",
"736 -23 OFFCURVE",
"816 59 OFFCURVE",
"864 134 CURVE",
"882 0 LINE",
"1005 0 LINE",
"1005 1441 LINE",
"851 1441 LINE",
"851 905 LINE"
);
},
{
closed = 1;
nodes = (
"555 1180 LINE",
"1237 1180 LINE",
"1237 1296 LINE",
"555 1296 LINE"
);
}
);
width = 1105;
}
);
unicode = 0111;
},
{
color = 4;
glyphname = e;
layers = (
{
guideLines = (
{
position = "{717, 129}";
}
);
layerId = "2F8B9CD4-7B7F-4ACC-ADF3-B6E0F7033A19";
paths = (
{
closed = 1;
nodes = (
"271 678 OFFCURVE",
"283 731 OFFCURVE",
"296 771 CURVE SMOOTH",
"330 877 OFFCURVE",
"418 911 OFFCURVE",
"556 911 CURVE SMOOTH",
"687 911 OFFCURVE",
"766 884 OFFCURVE",
"801 789 CURVE SMOOTH",
"816 746 OFFCURVE",
"833 686 OFFCURVE",
"831 594 CURVE",
"268 594 LINE"
);
},
{
closed = 1;
nodes = (
"838 113 OFFCURVE",
"712 97 OFFCURVE",
"568 97 CURVE SMOOTH",
"511 97 OFFCURVE",
"428 105 OFFCURVE",
"389 129 CURVE",
"300 179 OFFCURVE",
"266 331 OFFCURVE",
"266 480 CURVE",
"987 480 LINE",
"987 573 OFFCURVE",
"995 699 OFFCURVE",
"961 797 CURVE SMOOTH",
"944 845 OFFCURVE",
"927 878 OFFCURVE",
"912 898 CURVE SMOOTH",
"839 1001 OFFCURVE",
"704 1034 OFFCURVE",
"560 1034 CURVE SMOOTH",
"354 1034 OFFCURVE",
"215 967 OFFCURVE",
"152 792 CURVE SMOOTH",
"128 728 OFFCURVE",
"110 637 OFFCURVE",
"110 505 CURVE SMOOTH",
"110 374 OFFCURVE",
"127 282 OFFCURVE",
"151 217 CURVE SMOOTH",
"188 113 OFFCURVE",
"240 52 OFFCURVE",
"331 15 CURVE SMOOTH",
"385 -7 OFFCURVE",
"460 -23 OFFCURVE",
"564 -23 CURVE SMOOTH",
"692 -23 OFFCURVE",
"839 -3 OFFCURVE",
"909 80 CURVE SMOOTH",
"954 135 OFFCURVE",
"979 195 OFFCURVE",
"979 278 CURVE",
"845 278 LINE"
);
}
);
width = 1096;
}
);
note = e;
unicode = 0065;
},
{
glyphname = ehookabove;
layers = (
{
components = (
{
name = e;
}
);
layerId = "2F8B9CD4-7B7F-4ACC-ADF3-B6E0F7033A19";
paths = (
{
closed = 1;
nodes = (
"822 1432 OFFCURVE",
"728 1431 OFFCURVE",
"509 1431 CURVE",
"509 1340 LINE",
"678 1340 OFFCURVE",
"708 1336 OFFCURVE",
"708 1261 CURVE",
"708 1192 OFFCURVE",
"684 1181 OFFCURVE",
"633 1181 CURVE",
"515 1181 OFFCURVE",
"503 1092 OFFCURVE",
"503 1031 CURVE",
"610 1031 LINE",
"610 1086 OFFCURVE",
"619 1092 OFFCURVE",
"666 1092 CURVE",
"712 1092 OFFCURVE",
"822 1107 OFFCURVE",
"822 1263 CURVE"
);
}
);
width = 1096;
}
);
unicode = 1EBB;
},
{
glyphname = schwa;
layers = (
{
layerId = "2F8B9CD4-7B7F-4ACC-ADF3-B6E0F7033A19";
paths = (
{
closed = 1;
nodes = (
"767 333 OFFCURVE",
"755 280 OFFCURVE",
"742 240 CURVE SMOOTH",
"708 134 OFFCURVE",
"620 100 OFFCURVE",
"482 100 CURVE SMOOTH",
"351 100 OFFCURVE",
"272 127 OFFCURVE",
"237 222 CURVE SMOOTH",
"221 265 OFFCURVE",
"205 325 OFFCURVE",
"207 417 CURVE",
"770 417 LINE"
);
},
{
closed = 1;
nodes = (
"200 898 OFFCURVE",
"326 914 OFFCURVE",
"470 914 CURVE SMOOTH",
"527 914 OFFCURVE",
"610 906 OFFCURVE",
"649 882 CURVE",
"738 832 OFFCURVE",
"772 680 OFFCURVE",
"772 531 CURVE",
"51 531 LINE",
"51 438 OFFCURVE",
"42 312 OFFCURVE",
"77 214 CURVE SMOOTH",
"94 166 OFFCURVE",
"111 133 OFFCURVE",
"126 113 CURVE SMOOTH",
"202 12 OFFCURVE",
"334 -23 OFFCURVE",
"478 -23 CURVE SMOOTH",
"684 -23 OFFCURVE",
"823 44 OFFCURVE",
"886 219 CURVE SMOOTH",
"909 283 OFFCURVE",
"928 374 OFFCURVE",
"928 506 CURVE SMOOTH",
"928 637 OFFCURVE",
"911 729 OFFCURVE",
"887 794 CURVE SMOOTH",
"849 898 OFFCURVE",
"798 959 OFFCURVE",
"707 996 CURVE SMOOTH",
"653 1018 OFFCURVE",
"578 1034 OFFCURVE",
"474 1034 CURVE SMOOTH",
"346 1034 OFFCURVE",
"199 1014 OFFCURVE",
"129 931 CURVE SMOOTH",
"83 877 OFFCURVE",
"59 816 OFFCURVE",
"59 733 CURVE",
"193 733 LINE"
);
}
);
width = 958;
}
);
unicode = 0259;
},
{
color = 4;
glyphname = f;
layers = (
{
layerId = "2F8B9CD4-7B7F-4ACC-ADF3-B6E0F7033A19";
paths = (
{
closed = 1;
nodes = (
"412 1011 LINE",
"412 1196 LINE",
"412 1255 OFFCURVE",
"423 1279 OFFCURVE",
"450 1300 CURVE SMOOTH",
"471 1316 OFFCURVE",
"518 1321 OFFCURVE",
"560 1321 CURVE SMOOTH",
"622 1321 OFFCURVE",
"633 1318 OFFCURVE",
"677 1313 CURVE",
"677 1437 LINE",
"653 1441 OFFCURVE",
"618 1448 OFFCURVE",
"556 1448 CURVE SMOOTH",
"443 1448 OFFCURVE",
"389 1431 OFFCURVE",
"349 1406 CURVE SMOOTH",
"294 1372 OFFCURVE",
"258 1316 OFFCURVE",
"258 1135 CURVE SMOOTH",
"258 1011 LINE",
"76 1011 LINE",
"76 889 LINE",
"258 889 LINE",
"258 0 LINE",
"411 0 LINE",
"411 889 LINE",
"660 889 LINE",
"660 1011 LINE"
);
}
);
width = 716;
}
);
note = f;
unicode = 0066;
},
{
color = 4;
glyphname = g;
layers = (
{
layerId = "2F8B9CD4-7B7F-4ACC-ADF3-B6E0F7033A19";
paths = (
{
closed = 1;
nodes = (
"634 911 OFFCURVE",
"685 901 OFFCURVE",
"721 888 CURVE SMOOTH",
"775 868 OFFCURVE",
"814 807 OFFCURVE",
"831 731 CURVE SMOOTH",
"843 676 OFFCURVE",
"852 608 OFFCURVE",
"852 496 CURVE SMOOTH",
"852 389 OFFCURVE",
"842 340 OFFCURVE",
"831 293 CURVE SMOOTH",
"804 174 OFFCURVE",
"716 115 OFFCURVE",
"560 115 CURVE SMOOTH",
"481 115 OFFCURVE",
"429 126 OFFCURVE",
"393 140 CURVE SMOOTH",
"333 163 OFFCURVE",
"308 207 OFFCURVE",
"291 283 CURVE SMOOTH",
"279 332 OFFCURVE",
"272 406 OFFCURVE",
"272 518 CURVE SMOOTH",
"272 632 OFFCURVE",
"279 773 OFFCURVE",
"327 837 CURVE SMOOTH",
"372 897 OFFCURVE",
"464 911 OFFCURVE",
"557 911 CURVE SMOOTH"
);
},
{
closed = 1;
nodes = (
"870 7 OFFCURVE",
"868 -33 OFFCURVE",
"864 -64 CURVE SMOOTH",
"850 -174 OFFCURVE",
"814 -232 OFFCURVE",
"731 -263 CURVE SMOOTH",
"680 -282 OFFCURVE",
"630 -283 OFFCURVE",
"561 -283 CURVE SMOOTH",
"482 -283 OFFCURVE",
"440 -282 OFFCURVE",
"390 -263 CURVE SMOOTH",
"306 -232 OFFCURVE",
"292 -194 OFFCURVE",
"290 -120 CURVE",
"158 -120 LINE",
"159 -253 OFFCURVE",
"233 -342 OFFCURVE",
"332 -377 CURVE SMOOTH",
"385 -396 OFFCURVE",
"453 -407 OFFCURVE",
"563 -407 CURVE SMOOTH",
"684 -407 OFFCURVE",
"807 -394 OFFCURVE",
"889 -316 CURVE SMOOTH",
"973 -236 OFFCURVE",
"1005 -108 OFFCURVE",
"1005 62 CURVE SMOOTH",
"1005 1011 LINE",
"887 1011 LINE",
"871 876 LINE",
"787 1012 OFFCURVE",
"698 1034 OFFCURVE",
"522 1034 CURVE SMOOTH",
"425 1034 OFFCURVE",
"354 1015 OFFCURVE",
"302 991 CURVE SMOOTH",
"250 966 OFFCURVE",
"217 935 OFFCURVE",
"200 911 CURVE",
"129 821 OFFCURVE",
"115 660 OFFCURVE",
"115 507 CURVE SMOOTH",
"115 380 OFFCURVE",
"127 293 OFFCURVE",
"144 232 CURVE SMOOTH",
"169 138 OFFCURVE",
"212 72 OFFCURVE",
"298 32 CURVE SMOOTH",
"349 7 OFFCURVE",
"420 -12 OFFCURVE",
"516 -12 CURVE SMOOTH",
"680 -12 OFFCURVE",
"805 20 OFFCURVE",
"868 140 CURVE",
"869 56 LINE SMOOTH"
);
}
);
width = 1161;
}
);
note = g;
unicode = 0067;
},
{
glyphname = gcommaaccent;
layers = (
{
components = (
{
name = g;
}
);
layerId = "2F8B9CD4-7B7F-4ACC-ADF3-B6E0F7033A19";
paths = (
{
closed = 1;
nodes = (
"684 -531 OFFCURVE",
"656 -503 OFFCURVE",
"579 -503 CURVE",
"503 -503 OFFCURVE",
"467 -531 OFFCURVE",
"467 -611 CURVE",
"467 -689 OFFCURVE",
"503 -708 OFFCURVE",
"570 -708 CURVE",
"570 -775 OFFCURVE",
"542 -818 OFFCURVE",
"488 -878 CURVE",
"533 -944 LINE",
"556 -930 OFFCURVE",
"585 -911 OFFCURVE",
"619 -869 CURVE SMOOTH",
"654 -826 OFFCURVE",
"684 -770 OFFCURVE",
"684 -703 CURVE SMOOTH",
"684 -611 LINE"
);
}
);
width = 1105;
}
);
unicode = 0123;
},
{
color = 4;
glyphname = h;
layers = (
{
layerId = "2F8B9CD4-7B7F-4ACC-ADF3-B6E0F7033A19";
paths = (
{
closed = 1;
nodes = (
"915 994 OFFCURVE",
"818 1038 OFFCURVE",
"663 1038 CURVE SMOOTH",
"568 1038 OFFCURVE",
"498 1033 OFFCURVE",
"433 998 CURVE SMOOTH",
"383 971 OFFCURVE",
"343 916 OFFCURVE",
"318 871 CURVE",
"321 1442 LINE",
"168 1442 LINE",
"169 1 LINE",
"323 1 LINE",
"323 598 LINE SMOOTH",
"323 698 OFFCURVE",
"348 783 OFFCURVE",
"385 822 CURVE SMOOTH",
"442 883 OFFCURVE",
"503 909 OFFCURVE",
"618 909 CURVE SMOOTH",
"660 909 OFFCURVE",
"684 906 OFFCURVE",
"708 902 CURVE SMOOTH",
"827 882 OFFCURVE",
"868 784 OFFCURVE",
"868 618 CURVE SMOOTH",
"868 1 LINE",
"1022 1 LINE",
"1022 588 LINE SMOOTH",
"1022 751 OFFCURVE",
"1008 838 OFFCURVE",
"963 909 CURVE"
);
}
);
width = 1163;
}
);
note = h;
unicode = 0068;
},
{
glyphname = hbar;
layers = (
{
layerId = "2F8B9CD4-7B7F-4ACC-ADF3-B6E0F7033A19";
paths = (
{
closed = 1;
nodes = (
"975 993 OFFCURVE",
"878 1037 OFFCURVE",
"723 1037 CURVE SMOOTH",
"628 1037 OFFCURVE",
"558 1032 OFFCURVE",
"493 997 CURVE SMOOTH",
"443 970 OFFCURVE",
"403 915 OFFCURVE",
"378 870 CURVE",
"381 1441 LINE",
"228 1441 LINE",
"229 0 LINE",
"383 0 LINE",
"383 597 LINE SMOOTH",
"383 697 OFFCURVE",
"408 782 OFFCURVE",
"445 821 CURVE SMOOTH",
"502 882 OFFCURVE",
"563 908 OFFCURVE",
"678 908 CURVE SMOOTH",
"720 908 OFFCURVE",
"744 905 OFFCURVE",
"768 901 CURVE SMOOTH",
"887 881 OFFCURVE",
"928 783 OFFCURVE",
"928 617 CURVE SMOOTH",
"928 0 LINE",
"1082 0 LINE",
"1082 587 LINE SMOOTH",
"1082 750 OFFCURVE",
"1068 837 OFFCURVE",
"1023 908 CURVE"
);
},
{
closed = 1;
nodes = (
"52 1180 LINE",
"734 1180 LINE",
"734 1296 LINE",
"52 1296 LINE"
);
}
);
width = 1182;
}
);
unicode = 0127;
},
{
color = 4;
glyphname = i;
layers = (
{
layerId = "2F8B9CD4-7B7F-4ACC-ADF3-B6E0F7033A19";
paths = (
{
closed = 1;
nodes = (
"316 1011 LINE",
"163 1011 LINE",
"163 0 LINE",
"316 0 LINE"
);
},
{
closed = 1;
nodes = (
"340 1211 OFFCURVE",
"316 1184 OFFCURVE",
"243 1184 CURVE",
"169 1184 OFFCURVE",
"138 1211 OFFCURVE",
"138 1282 CURVE",
"138 1353 OFFCURVE",
"168 1381 OFFCURVE",
"243 1381 CURVE",
"316 1381 OFFCURVE",
"340 1353 OFFCURVE",
"340 1282 CURVE"
);
}
);
width = 470;
}
);
note = i;
unicode = 0069;
},
{
color = 4;
glyphname = idotless;
layers = (
{
layerId = "2F8B9CD4-7B7F-4ACC-ADF3-B6E0F7033A19";
paths = (
{
closed = 1;
nodes = (
"312 1011 LINE",
"158 1011 LINE",
"158 0 LINE",
"312 0 LINE"
);
}
);
width = 470;
}
);
note = dotlessi;
unicode = 0131;
},
{
color = 4;
glyphname = j;
layers = (
{
guideLines = (
{
position = "{259, -402}";
}
);
layerId = "2F8B9CD4-7B7F-4ACC-ADF3-B6E0F7033A19";
paths = (
{
closed = 1;
nodes = (
"340 1211 OFFCURVE",
"316 1184 OFFCURVE",
"243 1184 CURVE",
"169 1184 OFFCURVE",
"138 1211 OFFCURVE",
"138 1282 CURVE",
"138 1353 OFFCURVE",
"168 1381 OFFCURVE",
"243 1381 CURVE",
"316 1381 OFFCURVE",
"340 1353 OFFCURVE",
"340 1282 CURVE"
);
},
{
closed = 1;
nodes = (
"158 -108 LINE",
"158 -167 OFFCURVE",
"154 -215 OFFCURVE",
"125 -240 CURVE SMOOTH",
"98 -263 OFFCURVE",
"52 -266 OFFCURVE",
"-6 -266 CURVE SMOOTH",
"-46 -266 OFFCURVE",
"-66 -265 OFFCURVE",
"-112 -255 CURVE",
"-112 -388 LINE",
"-80 -396 OFFCURVE",
"-46 -402 OFFCURVE",
"14 -402 CURVE SMOOTH",
"107 -402 OFFCURVE",
"179 -383 OFFCURVE",
"219 -358 CURVE SMOOTH",
"274 -324 OFFCURVE",
"312 -268 OFFCURVE",
"312 -87 CURVE",
"312 1011 LINE",
"159 1011 LINE"
);
}
);
width = 469;
}
);
note = j;
unicode = 006A;
},
{
glyphname = jdotless;
layers = (
{
layerId = "2F8B9CD4-7B7F-4ACC-ADF3-B6E0F7033A19";
paths = (
{
closed = 1;
nodes = (
"218 -108 LINE",
"218 -167 OFFCURVE",
"214 -215 OFFCURVE",
"185 -240 CURVE SMOOTH",
"158 -263 OFFCURVE",
"112 -266 OFFCURVE",
"54 -266 CURVE SMOOTH",
"14 -266 OFFCURVE",
"-6 -265 OFFCURVE",
"-52 -255 CURVE",
"-52 -388 LINE",
"-20 -396 OFFCURVE",
"14 -402 OFFCURVE",
"74 -402 CURVE SMOOTH",
"167 -402 OFFCURVE",
"239 -383 OFFCURVE",
"279 -358 CURVE SMOOTH",
"334 -324 OFFCURVE",
"372 -268 OFFCURVE",
"372 -87 CURVE",
"372 1011 LINE",
"219 1011 LINE"
);
}
);
width = 600;
}
);
unicode = 0237;
},
{
glyphname = jcircumflex;
layers = (
{
layerId = "2F8B9CD4-7B7F-4ACC-ADF3-B6E0F7033A19";
paths = (
{
closed = 1;
nodes = (
"227 -108 LINE",
"227 -167 OFFCURVE",
"223 -215 OFFCURVE",
"194 -240 CURVE SMOOTH",
"167 -263 OFFCURVE",
"121 -266 OFFCURVE",
"63 -266 CURVE SMOOTH",
"23 -266 OFFCURVE",
"3 -265 OFFCURVE",
"-43 -255 CURVE",
"-43 -388 LINE",
"-11 -396 OFFCURVE",
"23 -402 OFFCURVE",
"83 -402 CURVE SMOOTH",
"176 -402 OFFCURVE",
"248 -383 OFFCURVE",
"288 -358 CURVE SMOOTH",
"343 -324 OFFCURVE",
"381 -268 OFFCURVE",
"381 -87 CURVE",
"381 1011 LINE",
"228 1011 LINE"
);
},
{
closed = 1;
nodes = (
"378 1472 LINE",
"234 1472 LINE",
"56 1135 LINE",
"201 1135 LINE",
"309 1369 LINE",
"412 1135 LINE",
"557 1135 LINE"
);
}
);
width = 600;
}
);
unicode = 0135;
},
{
color = 4;
glyphname = k;
layers = (
{
layerId = "2F8B9CD4-7B7F-4ACC-ADF3-B6E0F7033A19";
paths = (
{
closed = 1;
nodes = (
"311 0 LINE",
"311 474 LINE",
"525 474 LINE",
"684 474 OFFCURVE",
"716 457 OFFCURVE",
"803 0 CURVE",
"953 0 LINE",
"859 436 OFFCURVE",
"833 504 OFFCURVE",
"693 547 CURVE",
"878 597 OFFCURVE",
"910 656 OFFCURVE",
"910 1011 CURVE",
"767 1011 LINE",
"767 933 OFFCURVE",
"767 875 OFFCURVE",
"767 830 CURVE SMOOTH",
"767 752 OFFCURVE",
"750 697 OFFCURVE",
"720 671 CURVE SMOOTH",
"679 636 OFFCURVE",
"617 620 OFFCURVE",
"512 620 CURVE",
"311 620 LINE",
"311 1441 LINE",
"158 1441 LINE",
"158 0 LINE"
);
}
);
width = 995;
}
);
note = k;
unicode = 006B;
},
{
glyphname = kgreenlandic;
layers = (
{
layerId = "2F8B9CD4-7B7F-4ACC-ADF3-B6E0F7033A19";
paths = (
{
closed = 1;
nodes = (
"211 0 LINE",
"211 474 LINE",
"425 474 LINE",
"584 474 OFFCURVE",
"616 457 OFFCURVE",
"703 0 CURVE",
"853 0 LINE",
"759 436 OFFCURVE",
"733 504 OFFCURVE",
"593 547 CURVE",
"778 597 OFFCURVE",
"810 656 OFFCURVE",
"810 1011 CURVE",
"667 1011 LINE",
"667 933 OFFCURVE",
"667 875 OFFCURVE",
"667 830 CURVE SMOOTH",
"667 752 OFFCURVE",
"650 697 OFFCURVE",
"620 671 CURVE SMOOTH",
"579 636 OFFCURVE",
"517 620 OFFCURVE",
"412 620 CURVE",
"211 620 LINE",
"211 1011 LINE",
"58 1011 LINE",
"58 0 LINE"
);
}
);
width = 903;
}
);
unicode = 0138;
},
{
color = 4;
glyphname = l;
layers = (
{
layerId = "2F8B9CD4-7B7F-4ACC-ADF3-B6E0F7033A19";
paths = (
{
closed = 1;
nodes = (
"318 0 LINE",
"318 1441 LINE",
"165 1441 LINE",
"165 0 LINE"
);
}
);
width = 484;
}
);
note = l;
unicode = 006C;
},
{
color = 4;
glyphname = lslash;
layers = (
{
layerId = "2F8B9CD4-7B7F-4ACC-ADF3-B6E0F7033A19";
paths = (
{
closed = 1;
nodes = (
"347 0 LINE",
"347 673 LINE",
"624 829 LINE",
"558 936 LINE",
"347 817 LINE",
"347 1441 LINE",
"194 1441 LINE",
"194 731 LINE",
"-3 621 LINE",
"59 512 LINE",
"194 587 LINE",
"194 0 LINE"
);
}
);
width = 577;
}
);
note = lslash;
unicode = 0142;
},
{
color = 4;
glyphname = m;
layers = (
{
layerId = "2F8B9CD4-7B7F-4ACC-ADF3-B6E0F7033A19";
paths = (
{
closed = 1;
nodes = (
"1559 851 OFFCURVE",
"1541 924 OFFCURVE",
"1477 972 CURVE SMOOTH",
"1436 1003 OFFCURVE",
"1367 1034 OFFCURVE",
"1254 1034 CURVE SMOOTH",
"1164 1034 OFFCURVE",
"1074 1024 OFFCURVE",
"1002 972 CURVE SMOOTH",
"969 948 OFFCURVE",
"931 900 OFFCURVE",
"915 865 CURVE",
"862 986 OFFCURVE",
"774 1034 OFFCURVE",
"618 1034 CURVE SMOOTH",
"522 1034 OFFCURVE",
"452 1017 OFFCURVE",
"401 982 CURVE SMOOTH",
"350 946 OFFCURVE",
"318 910 OFFCURVE",
"296 868 CURVE",
"285 1011 LINE",
"158 1011 LINE",
"158 0 LINE",
"311 0 LINE",
"311 538 LINE SMOOTH",
"311 595 OFFCURVE",
"313 642 OFFCURVE",
"317 679 CURVE SMOOTH",
"325 754 OFFCURVE",
"339 800 OFFCURVE",
"357 825 CURVE SMOOTH",
"404 890 OFFCURVE",
"478 910 OFFCURVE",
"574 910 CURVE SMOOTH",
"675 910 OFFCURVE",
"747 883 OFFCURVE",
"772 799 CURVE SMOOTH",
"784 759 OFFCURVE",
"792 698 OFFCURVE",
"792 603 CURVE SMOOTH",
"792 0 LINE",
"946 0 LINE",
"946 582 LINE SMOOTH",
"946 730 OFFCURVE",
"963 847 OFFCURVE",
"1061 886 CURVE SMOOTH",
"1093 899 OFFCURVE",
"1139 909 OFFCURVE",
"1210 909 CURVE SMOOTH",
"1392 909 OFFCURVE",
"1428 823 OFFCURVE",
"1428 619 CURVE SMOOTH",
"1428 0 LINE",
"1581 0 LINE",
"1581 586 LINE SMOOTH",
"1581 651 OFFCURVE",
"1578 704 OFFCURVE",
"1573 745 CURVE SMOOTH"
);
}
);
width = 1730;
}
);
note = m;
unicode = 006D;
},
{
color = 4;
glyphname = n;
layers = (
{
layerId = "2F8B9CD4-7B7F-4ACC-ADF3-B6E0F7033A19";
paths = (
{
closed = 1;
nodes = (
"904 993 OFFCURVE",
"807 1037 OFFCURVE",
"652 1037 CURVE SMOOTH",
"557 1037 OFFCURVE",
"487 1032 OFFCURVE",
"422 997 CURVE SMOOTH",
"372 970 OFFCURVE",
"321 913 OFFCURVE",
"296 868 CURVE",
"284 1011 LINE",
"158 1011 LINE",
"158 0 LINE",
"312 0 LINE",
"312 609 LINE SMOOTH",
"312 709 OFFCURVE",
"335 791 OFFCURVE",
"372 830 CURVE SMOOTH",
"429 891 OFFCURVE",
"492 908 OFFCURVE",
"607 908 CURVE SMOOTH",
"649 908 OFFCURVE",
"673 905 OFFCURVE",
"697 901 CURVE SMOOTH",
"816 883 OFFCURVE",
"857 783 OFFCURVE",
"857 617 CURVE SMOOTH",
"857 0 LINE",
"1011 0 LINE",
"1011 587 LINE SMOOTH",
"1011 750 OFFCURVE",
"997 837 OFFCURVE",
"952 908 CURVE"
);
}
);
width = 1160;
}
);
note = n;
unicode = 006E;
},
{
glyphname = eng;
layers = (
{
layerId = "2F8B9CD4-7B7F-4ACC-ADF3-B6E0F7033A19";
paths = (
{
closed = 1;
nodes = (
"788 -108 LINE",
"788 -167 OFFCURVE",
"783 -215 OFFCURVE",
"754 -240 CURVE SMOOTH",
"727 -263 OFFCURVE",
"681 -266 OFFCURVE",
"623 -266 CURVE SMOOTH",
"583 -266 OFFCURVE",
"563 -265 OFFCURVE",
"517 -255 CURVE",
"517 -388 LINE",
"549 -396 OFFCURVE",
"583 -402 OFFCURVE",
"643 -402 CURVE SMOOTH",
"736 -402 OFFCURVE",
"808 -383 OFFCURVE",
"848 -358 CURVE SMOOTH",
"903 -324 OFFCURVE",
"941 -268 OFFCURVE",
"941 -87 CURVE",
"941 399 LINE",
"788 399 LINE"
);
},
{
closed = 1;
nodes = (
"834 993 OFFCURVE",
"737 1037 OFFCURVE",
"582 1037 CURVE SMOOTH",
"487 1037 OFFCURVE",
"417 1032 OFFCURVE",
"352 997 CURVE SMOOTH",
"302 970 OFFCURVE",
"251 913 OFFCURVE",
"226 868 CURVE",
"214 1011 LINE",
"88 1011 LINE",
"88 0 LINE",
"242 0 LINE",
"242 609 LINE SMOOTH",
"242 709 OFFCURVE",
"265 791 OFFCURVE",
"302 830 CURVE SMOOTH",
"359 891 OFFCURVE",
"422 908 OFFCURVE",
"537 908 CURVE SMOOTH",
"579 908 OFFCURVE",
"603 905 OFFCURVE",
"627 901 CURVE SMOOTH",
"746 883 OFFCURVE",
"788 783 OFFCURVE",
"788 617 CURVE SMOOTH",
"788 0 LINE",
"941 0 LINE",
"941 587 LINE SMOOTH",
"941 750 OFFCURVE",
"927 837 OFFCURVE",
"882 908 CURVE"
);
}
);
width = 1041;
}
);
unicode = 014B;
},
{
color = 4;
glyphname = o;
layers = (
{
layerId = "2F8B9CD4-7B7F-4ACC-ADF3-B6E0F7033A19";
paths = (
{
closed = 1;
nodes = (
"674 909 OFFCURVE",
"757 898 OFFCURVE",
"809 836 CURVE SMOOTH",
"865 769 OFFCURVE",
"886 634 OFFCURVE",
"886 504 CURVE SMOOTH",
"886 393 OFFCURVE",
"878 321 OFFCURVE",
"865 272 CURVE SMOOTH",
"831 141 OFFCURVE",
"742 102 OFFCURVE",
"580 102 CURVE SMOOTH",
"418 102 OFFCURVE",
"323 137 OFFCURVE",
"289 270 CURVE SMOOTH",
"277 319 OFFCURVE",
"266 391 OFFCURVE",
"266 502 CURVE SMOOTH",
"266 636 OFFCURVE",
"276 746 OFFCURVE",
"341 831 CURVE SMOOTH",
"388 893 OFFCURVE",
"478 909 OFFCURVE",
"574 909 CURVE"
);
},
{
closed = 1;
nodes = (
"441 1034 OFFCURVE",
"289 997 OFFCURVE",
"214 912 CURVE SMOOTH",
"132 819 OFFCURVE",
"109 663 OFFCURVE",
"109 506 CURVE SMOOTH",
"109 379 OFFCURVE",
"125 289 OFFCURVE",
"146 225 CURVE SMOOTH",
"204 46 OFFCURVE",
"357 -23 OFFCURVE",
"574 -23 CURVE SMOOTH",
"790 -23 OFFCURVE",
"946 38 OFFCURVE",
"1006 225 CURVE SMOOTH",
"1027 289 OFFCURVE",
"1043 381 OFFCURVE",
"1043 509 CURVE SMOOTH",
"1043 663 OFFCURVE",
"1022 816 OFFCURVE",
"937 913 CURVE SMOOTH",
"861 996 OFFCURVE",
"711 1034 OFFCURVE",
"574 1034 CURVE SMOOTH"
);
}
);
width = 1153;
}
);
note = o;
unicode = 006F;
},
{
glyphname = ohookabove;
layers = (
{
components = (
{
name = o;
}
);
layerId = "2F8B9CD4-7B7F-4ACC-ADF3-B6E0F7033A19";
paths = (
{
closed = 1;
nodes = (
"845 1432 OFFCURVE",
"751 1431 OFFCURVE",
"532 1431 CURVE",
"532 1340 LINE",
"701 1340 OFFCURVE",
"731 1336 OFFCURVE",
"731 1261 CURVE",
"731 1192 OFFCURVE",
"707 1181 OFFCURVE",
"656 1181 CURVE",
"538 1181 OFFCURVE",
"526 1092 OFFCURVE",
"526 1031 CURVE",
"633 1031 LINE",
"633 1086 OFFCURVE",
"642 1092 OFFCURVE",
"689 1092 CURVE",
"735 1092 OFFCURVE",
"845 1107 OFFCURVE",
"845 1263 CURVE"
);
}
);
width = 1153;
}
);
unicode = 1ECF;
},
{
glyphname = ohorn;
layers = (
{
layerId = "2F8B9CD4-7B7F-4ACC-ADF3-B6E0F7033A19";
paths = (
{
closed = 1;
nodes = (
"674 909 OFFCURVE",
"757 898 OFFCURVE",
"809 836 CURVE SMOOTH",
"865 769 OFFCURVE",
"886 634 OFFCURVE",
"886 504 CURVE SMOOTH",
"886 393 OFFCURVE",
"878 321 OFFCURVE",
"865 272 CURVE SMOOTH",
"831 141 OFFCURVE",
"742 102 OFFCURVE",
"580 102 CURVE SMOOTH",
"418 102 OFFCURVE",
"323 137 OFFCURVE",
"289 270 CURVE SMOOTH",
"277 319 OFFCURVE",
"266 391 OFFCURVE",
"266 502 CURVE SMOOTH",
"266 636 OFFCURVE",
"276 746 OFFCURVE",
"341 831 CURVE SMOOTH",
"388 893 OFFCURVE",
"478 909 OFFCURVE",
"574 909 CURVE"
);
},
{
closed = 1;
nodes = (
"441 1034 OFFCURVE",
"289 997 OFFCURVE",
"214 912 CURVE SMOOTH",
"132 819 OFFCURVE",
"109 663 OFFCURVE",
"109 506 CURVE SMOOTH",
"109 379 OFFCURVE",
"125 289 OFFCURVE",
"146 225 CURVE SMOOTH",
"204 46 OFFCURVE",
"357 -23 OFFCURVE",
"574 -23 CURVE SMOOTH",
"790 -23 OFFCURVE",
"946 38 OFFCURVE",
"1006 225 CURVE SMOOTH",
"1027 289 OFFCURVE",
"1043 381 OFFCURVE",
"1043 509 CURVE SMOOTH",
"1043 663 OFFCURVE",
"1022 816 OFFCURVE",
"937 913 CURVE SMOOTH",
"861 996 OFFCURVE",
"711 1034 OFFCURVE",
"574 1034 CURVE SMOOTH"
);
},
{
closed = 1;
nodes = (
"580 924 LINE",
"670 924 OFFCURVE",
"990 924 OFFCURVE",
"1026 924 CURVE SMOOTH",
"1102 924 OFFCURVE",
"1154 966 OFFCURVE",
"1154 1041 CURVE SMOOTH",
"1154 1076 OFFCURVE",
"1154 1122 OFFCURVE",
"1154 1157 CURVE SMOOTH",
"1154 1197 OFFCURVE",
"1154 1237 OFFCURVE",
"1154 1270 CURVE",
"1039 1270 LINE",
"1039 1205 OFFCURVE",
"1041 1138 OFFCURVE",
"1041 1091 CURVE SMOOTH",
"1041 1056 OFFCURVE",
"1030 1035 OFFCURVE",
"972 1035 CURVE",
"929 1035 OFFCURVE",
"620 1034 OFFCURVE",
"580 1034 CURVE"
);
}
);
width = 1143;
}
);
unicode = 01A1;
},
{
glyphname = ohornhookabove;
layers = (
{
components = (
{
name = ohorn;
}
);
layerId = "2F8B9CD4-7B7F-4ACC-ADF3-B6E0F7033A19";
paths = (
{
closed = 1;
nodes = (
"837 1432 OFFCURVE",
"743 1431 OFFCURVE",
"524 1431 CURVE",
"524 1340 LINE",
"693 1340 OFFCURVE",
"723 1336 OFFCURVE",
"723 1261 CURVE",
"723 1192 OFFCURVE",
"699 1181 OFFCURVE",
"648 1181 CURVE",
"530 1181 OFFCURVE",
"518 1092 OFFCURVE",
"518 1031 CURVE",
"625 1031 LINE",
"625 1086 OFFCURVE",
"634 1092 OFFCURVE",
"681 1092 CURVE",
"727 1092 OFFCURVE",
"837 1107 OFFCURVE",
"837 1263 CURVE"
);
}
);
width = 1204;
}
);
unicode = 1EDF;
},
{
color = 4;
glyphname = oslash;
layers = (
{
layerId = "2F8B9CD4-7B7F-4ACC-ADF3-B6E0F7033A19";
paths = (
{
closed = 1;
nodes = (
"470 1034 OFFCURVE",
"392 1015 OFFCURVE",
"333 991 CURVE SMOOTH",
"273 966 OFFCURVE",
"235 936 OFFCURVE",
"214 912 CURVE SMOOTH",
"193 888 OFFCURVE",
"166 851 OFFCURVE",
"146 787 CURVE SMOOTH",
"125 723 OFFCURVE",
"109 634 OFFCURVE",
"109 506 CURVE SMOOTH",
"109 379 OFFCURVE",
"125 289 OFFCURVE",
"146 225 CURVE SMOOTH",
"167 161 OFFCURVE",
"194 122 OFFCURVE",
"215 98 CURVE SMOOTH",
"244 63 OFFCURVE",
"305 18 OFFCURVE",
"410 -7 CURVE",
"382 -132 LINE",
"495 -150 LINE",
"523 -23 LINE",
"539 -24 OFFCURVE",
"555 -25 OFFCURVE",
"574 -25 CURVE SMOOTH",
"679 -25 OFFCURVE",
"759 -6 OFFCURVE",
"819 19 CURVE SMOOTH",
"878 43 OFFCURVE",
"916 73 OFFCURVE",
"937 97 CURVE SMOOTH",
"958 121 OFFCURVE",
"985 160 OFFCURVE",
"1006 225 CURVE SMOOTH",
"1027 289 OFFCURVE",
"1043 381 OFFCURVE",
"1043 509 CURVE SMOOTH",
"1043 637 OFFCURVE",
"1027 726 OFFCURVE",
"1006 789 CURVE SMOOTH",
"985 852 OFFCURVE",
"958 889 OFFCURVE",
"937 913 CURVE SMOOTH",
"909 944 OFFCURVE",
"852 984 OFFCURVE",
"756 1011 CURVE",
"789 1155 LINE",
"674 1172 LINE",
"642 1031 LINE",
"621 1033 OFFCURVE",
"598 1034 OFFCURVE",
"574 1034 CURVE SMOOTH"
);
},
{
closed = 1;
nodes = (
"595 909 LINE",
"602 908 OFFCURVE",
"608 908 OFFCURVE",
"615 908 CURVE",
"437 117 LINE",
"374 132 OFFCURVE",
"343 157 OFFCURVE",
"326 178 CURVE SMOOTH",
"313 194 OFFCURVE",
"298 221 OFFCURVE",
"286 270 CURVE SMOOTH",
"274 319 OFFCURVE",
"266 391 OFFCURVE",
"266 502 CURVE SMOOTH",
"266 615 OFFCURVE",
"274 690 OFFCURVE",
"286 740 CURVE SMOOTH",
"297 790 OFFCURVE",
"312 815 OFFCURVE",
"325 832 CURVE SMOOTH",
"338 849 OFFCURVE",
"361 868 OFFCURVE",
"400 884 CURVE SMOOTH",
"439 899 OFFCURVE",
"494 909 OFFCURVE",
"574 909 CURVE SMOOTH"
);
},
{
closed = 1;
nodes = (
"836 820 OFFCURVE",
"852 795 OFFCURVE",
"865 745 CURVE SMOOTH",
"877 695 OFFCURVE",
"886 620 OFFCURVE",
"886 504 CURVE SMOOTH",
"886 393 OFFCURVE",
"878 321 OFFCURVE",
"867 272 CURVE SMOOTH",
"855 223 OFFCURVE",
"840 197 OFFCURVE",
"827 180 CURVE SMOOTH",
"814 163 OFFCURVE",
"792 143 OFFCURVE",
"753 128 CURVE SMOOTH",
"714 113 OFFCURVE",
"659 102 OFFCURVE",
"580 102 CURVE SMOOTH",
"552 102 LINE",
"729 890 LINE",
"780 875 OFFCURVE",
"807 855 OFFCURVE",
"823 836 CURVE SMOOTH"
);
}
);
width = 1153;
}
);
note = oslash;
unicode = 00F8;
},
{
color = 4;
glyphname = oe;
layers = (
{
layerId = "2F8B9CD4-7B7F-4ACC-ADF3-B6E0F7033A19";
paths = (
{
closed = 1;
nodes = (
"96 379 OFFCURVE",
"112 289 OFFCURVE",
"133 225 CURVE SMOOTH",
"192 46 OFFCURVE",
"344 -23 OFFCURVE",
"561 -23 CURVE SMOOTH",
"737.915 -23 OFFCURVE",
"872 18 OFFCURVE",
"950 135 CURVE",
"983 79 OFFCURVE",
"1031 41 OFFCURVE",
"1095 15 CURVE SMOOTH",
"1149 -7 OFFCURVE",
"1222 -23 OFFCURVE",
"1326 -23 CURVE SMOOTH",
"1454 -23 OFFCURVE",
"1601 -3 OFFCURVE",
"1671 80 CURVE SMOOTH",
"1717 134 OFFCURVE",
"1741 195 OFFCURVE",
"1741 278 CURVE",
"1607 278 LINE",
"1600 113 OFFCURVE",
"1474 97 OFFCURVE",
"1330 97 CURVE SMOOTH",
"1273 97 OFFCURVE",
"1190 105 OFFCURVE",
"1151 129 CURVE",
"1068.847 175.153 OFFCURVE",
"1033.557 308.216 OFFCURVE",
"1028.613 445.605 CURVE",
"1029.719 480 LINE",
"1749 480 LINE",
"1749 573 OFFCURVE",
"1758 699 OFFCURVE",
"1723 797 CURVE SMOOTH",
"1706 845 OFFCURVE",
"1689 878 OFFCURVE",
"1674 898 CURVE SMOOTH",
"1598 999 OFFCURVE",
"1466 1034 OFFCURVE",
"1322 1034 CURVE SMOOTH",
"1151.626 1034 OFFCURVE",
"1018 988 OFFCURVE",
"943 873 CURVE",
"886 987 OFFCURVE",
"714 1034 OFFCURVE",
"561 1034 CURVE SMOOTH",
"428 1034 OFFCURVE",
"276 997 OFFCURVE",
"201 912 CURVE SMOOTH",
"119 819 OFFCURVE",
"96 663 OFFCURVE",
"96 506 CURVE SMOOTH"
);
},
{
closed = 1;
nodes = (
"253 636 OFFCURVE",
"263 746 OFFCURVE",
"328 831 CURVE SMOOTH",
"375 893 OFFCURVE",
"465 909 OFFCURVE",
"561 909 CURVE SMOOTH",
"661 909 OFFCURVE",
"744 898 OFFCURVE",
"796 836 CURVE SMOOTH",
"846.856 775.155 OFFCURVE",
"866 658 OFFCURVE",
"869 540 CURVE",
"869 529 OFFCURVE",
"869 517 OFFCURVE",
"869 505 CURVE SMOOTH",
"870 463 LINE SMOOTH",
"872 375 OFFCURVE",
"863.326 314.691 OFFCURVE",
"852 272 CURVE SMOOTH",
"817 141 OFFCURVE",
"729 102 OFFCURVE",
"567 102 CURVE SMOOTH",
"405 102 OFFCURVE",
"309 137 OFFCURVE",
"276 270 CURVE SMOOTH",
"264 319 OFFCURVE",
"253 391 OFFCURVE",
"253 502 CURVE SMOOTH"
);
},
{
closed = 1;
nodes = (
"1033 678 OFFCURVE",
"1045 731 OFFCURVE",
"1058 771 CURVE SMOOTH",
"1092 877 OFFCURVE",
"1180 911 OFFCURVE",
"1318 911 CURVE SMOOTH",
"1449 911 OFFCURVE",
"1528 884 OFFCURVE",
"1563 789 CURVE SMOOTH",
"1579 746 OFFCURVE",
"1595 686 OFFCURVE",
"1593 594 CURVE",
"1030 594 LINE"
);
}
);
width = 1841;
}
);
note = oe;
unicode = 0153;
},
{
color = 4;
glyphname = p;
layers = (
{
layerId = "2F8B9CD4-7B7F-4ACC-ADF3-B6E0F7033A19";
paths = (
{
closed = 1;
nodes = (
"542 102 OFFCURVE",
"505 109 OFFCURVE",
"482 117 CURVE SMOOTH",
"429 135 OFFCURVE",
"378 191 OFFCURVE",
"350 262 CURVE SMOOTH",
"326 321 OFFCURVE",
"311 401 OFFCURVE",
"311 510 CURVE SMOOTH",
"311 622 OFFCURVE",
"320 693 OFFCURVE",
"332 741 CURVE SMOOTH",
"366 871 OFFCURVE",
"450 907 OFFCURVE",
"609 907 CURVE SMOOTH",
"686 907 OFFCURVE",
"737 897 OFFCURVE",
"772 882 CURVE SMOOTH",
"827 858 OFFCURVE",
"852 822 OFFCURVE",
"871 747 CURVE SMOOTH",
"882 699 OFFCURVE",
"890 628 OFFCURVE",
"890 517 CURVE SMOOTH",
"890 404 OFFCURVE",
"882 327 OFFCURVE",
"871 275 CURVE SMOOTH",
"853 195 OFFCURVE",
"838 152 OFFCURVE",
"779 127 CURVE SMOOTH",
"743 112 OFFCURVE",
"682 102 OFFCURVE",
"605 102 CURVE SMOOTH"
);
},
{
closed = 1;
nodes = (
"362 35 OFFCURVE",
"421 -23 OFFCURVE",
"642 -23 CURVE SMOOTH",
"734 -23 OFFCURVE",
"802 -7 OFFCURVE",
"850 15 CURVE SMOOTH",
"940 56 OFFCURVE",
"987 113 OFFCURVE",
"1014 207 CURVE SMOOTH",
"1055 351 OFFCURVE",
"1059 631 OFFCURVE",
"1023 774 CURVE SMOOTH",
"977 955 OFFCURVE",
"848 1033 OFFCURVE",
"644 1033 CURVE SMOOTH",
"426 1033 OFFCURVE",
"345 950 OFFCURVE",
"298 875 CURVE",
"280 1010 LINE",
"157 1010 LINE",
"157 -389 LINE",
"311 -389 LINE",
"311 103 LINE"
);
}
);
width = 1162;
}
);
note = p;
unicode = 0070;
},
{
color = 4;
glyphname = thorn;
layers = (
{
layerId = "2F8B9CD4-7B7F-4ACC-ADF3-B6E0F7033A19";
paths = (
{
closed = 1;
nodes = (
"362 35 OFFCURVE",
"421 -23 OFFCURVE",
"642 -23 CURVE SMOOTH",
"734 -23 OFFCURVE",
"802 -7 OFFCURVE",
"850 15 CURVE SMOOTH",
"940 56 OFFCURVE",
"987 113 OFFCURVE",
"1014 207 CURVE SMOOTH",
"1055 351 OFFCURVE",
"1059 631 OFFCURVE",
"1023 774 CURVE SMOOTH",
"977 955 OFFCURVE",
"848 1033 OFFCURVE",
"644 1033 CURVE SMOOTH",
"426 1033 OFFCURVE",
"350 950 OFFCURVE",
"300 875 CURVE",
"300 1441 LINE",
"157 1441 LINE",
"157 -302 LINE",
"311 -302 LINE",
"311 103 LINE"
);
},
{
closed = 1;
nodes = (
"542 102 OFFCURVE",
"505 109 OFFCURVE",
"482 117 CURVE SMOOTH",
"429 135 OFFCURVE",
"378 191 OFFCURVE",
"350 262 CURVE SMOOTH",
"326 321 OFFCURVE",
"311 401 OFFCURVE",
"311 510 CURVE SMOOTH",
"311 622 OFFCURVE",
"320 693 OFFCURVE",
"332 741 CURVE SMOOTH",
"366 871 OFFCURVE",
"450 907 OFFCURVE",
"609 907 CURVE SMOOTH",
"686 907 OFFCURVE",
"737 897 OFFCURVE",
"772 882 CURVE SMOOTH",
"827 858 OFFCURVE",
"852 822 OFFCURVE",
"871 747 CURVE SMOOTH",
"882 699 OFFCURVE",
"890 628 OFFCURVE",
"890 517 CURVE SMOOTH",
"890 404 OFFCURVE",
"882 327 OFFCURVE",
"871 275 CURVE SMOOTH",
"853 195 OFFCURVE",
"838 152 OFFCURVE",
"779 127 CURVE SMOOTH",
"743 112 OFFCURVE",
"682 102 OFFCURVE",
"605 102 CURVE SMOOTH"
);
}
);
width = 1162;
}
);
note = thorn;
unicode = 00FE;
},
{
color = 4;
glyphname = q;
layers = (
{
layerId = "2F8B9CD4-7B7F-4ACC-ADF3-B6E0F7033A19";
paths = (
{
closed = 1;
nodes = (
"463 102 OFFCURVE",
"412 111 OFFCURVE",
"376 126 CURVE SMOOTH",
"317 151 OFFCURVE",
"292 195 OFFCURVE",
"274 275 CURVE SMOOTH",
"262 327 OFFCURVE",
"255 404 OFFCURVE",
"255 517 CURVE SMOOTH",
"255 628 OFFCURVE",
"263 699 OFFCURVE",
"274 747 CURVE SMOOTH",
"291 822 OFFCURVE",
"315 857 OFFCURVE",
"370 881 CURVE SMOOTH",
"405 896 OFFCURVE",
"459 907 OFFCURVE",
"536 907 CURVE SMOOTH",
"695 907 OFFCURVE",
"778 871 OFFCURVE",
"813 741 CURVE SMOOTH",
"826 693 OFFCURVE",
"834 622 OFFCURVE",
"834 510 CURVE SMOOTH",
"834 401 OFFCURVE",
"819 321 OFFCURVE",
"795 262 CURVE SMOOTH",
"766 191 OFFCURVE",
"716 135 OFFCURVE",
"663 117 CURVE SMOOTH",
"640 109 OFFCURVE",
"603 102 OFFCURVE",
"540 102 CURVE SMOOTH"
);
},
{
closed = 1;
nodes = (
"834 -389 LINE",
"988 -389 LINE",
"988 1010 LINE",
"865 1010 LINE",
"847 875 LINE",
"800 950 OFFCURVE",
"719 1033 OFFCURVE",
"501 1033 CURVE SMOOTH",
"297 1033 OFFCURVE",
"168 955 OFFCURVE",
"122 774 CURVE SMOOTH",
"86 631 OFFCURVE",
"90 351 OFFCURVE",
"131 207 CURVE SMOOTH",
"158 113 OFFCURVE",
"205 56 OFFCURVE",
"295 15 CURVE SMOOTH",
"343 -7 OFFCURVE",
"411 -23 OFFCURVE",
"503 -23 CURVE SMOOTH",
"724 -23 OFFCURVE",
"783 35 OFFCURVE",
"834 103 CURVE"
);
}
);
width = 1162;
}
);
note = q;
unicode = 0071;
},
{
color = 4;
glyphname = r;
layers = (
{
layerId = "2F8B9CD4-7B7F-4ACC-ADF3-B6E0F7033A19";
paths = (
{
closed = 1;
nodes = (
"158 1011 LINE",
"158 817 LINE",
"158 0 LINE",
"306 0 LINE",
"306 698 LINE",
"330 771 OFFCURVE",
"380 818 OFFCURVE",
"439 846 CURVE SMOOTH",
"498 873 OFFCURVE",
"565 882 OFFCURVE",
"621 882 CURVE SMOOTH",
"630 882 OFFCURVE",
"630 882 OFFCURVE",
"643 881 CURVE",
"643 1034 LINE",
"624 1034 LINE SMOOTH",
"545 1034 OFFCURVE",
"484 1014 OFFCURVE",
"433 982 CURVE SMOOTH",
"382 950 OFFCURVE",
"340 905 OFFCURVE",
"303 854 CURVE",
"297 1011 LINE"
);
}
);
width = 787;
}
);
note = r;
unicode = 0072;
},
{
color = 4;
glyphname = s;
layers = (
{
guideLines = (
{
position = "{846, 739}";
}
);
layerId = "2F8B9CD4-7B7F-4ACC-ADF3-B6E0F7033A19";
paths = (
{
closed = 1;
nodes = (
"113 206 OFFCURVE",
"123 131 OFFCURVE",
"163 85 CURVE SMOOTH",
"238 -2 OFFCURVE",
"346 -23 OFFCURVE",
"512 -23 CURVE SMOOTH",
"660 -23 OFFCURVE",
"739 0 OFFCURVE",
"800 54 CURVE SMOOTH",
"862 109 OFFCURVE",
"875 188 OFFCURVE",
"875 279 CURVE SMOOTH",
"875 495 OFFCURVE",
"764 543 OFFCURVE",
"484 582 CURVE SMOOTH",
"299 608 OFFCURVE",
"258 648 OFFCURVE",
"258 741 CURVE",
"258 810 OFFCURVE",
"267 836 OFFCURVE",
"298 864 CURVE SMOOTH",
"337 899 OFFCURVE",
"385 918 OFFCURVE",
"493 918 CURVE SMOOTH",
"588 918 OFFCURVE",
"655 906 OFFCURVE",
"685 864 CURVE SMOOTH",
"703 839 OFFCURVE",
"718 810 OFFCURVE",
"718 739 CURVE",
"856 739 LINE",
"859 815 OFFCURVE",
"848 910 OFFCURVE",
"778 966 CURVE SMOOTH",
"723 1010 OFFCURVE",
"635 1034 OFFCURVE",
"493 1034 CURVE SMOOTH",
"374 1034 OFFCURVE",
"276 1021 OFFCURVE",
"208 966 CURVE SMOOTH",
"138 910 OFFCURVE",
"109 828 OFFCURVE",
"109 749 CURVE SMOOTH",
"109 549 OFFCURVE",
"243 487 OFFCURVE",
"475 455 CURVE SMOOTH",
"671 428 OFFCURVE",
"733 390 OFFCURVE",
"733 279 CURVE SMOOTH",
"733 210 OFFCURVE",
"723 166 OFFCURVE",
"700 143 CURVE SMOOTH",
"670 113 OFFCURVE",
"626 95 OFFCURVE",
"508 95 CURVE SMOOTH",
"363 95 OFFCURVE",
"314 109 OFFCURVE",
"277 162 CURVE SMOOTH",
"259 188 OFFCURVE",
"256 226 OFFCURVE",
"255 272 CURVE",
"119 272 LINE"
);
}
);
width = 962;
}
);
note = s;
unicode = 0073;
},
{
color = 4;
glyphname = germandbls;
layers = (
{
background = {
paths = (
{
closed = 1;
nodes = (
"843 -23 OFFCURVE",
"956 13 OFFCURVE",
"1016 69 CURVE SMOOTH",
"1044 97 OFFCURVE",
"1070 138 OFFCURVE",
"1090 196 CURVE SMOOTH",
"1110 254 OFFCURVE",
"1122 329 OFFCURVE",
"1122 432 CURVE SMOOTH",
"1122 477 OFFCURVE",
"1119 517 OFFCURVE",
"1113 552 CURVE SMOOTH",
"1101 622 OFFCURVE",
"1081 675 OFFCURVE",
"1054 713 CURVE SMOOTH",
"1026 751 OFFCURVE",
"996 774 OFFCURVE",
"965 790 CURVE SMOOTH",
"934 805 OFFCURVE",
"904 814 OFFCURVE",
"877 820 CURVE SMOOTH",
"864 823 OFFCURVE",
"852 825 OFFCURVE",
"841 828 CURVE",
"906 837 OFFCURVE",
"954 875 OFFCURVE",
"986 928 CURVE SMOOTH",
"1017 980 OFFCURVE",
"1031 1048 OFFCURVE",
"1031 1117 CURVE SMOOTH",
"1031 1196 OFFCURVE",
"1013 1258 OFFCURVE",
"988 1307 CURVE SMOOTH",
"963 1355 OFFCURVE",
"929 1389 OFFCURVE",
"897 1412 CURVE SMOOTH",
"872 1429 OFFCURVE",
"837 1446 OFFCURVE",
"789 1456 CURVE SMOOTH",
"740 1466 OFFCURVE",
"674 1472 OFFCURVE",
"589 1472 CURVE SMOOTH",
"493 1472 OFFCURVE",
"420 1463 OFFCURVE",
"365 1448 CURVE SMOOTH",
"309 1432 OFFCURVE",
"272 1409 OFFCURVE",
"248 1381 CURVE SMOOTH",
"228 1358 OFFCURVE",
"206 1326 OFFCURVE",
"188 1281 CURVE SMOOTH",
"170 1236 OFFCURVE",
"157 1178 OFFCURVE",
"157 1105 CURVE SMOOTH",
"157 0 LINE",
"310 0 LINE",
"310 1087 LINE SMOOTH",
"310 1184 OFFCURVE",
"322 1244 OFFCURVE",
"353 1283 CURVE SMOOTH",
"394 1332 OFFCURVE",
"466 1343 OFFCURVE",
"589 1343 CURVE SMOOTH",
"706 1343 OFFCURVE",
"775 1333 OFFCURVE",
"816 1301 CURVE SMOOTH",
"860 1266 OFFCURVE",
"872 1210 OFFCURVE",
"872 1114 CURVE SMOOTH",
"872 1026 OFFCURVE",
"858 968 OFFCURVE",
"831 932 CURVE SMOOTH",
"803 895 OFFCURVE",
"763 881 OFFCURVE",
"710 881 CURVE SMOOTH",
"531 881 LINE",
"531 765 LINE",
"709 765 LINE SMOOTH",
"764 765 OFFCURVE",
"805 752 OFFCURVE",
"837 735 CURVE SMOOTH",
"869 718 OFFCURVE",
"892 695 OFFCURVE",
"908 676 CURVE SMOOTH",
"924 656 OFFCURVE",
"938 630 OFFCURVE",
"947 591 CURVE SMOOTH",
"955 551 OFFCURVE",
"961 500 OFFCURVE",
"961 429 CURVE SMOOTH",
"961 364 OFFCURVE",
"960 314 OFFCURVE",
"954 275 CURVE SMOOTH",
"948 235 OFFCURVE",
"936 207 OFFCURVE",
"919 184 CURVE SMOOTH",
"908 168 OFFCURVE",
"888 151 OFFCURVE",
"856 138 CURVE SMOOTH",
"823 125 OFFCURVE",
"775 116 OFFCURVE",
"710 116 CURVE SMOOTH",
"660 116 LINE SMOOTH",
"641 116 OFFCURVE",
"623 118 OFFCURVE",
"604 122 CURVE SMOOTH",
"566 129 OFFCURVE",
"528 145 OFFCURVE",
"501 184 CURVE",
"431 134 LINE",
"455 90 OFFCURVE",
"484 51 OFFCURVE",
"528 23 CURVE SMOOTH",
"572 -5 OFFCURVE",
"630 -23 OFFCURVE",
"710 -23 CURVE SMOOTH"
);
}
);
};
layerId = "2F8B9CD4-7B7F-4ACC-ADF3-B6E0F7033A19";
paths = (
{
closed = 1;
nodes = (
"1010 -23 OFFCURVE",
"1122 115 OFFCURVE",
"1122 432 CURVE SMOOTH",
"1122 672 OFFCURVE",
"1054 783 OFFCURVE",
"881 830 CURVE",
"1004 874 OFFCURVE",
"1031 970 OFFCURVE",
"1031 1117 CURVE SMOOTH",
"1031 1389 OFFCURVE",
"873 1472 OFFCURVE",
"589 1472 CURVE SMOOTH",
"293 1472 OFFCURVE",
"157 1389 OFFCURVE",
"157 1105 CURVE SMOOTH",
"157 0 LINE",
"310 0 LINE",
"310 1087 LINE SMOOTH",
"310 1305 OFFCURVE",
"368 1348 OFFCURVE",
"589 1348 CURVE SMOOTH",
"808 1348 OFFCURVE",
"872 1315 OFFCURVE",
"872 1114 CURVE SMOOTH",
"872 990 OFFCURVE",
"837 891 OFFCURVE",
"710 891 CURVE SMOOTH",
"531 891 LINE",
"531 755 LINE",
"709 755 LINE SMOOTH",
"905 755 OFFCURVE",
"961 626 OFFCURVE",
"961 429 CURVE SMOOTH",
"961 189 OFFCURVE",
"937 105 OFFCURVE",
"709 105 CURVE SMOOTH",
"659 105 LINE SMOOTH",
"597 105 OFFCURVE",
"531 113 OFFCURVE",
"431 127 CURVE",
"431 0 LINE",
"486 -9 OFFCURVE",
"588 -23 OFFCURVE",
"710 -23 CURVE SMOOTH"
);
}
);
width = 1226;
}
);
note = germandbls;
unicode = 00DF;
},
{
color = 4;
glyphname = t;
layers = (
{
layerId = "2F8B9CD4-7B7F-4ACC-ADF3-B6E0F7033A19";
paths = (
{
closed = 1;
nodes = (
"630 1014 LINE",
"381 1014 LINE",
"381 1291 LINE",
"228 1291 LINE",
"228 1014 LINE",
"46 1014 LINE",
"46 892 LINE",
"228 892 LINE",
"228 289 LINE SMOOTH",
"228 108 OFFCURVE",
"266 52 OFFCURVE",
"321 18 CURVE SMOOTH",
"361 -7 OFFCURVE",
"433 -26 OFFCURVE",
"526 -26 CURVE SMOOTH",
"582 -26 OFFCURVE",
"626 -22 OFFCURVE",
"652 -12 CURVE",
"652 121 LINE",
"617 113 OFFCURVE",
"588 110 OFFCURVE",
"546 110 CURVE SMOOTH",
"488 110 OFFCURVE",
"434 120 OFFCURVE",
"413 135 CURVE SMOOTH",
"383 157 OFFCURVE",
"382 209 OFFCURVE",
"382 268 CURVE",
"382 892 LINE",
"630 892 LINE"
);
}
);
width = 842;
}
);
note = t;
unicode = 0074;
},
{
glyphname = tbar;
layers = (
{
layerId = "2F8B9CD4-7B7F-4ACC-ADF3-B6E0F7033A19";
paths = (
{
closed = 1;
nodes = (
"630 1014 LINE",
"381 1014 LINE",
"381 1291 LINE",
"228 1291 LINE",
"228 1014 LINE",
"46 1014 LINE",
"46 892 LINE",
"228 892 LINE",
"228 289 LINE SMOOTH",
"228 108 OFFCURVE",
"266 52 OFFCURVE",
"321 18 CURVE SMOOTH",
"361 -7 OFFCURVE",
"433 -26 OFFCURVE",
"526 -26 CURVE SMOOTH",
"582 -26 OFFCURVE",
"626 -22 OFFCURVE",
"652 -12 CURVE",
"652 121 LINE",
"617 113 OFFCURVE",
"588 110 OFFCURVE",
"546 110 CURVE SMOOTH",
"488 110 OFFCURVE",
"434 120 OFFCURVE",
"413 135 CURVE SMOOTH",
"383 157 OFFCURVE",
"382 209 OFFCURVE",
"382 268 CURVE",
"382 892 LINE",
"630 892 LINE"
);
},
{
closed = 1;
nodes = (
"47 552 LINE",
"630 552 LINE",
"630 675 LINE",
"47 675 LINE"
);
}
);
width = 600;
}
);
unicode = 0167;
},
{
color = 4;
glyphname = u;
layers = (
{
layerId = "2F8B9CD4-7B7F-4ACC-ADF3-B6E0F7033A19";
paths = (
{
closed = 1;
nodes = (
"165 269 OFFCURVE",
"176 199 OFFCURVE",
"190 152 CURVE SMOOTH",
"211 82 OFFCURVE",
"245 43 OFFCURVE",
"324 10 CURVE SMOOTH",
"370 -9 OFFCURVE",
"439 -23 OFFCURVE",
"519 -23 CURVE SMOOTH",
"641 -23 OFFCURVE",
"714 4 OFFCURVE",
"769 41 CURVE SMOOTH",
"824 78 OFFCURVE",
"851 115 OFFCURVE",
"864 135 CURVE",
"877 0 LINE",
"1005 0 LINE",
"1005 1011 LINE",
"852 1011 LINE",
"852 422 LINE SMOOTH",
"852 250 OFFCURVE",
"815 183 OFFCURVE",
"721 137 CURVE SMOOTH",
"686 120 OFFCURVE",
"641 102 OFFCURVE",
"561 102 CURVE SMOOTH",
"497 102 OFFCURVE",
"443 113 OFFCURVE",
"412 128 CURVE SMOOTH",
"331 167 OFFCURVE",
"319 273 OFFCURVE",
"319 403 CURVE SMOOTH",
"319 1011 LINE",
"165 1011 LINE",
"165 376 LINE SMOOTH"
);
}
);
width = 1157;
}
);
note = u;
unicode = 0075;
},
{
glyphname = uhorn;
layers = (
{
components = (
{
name = u;
transform = "{1, 0, 0, 1, -80, 0}";
}
);
layerId = "2F8B9CD4-7B7F-4ACC-ADF3-B6E0F7033A19";
paths = (
{
closed = 1;
nodes = (
"830 901 LINE",
"920 901 OFFCURVE",
"1016 901 OFFCURVE",
"1052 901 CURVE SMOOTH",
"1128 901 OFFCURVE",
"1180 943 OFFCURVE",
"1180 1018 CURVE SMOOTH",
"1180 1053 OFFCURVE",
"1180 1099 OFFCURVE",
"1180 1134 CURVE SMOOTH",
"1180 1174 OFFCURVE",
"1180 1214 OFFCURVE",
"1180 1247 CURVE",
"1065 1247 LINE",
"1065 1182 OFFCURVE",
"1067 1115 OFFCURVE",
"1067 1068 CURVE SMOOTH",
"1067 1033 OFFCURVE",
"1056 1012 OFFCURVE",
"998 1012 CURVE",
"955 1012 OFFCURVE",
"870 1011 OFFCURVE",
"830 1011 CURVE"
);
}
);
width = 1025;
}
);
unicode = 01B0;
},
{
color = 4;
glyphname = v;
layers = (
{
layerId = "2F8B9CD4-7B7F-4ACC-ADF3-B6E0F7033A19";
paths = (
{
closed = 1;
nodes = (
"625 0 LINE",
"994 1011 LINE",
"836 1011 LINE",
"526 141 LINE",
"213 1011 LINE",
"53 1011 LINE",
"426 0 LINE"
);
}
);
width = 1047;
}
);
note = v;
unicode = 0076;
},
{
color = 4;
glyphname = w;
layers = (
{
layerId = "2F8B9CD4-7B7F-4ACC-ADF3-B6E0F7033A19";
paths = (
{
closed = 1;
nodes = (
"521 0 LINE",
"777 874 LINE",
"1031 0 LINE",
"1206 0 LINE",
"1496 1011 LINE",
"1338 1011 LINE",
"1184 383 LINE",
"1125 127 LINE",
"1062 383 LINE",
"873 1011 LINE",
"683 1011 LINE",
"490 376 LINE",
"431 125 LINE",
"374 387 LINE",
"216 1011 LINE",
"55 1011 LINE",
"345 0 LINE"
);
}
);
width = 1561;
}
);
note = w;
unicode = 0077;
},
{
color = 4;
glyphname = x;
layers = (
{
layerId = "2F8B9CD4-7B7F-4ACC-ADF3-B6E0F7033A19";
paths = (
{
closed = 1;
nodes = (
"57 0 LINE",
"226 0 LINE",
"485 410 LINE",
"750 0 LINE",
"919 0 LINE",
"571 528 LINE",
"885 1011 LINE",
"731 1011 LINE",
"484 640 LINE",
"230 1011 LINE",
"75 1011 LINE",
"397 526 LINE"
);
}
);
width = 968;
}
);
note = x;
unicode = 0078;
},
{
color = 4;
glyphname = y;
layers = (
{
layerId = "2F8B9CD4-7B7F-4ACC-ADF3-B6E0F7033A19";
paths = (
{
closed = 1;
nodes = (
"863 47 OFFCURVE",
"861 -23 OFFCURVE",
"857 -54 CURVE SMOOTH",
"843 -164 OFFCURVE",
"812 -225 OFFCURVE",
"731 -253 CURVE SMOOTH",
"691 -267 OFFCURVE",
"630 -270 OFFCURVE",
"561 -270 CURVE SMOOTH",
"482 -270 OFFCURVE",
"430 -265 OFFCURVE",
"395 -252 CURVE SMOOTH",
"306 -218 OFFCURVE",
"292 -181 OFFCURVE",
"290 -107 CURVE",
"158 -107 LINE",
"159 -240 OFFCURVE",
"239 -330 OFFCURVE",
"342 -367 CURVE SMOOTH",
"391 -385 OFFCURVE",
"467 -393 OFFCURVE",
"562 -394 CURVE SMOOTH",
"690 -395 OFFCURVE",
"807 -384 OFFCURVE",
"889 -306 CURVE SMOOTH",
"987 -212 OFFCURVE",
"999 -109 OFFCURVE",
"999 122 CURVE SMOOTH",
"999 1011 LINE",
"846 1011 LINE",
"846 462 LINE SMOOTH",
"846 380 OFFCURVE",
"845 325 OFFCURVE",
"813 265 CURVE SMOOTH",
"792 225 OFFCURVE",
"753 190 OFFCURVE",
"705 171 CURVE SMOOTH",
"670 157 OFFCURVE",
"618 142 OFFCURVE",
"547 142 CURVE SMOOTH",
"475 142 OFFCURVE",
"427 153 OFFCURVE",
"396 168 CURVE SMOOTH",
"315 207 OFFCURVE",
"303 313 OFFCURVE",
"303 443 CURVE SMOOTH",
"303 1011 LINE",
"149 1011 LINE",
"149 416 LINE SMOOTH",
"149 309 OFFCURVE",
"160 239 OFFCURVE",
"174 192 CURVE SMOOTH",
"195 122 OFFCURVE",
"229 83 OFFCURVE",
"308 50 CURVE SMOOTH",
"354 31 OFFCURVE",
"447 17 OFFCURVE",
"535 17 CURVE SMOOTH",
"695 17 OFFCURVE",
"790 49 OFFCURVE",
"863 169 CURVE",
"863 96 LINE SMOOTH"
);
}
);
width = 1157;
}
);
note = y;
unicode = 0079;
},
{
color = 4;
glyphname = z;
layers = (
{
layerId = "2F8B9CD4-7B7F-4ACC-ADF3-B6E0F7033A19";
paths = (
{
closed = 1;
nodes = (
"637 890 LINE",
"82 107 LINE",
"82 0 LINE",
"804 0 LINE",
"804 124 LINE",
"253 124 LINE",
"801 914 LINE",
"801 1011 LINE",
"91 1011 LINE",
"91 890 LINE"
);
}
);
width = 900;
}
);
note = z;
unicode = 007A;
},
{
glyphname = f_f_i;
layers = (
{
layerId = "2F8B9CD4-7B7F-4ACC-ADF3-B6E0F7033A19";
paths = (
{
closed = 1;
nodes = (
"412 1011 LINE",
"412 1196 LINE",
"412 1255 OFFCURVE",
"423 1279 OFFCURVE",
"450 1300 CURVE SMOOTH",
"471 1316 OFFCURVE",
"518 1321 OFFCURVE",
"560 1321 CURVE SMOOTH",
"622 1321 OFFCURVE",
"633 1318 OFFCURVE",
"677 1313 CURVE",
"677 1437 LINE",
"653 1441 OFFCURVE",
"618 1448 OFFCURVE",
"556 1448 CURVE SMOOTH",
"443 1448 OFFCURVE",
"389 1431 OFFCURVE",
"349 1406 CURVE SMOOTH",
"294 1372 OFFCURVE",
"258 1316 OFFCURVE",
"258 1135 CURVE SMOOTH",
"258 1011 LINE",
"76 1011 LINE",
"76 889 LINE",
"258 889 LINE",
"258 0 LINE",
"411 0 LINE",
"411 889 LINE",
"660 889 LINE",
"660 1011 LINE"
);
},
{
closed = 1;
nodes = (
"1321 0 LINE",
"1475 0 LINE",
"1475 1011 LINE",
"1321 1011 LINE"
);
},
{
closed = 1;
nodes = (
"1325 1370 OFFCURVE",
"1305 1336 OFFCURVE",
"1305 1271 CURVE SMOOTH",
"1305 1207 OFFCURVE",
"1329 1185 OFFCURVE",
"1397 1185 CURVE SMOOTH",
"1473 1185 OFFCURVE",
"1491 1207 OFFCURVE",
"1491 1271 CURVE SMOOTH",
"1491 1303 OFFCURVE",
"1487 1328 OFFCURVE",
"1474 1345 CURVE SMOOTH",
"1461 1361 OFFCURVE",
"1437 1370 OFFCURVE",
"1397 1370 CURVE SMOOTH"
);
},
{
closed = 1;
nodes = (
"944 1011 LINE",
"944 1196 LINE",
"944 1255 OFFCURVE",
"955 1279 OFFCURVE",
"982 1300 CURVE SMOOTH",
"1003 1316 OFFCURVE",
"1046 1321 OFFCURVE",
"1088 1321 CURVE SMOOTH",
"1150 1321 OFFCURVE",
"1165 1318 OFFCURVE",
"1209 1313 CURVE",
"1209 1437 LINE",
"1185 1441 OFFCURVE",
"1150 1448 OFFCURVE",
"1088 1448 CURVE SMOOTH",
"975 1448 OFFCURVE",
"921 1431 OFFCURVE",
"881 1406 CURVE SMOOTH",
"826 1372 OFFCURVE",
"790 1316 OFFCURVE",
"790 1135 CURVE SMOOTH",
"790 1011 LINE",
"608 1011 LINE",
"608 889 LINE",
"790 889 LINE",
"790 0 LINE",
"943 0 LINE",
"943 889 LINE",
"1406 889 LINE",
"1406 1011 LINE"
);
}
);
width = 1621;
}
);
leftMetricsKey = f;
rightMetricsKey = i;
},
{
color = 4;
glyphname = fi;
layers = (
{
layerId = "2F8B9CD4-7B7F-4ACC-ADF3-B6E0F7033A19";
paths = (
{
closed = 1;
nodes = (
"801 0 LINE",
"955 0 LINE",
"955 1011 LINE",
"801 1011 LINE"
);
},
{
closed = 1;
nodes = (
"805 1370 OFFCURVE",
"785 1336 OFFCURVE",
"785 1271 CURVE SMOOTH",
"785 1207 OFFCURVE",
"809 1185 OFFCURVE",
"877 1185 CURVE SMOOTH",
"953 1185 OFFCURVE",
"971 1207 OFFCURVE",
"971 1271 CURVE SMOOTH",
"971 1303 OFFCURVE",
"967 1328 OFFCURVE",
"954 1345 CURVE SMOOTH",
"941 1361 OFFCURVE",
"917 1370 OFFCURVE",
"877 1370 CURVE SMOOTH"
);
},
{
closed = 1;
nodes = (
"424 1011 LINE",
"424 1196 LINE",
"424 1255 OFFCURVE",
"435 1279 OFFCURVE",
"462 1300 CURVE SMOOTH",
"483 1316 OFFCURVE",
"526 1321 OFFCURVE",
"568 1321 CURVE SMOOTH",
"630 1321 OFFCURVE",
"645 1318 OFFCURVE",
"689 1313 CURVE",
"689 1437 LINE",
"665 1441 OFFCURVE",
"630 1448 OFFCURVE",
"568 1448 CURVE SMOOTH",
"455 1448 OFFCURVE",
"401 1431 OFFCURVE",
"361 1406 CURVE SMOOTH",
"306 1372 OFFCURVE",
"270 1316 OFFCURVE",
"270 1135 CURVE SMOOTH",
"270 1011 LINE",
"88 1011 LINE",
"88 889 LINE",
"270 889 LINE",
"270 0 LINE",
"423 0 LINE",
"423 889 LINE",
"886 889 LINE",
"886 1011 LINE"
);
}
);
width = 1113;
}
);
note = fi;
unicode = FB01;
},
{
color = 4;
glyphname = pi;
layers = (
{
layerId = "2F8B9CD4-7B7F-4ACC-ADF3-B6E0F7033A19";
paths = (
{
closed = 1;
nodes = (
"1376 1117 LINE",
"46 1117 LINE",
"46 974 LINE",
"352 974 LINE",
"347 877 OFFCURVE",
"335 772 OFFCURVE",
"319 650 CURVE SMOOTH",
"290 444 OFFCURVE",
"233 157 OFFCURVE",
"166 0 CURVE",
"325 0 LINE",
"391 139 OFFCURVE",
"448 439 OFFCURVE",
"476 646 CURVE SMOOTH",
"493 772 OFFCURVE",
"507 880 OFFCURVE",
"512 974 CURVE",
"995 974 LINE",
"995 0 LINE",
"1157 0 LINE",
"1157 974 LINE",
"1376 974 LINE"
);
}
);
width = 1425;
}
);
note = pi;
unicode = 03C0;
},
{
color = 4;
glyphname = zero;
layers = (
{
layerId = "2F8B9CD4-7B7F-4ACC-ADF3-B6E0F7033A19";
paths = (
{
closed = 1;
nodes = (
"896 1203 OFFCURVE",
"923 1008 OFFCURVE",
"923 671 CURVE SMOOTH",
"923 487 OFFCURVE",
"925 302 OFFCURVE",
"848 200 CURVE SMOOTH",
"803 140 OFFCURVE",
"722 111 OFFCURVE",
"603 111 CURVE SMOOTH",
"486 111 OFFCURVE",
"404 140 OFFCURVE",
"360 199 CURVE SMOOTH",
"285 299 OFFCURVE",
"284 479 OFFCURVE",
"284 661 CURVE SMOOTH",
"284 1002 OFFCURVE",
"311 1203 OFFCURVE",
"607 1203 CURVE SMOOTH"
);
},
{
closed = 1;
nodes = (
"454 1334 OFFCURVE",
"327 1292 OFFCURVE",
"255 1212 CURVE SMOOTH",
"142 1087 OFFCURVE",
"132 874 OFFCURVE",
"132 665 CURVE SMOOTH",
"132 393 OFFCURVE",
"161 208 OFFCURVE",
"259 100 CURVE SMOOTH",
"337 14 OFFCURVE",
"457 -21 OFFCURVE",
"605 -21 CURVE SMOOTH",
"750 -21 OFFCURVE",
"870 13 OFFCURVE",
"950 101 CURVE SMOOTH",
"1046 207 OFFCURVE",
"1075 389 OFFCURVE",
"1075 666 CURVE SMOOTH",
"1075 921 OFFCURVE",
"1049 1102 OFFCURVE",
"954 1211 CURVE SMOOTH",
"879 1297 OFFCURVE",
"750 1334 OFFCURVE",
"608 1334 CURVE SMOOTH"
);
}
);
width = 1207;
}
);
note = zero;
unicode = 0030;
},
{
color = 4;
glyphname = one;
layers = (
{
layerId = "2F8B9CD4-7B7F-4ACC-ADF3-B6E0F7033A19";
paths = (
{
closed = 1;
nodes = (
"336 1158 LINE",
"336 0 LINE",
"483 0 LINE",
"483 1314 LINE",
"343 1314 LINE",
"136 1210 LINE",
"136 1063 LINE"
);
}
);
width = 670;
}
);
note = one;
unicode = 0031;
},
{
color = 4;
glyphname = two;
layers = (
{
guideLines = (
{
position = "{525, 1146}";
}
);
layerId = "2F8B9CD4-7B7F-4ACC-ADF3-B6E0F7033A19";
paths = (
{
closed = 1;
nodes = (
"256 1057 OFFCURVE",
"261 1101 OFFCURVE",
"304 1146 CURVE SMOOTH",
"345 1189 OFFCURVE",
"430 1202 OFFCURVE",
"518 1202 CURVE SMOOTH",
"605 1202 OFFCURVE",
"699 1189 OFFCURVE",
"737 1146 CURVE SMOOTH",
"775 1103 OFFCURVE",
"783 1053 OFFCURVE",
"783 977 CURVE SMOOTH",
"783 726 OFFCURVE",
"377 590 OFFCURVE",
"223 383 CURVE SMOOTH",
"156 293 OFFCURVE",
"116 187 OFFCURVE",
"121 0 CURVE",
"916 0 LINE",
"916 143 LINE",
"288 143 LINE",
"288 242 OFFCURVE",
"355 331 OFFCURVE",
"447 406 CURVE SMOOTH",
"637 561 OFFCURVE",
"932 718 OFFCURVE",
"932 971 CURVE SMOOTH",
"932 1109 OFFCURVE",
"913 1176 OFFCURVE",
"849 1238 CURVE SMOOTH",
"782 1302 OFFCURVE",
"692 1332 OFFCURVE",
"525 1332 CURVE SMOOTH",
"360 1332 OFFCURVE",
"268 1297 OFFCURVE",
"196 1233 CURVE SMOOTH",
"122 1167 OFFCURVE",
"113 1099 OFFCURVE",
"113 978 CURVE",
"256 978 LINE"
);
}
);
width = 1065;
}
);
note = two;
unicode = 0032;
},
{
color = 4;
glyphname = three;
layers = (
{
layerId = "2F8B9CD4-7B7F-4ACC-ADF3-B6E0F7033A19";
paths = (
{
closed = 1;
nodes = (
"261 1058 OFFCURVE",
"275 1102 OFFCURVE",
"318 1147 CURVE SMOOTH",
"364 1195 OFFCURVE",
"453 1203 OFFCURVE",
"536 1203 CURVE SMOOTH",
"623 1203 OFFCURVE",
"694 1197 OFFCURVE",
"736 1157 CURVE SMOOTH",
"774 1121 OFFCURVE",
"790 1087 OFFCURVE",
"790 978 CURVE SMOOTH",
"790 836 OFFCURVE",
"655 748 OFFCURVE",
"476 748 CURVE SMOOTH",
"362 748 LINE",
"362 622 LINE",
"476 623 LINE",
"658 623 OFFCURVE",
"818 544 OFFCURVE",
"818 374 CURVE SMOOTH",
"818 237 OFFCURVE",
"799 201 OFFCURVE",
"765 166 CURVE SMOOTH",
"721 121 OFFCURVE",
"628 109 OFFCURVE",
"555 109 CURVE SMOOTH",
"464 109 OFFCURVE",
"367 120 OFFCURVE",
"319 166 CURVE SMOOTH",
"282 201 OFFCURVE",
"259 237 OFFCURVE",
"259 326 CURVE",
"122 323 LINE",
"122 192 OFFCURVE",
"160 123 OFFCURVE",
"213 76 CURVE SMOOTH",
"287 10 OFFCURVE",
"389 -21 OFFCURVE",
"553 -21 CURVE SMOOTH",
"879 -21 OFFCURVE",
"963 161 OFFCURVE",
"963 381 CURVE SMOOTH",
"963 558 OFFCURVE",
"823 659 OFFCURVE",
"688 685 CURVE",
"831 733 OFFCURVE",
"932 840 OFFCURVE",
"932 1002 CURVE SMOOTH",
"932 1104 OFFCURVE",
"905 1180 OFFCURVE",
"853 1233 CURVE SMOOTH",
"785 1302 OFFCURVE",
"677 1333 OFFCURVE",
"532 1333 CURVE SMOOTH",
"402 1333 OFFCURVE",
"296 1305 OFFCURVE",
"216 1234 CURVE SMOOTH",
"142 1168 OFFCURVE",
"123 1100 OFFCURVE",
"123 969 CURVE",
"261 969 LINE"
);
}
);
width = 1102;
}
);
note = three;
unicode = 0033;
},
{
color = 4;
glyphname = four;
layers = (
{
layerId = "2F8B9CD4-7B7F-4ACC-ADF3-B6E0F7033A19";
paths = (
{
closed = 1;
nodes = (
"188 425 LINE",
"623 1124 LINE",
"623 425 LINE"
);
},
{
closed = 1;
nodes = (
"53 303 LINE",
"623 303 LINE",
"623 -1 LINE",
"771 -1 LINE",
"771 303 LINE",
"937 303 LINE",
"937 427 LINE",
"771 427 LINE",
"771 1297 LINE",
"588 1297 LINE",
"53 446 LINE"
);
}
);
width = 1037;
}
);
note = four;
unicode = 0034;
},
{
color = 4;
glyphname = five;
layers = (
{
guideLines = (
{
angle = 90;
position = "{1066, 256}";
}
);
layerId = "2F8B9CD4-7B7F-4ACC-ADF3-B6E0F7033A19";
paths = (
{
closed = 1;
nodes = (
"390 680 OFFCURVE",
"451 705 OFFCURVE",
"585 705 CURVE SMOOTH",
"682 705 OFFCURVE",
"756 697 OFFCURVE",
"801 666 CURVE SMOOTH",
"854 630 OFFCURVE",
"867 548 OFFCURVE",
"867 426 CURVE SMOOTH",
"867 292 OFFCURVE",
"853 197 OFFCURVE",
"792 147 CURVE SMOOTH",
"756 117 OFFCURVE",
"669 101 OFFCURVE",
"566 101 CURVE SMOOTH",
"470 101 OFFCURVE",
"404 114 OFFCURVE",
"363 144 CURVE SMOOTH",
"317 177 OFFCURVE",
"308 223 OFFCURVE",
"308 299 CURVE",
"161 299 LINE",
"161 198 OFFCURVE",
"180 119 OFFCURVE",
"250 62 CURVE SMOOTH",
"328 -1 OFFCURVE",
"403 -25 OFFCURVE",
"534 -25 CURVE SMOOTH",
"917 -25 OFFCURVE",
"1015 127 OFFCURVE",
"1015 426 CURVE SMOOTH",
"1015 585 OFFCURVE",
"980 698 OFFCURVE",
"908 764 CURVE SMOOTH",
"844 822 OFFCURVE",
"745 841 OFFCURVE",
"617 841 CURVE SMOOTH",
"454 841 OFFCURVE",
"370 771 OFFCURVE",
"320 713 CURVE",
"321 1171 LINE",
"934 1171 LINE",
"934 1304 LINE",
"178 1304 LINE",
"178 625 LINE",
"308 578 LINE"
);
}
);
width = 1098;
}
);
note = five;
unicode = 0035;
},
{
color = 4;
glyphname = six;
layers = (
{
guideLines = (
{
position = "{480, 154}";
}
);
layerId = "2F8B9CD4-7B7F-4ACC-ADF3-B6E0F7033A19";
paths = (
{
closed = 1;
nodes = (
"1004 1255 OFFCURVE",
"837 1334 OFFCURVE",
"589 1334 CURVE SMOOTH",
"332 1334 OFFCURVE",
"153 1247 OFFCURVE",
"153 956 CURVE SMOOTH",
"153 876 OFFCURVE",
"153 796 OFFCURVE",
"153 483 CURVE SMOOTH",
"153 67 OFFCURVE",
"261 -32 OFFCURVE",
"600 -32 CURVE SMOOTH",
"944 -32 OFFCURVE",
"1037 74 OFFCURVE",
"1037 398 CURVE SMOOTH",
"1037 537 OFFCURVE",
"1024 644 OFFCURVE",
"950 721 CURVE SMOOTH",
"888 785 OFFCURVE",
"799 810 OFFCURVE",
"633 810 CURVE SMOOTH",
"462 810 OFFCURVE",
"369 781 OFFCURVE",
"300 680 CURVE",
"303 748 OFFCURVE",
"299 849 OFFCURVE",
"303 944 CURVE SMOOTH",
"312 1163 OFFCURVE",
"411 1209 OFFCURVE",
"585 1209 CURVE SMOOTH",
"778 1209 OFFCURVE",
"862 1163 OFFCURVE",
"862 984 CURVE",
"1004 984 LINE"
);
},
{
closed = 1;
nodes = (
"489 93 OFFCURVE",
"403 114 OFFCURVE",
"361 154 CURVE SMOOTH",
"317 196 OFFCURVE",
"297 264 OFFCURVE",
"301 528 CURVE",
"348 653 OFFCURVE",
"452 680 OFFCURVE",
"612 680 CURVE SMOOTH",
"692 680 OFFCURVE",
"771 674 OFFCURVE",
"810 644 CURVE SMOOTH",
"866 601 OFFCURVE",
"885 516 OFFCURVE",
"885 397 CURVE SMOOTH",
"885 274 OFFCURVE",
"878 196 OFFCURVE",
"837 154 CURVE SMOOTH",
"795 110 OFFCURVE",
"705 93 OFFCURVE",
"598 93 CURVE SMOOTH"
);
}
);
width = 1144;
}
);
note = six;
unicode = 0036;
},
{
color = 4;
glyphname = seven;
layers = (
{
layerId = "2F8B9CD4-7B7F-4ACC-ADF3-B6E0F7033A19";
paths = (
{
closed = 1;
nodes = (
"669 1170 LINE",
"464 823 OFFCURVE",
"261 394 OFFCURVE",
"261 0 CURVE",
"408 0 LINE",
"408 391 OFFCURVE",
"626 827 OFFCURVE",
"838 1173 CURVE",
"833 1307 LINE",
"73 1307 LINE",
"73 1170 LINE"
);
}
);
width = 894;
}
);
note = seven;
unicode = 0037;
},
{
color = 4;
glyphname = eight;
layers = (
{
layerId = "2F8B9CD4-7B7F-4ACC-ADF3-B6E0F7033A19";
paths = (
{
closed = 1;
nodes = (
"863 745 OFFCURVE",
"956 809 OFFCURVE",
"956 1041 CURVE SMOOTH",
"956 1257 OFFCURVE",
"793 1350 OFFCURVE",
"575 1350 CURVE SMOOTH",
"362 1350 OFFCURVE",
"183 1261 OFFCURVE",
"183 1035 CURVE SMOOTH",
"183 813 OFFCURVE",
"265 734 OFFCURVE",
"372 708 CURVE",
"201 659 OFFCURVE",
"130 562 OFFCURVE",
"130 335 CURVE SMOOTH",
"130 36 OFFCURVE",
"289 -33 OFFCURVE",
"557 -33 CURVE SMOOTH",
"829 -33 OFFCURVE",
"1006 34 OFFCURVE",
"1006 336 CURVE SMOOTH",
"1006 569 OFFCURVE",
"929 675 OFFCURVE",
"765 708 CURVE"
);
},
{
closed = 1;
nodes = (
"775 615 OFFCURVE",
"864 568 OFFCURVE",
"864 345 CURVE SMOOTH",
"864 131 OFFCURVE",
"749 89 OFFCURVE",
"567 89 CURVE SMOOTH",
"382 89 OFFCURVE",
"272 122 OFFCURVE",
"272 343 CURVE SMOOTH",
"272 562 OFFCURVE",
"366 613 OFFCURVE",
"567 622 CURVE"
);
},
{
closed = 1;
nodes = (
"712 1226 OFFCURVE",
"814 1191 OFFCURVE",
"814 1032 CURVE SMOOTH",
"814 807 OFFCURVE",
"726 787 OFFCURVE",
"569 787 CURVE",
"416 787 OFFCURVE",
"324 811 OFFCURVE",
"324 1030 CURVE SMOOTH",
"324 1187 OFFCURVE",
"434 1226 OFFCURVE",
"570 1226 CURVE SMOOTH"
);
}
);
width = 1137;
}
);
note = eight;
unicode = 0038;
},
{
color = 4;
glyphname = nine;
layers = (
{
layerId = "2F8B9CD4-7B7F-4ACC-ADF3-B6E0F7033A19";
paths = (
{
closed = 1;
nodes = (
"186 47 OFFCURVE",
"353 -32 OFFCURVE",
"601 -32 CURVE SMOOTH",
"858 -32 OFFCURVE",
"1037 55 OFFCURVE",
"1037 346 CURVE SMOOTH",
"1037 426 OFFCURVE",
"1037 506 OFFCURVE",
"1037 819 CURVE SMOOTH",
"1037 1235 OFFCURVE",
"929 1334 OFFCURVE",
"590 1334 CURVE SMOOTH",
"246 1334 OFFCURVE",
"153 1228 OFFCURVE",
"153 904 CURVE SMOOTH",
"153 765 OFFCURVE",
"166 658 OFFCURVE",
"240 581 CURVE SMOOTH",
"302 517 OFFCURVE",
"391 492 OFFCURVE",
"557 492 CURVE SMOOTH",
"728 492 OFFCURVE",
"821 521 OFFCURVE",
"890 622 CURVE",
"887 554 OFFCURVE",
"891 453 OFFCURVE",
"887 358 CURVE SMOOTH",
"878 139 OFFCURVE",
"779 93 OFFCURVE",
"605 93 CURVE SMOOTH",
"412 93 OFFCURVE",
"328 139 OFFCURVE",
"328 318 CURVE",
"186 318 LINE"
);
},
{
closed = 1;
nodes = (
"701 1209 OFFCURVE",
"787 1188 OFFCURVE",
"829 1148 CURVE SMOOTH",
"873 1106 OFFCURVE",
"893 1038 OFFCURVE",
"889 774 CURVE",
"842 649 OFFCURVE",
"738 622 OFFCURVE",
"578 622 CURVE SMOOTH",
"498 622 OFFCURVE",
"419 628 OFFCURVE",
"380 658 CURVE SMOOTH",
"324 701 OFFCURVE",
"305 786 OFFCURVE",
"305 905 CURVE SMOOTH",
"305 1028 OFFCURVE",
"312 1106 OFFCURVE",
"353 1148 CURVE SMOOTH",
"395 1192 OFFCURVE",
"485 1209 OFFCURVE",
"592 1209 CURVE SMOOTH"
);
}
);
width = 1146;
}
);
note = nine;
unicode = 0039;
},
{
color = 4;
glyphname = onesuperior;
layers = (
{
layerId = "2F8B9CD4-7B7F-4ACC-ADF3-B6E0F7033A19";
paths = (
{
closed = 1;
nodes = (
"274 1201 LINE",
"274 296 LINE",
"389 296 LINE",
"389 1316 LINE",
"280 1316 LINE",
"119 1238 LINE",
"119 1124 LINE"
);
}
);
width = 561;
}
);
note = onesuperior;
unicode = 00B9;
},
{
color = 4;
glyphname = twosuperior;
layers = (
{
layerId = "2F8B9CD4-7B7F-4ACC-ADF3-B6E0F7033A19";
paths = (
{
closed = 1;
nodes = (
"239 1119 OFFCURVE",
"250 1154 OFFCURVE",
"285 1189 CURVE SMOOTH",
"318 1222 OFFCURVE",
"377 1232 OFFCURVE",
"447 1232 CURVE SMOOTH",
"516 1232 OFFCURVE",
"591 1222 OFFCURVE",
"621 1189 CURVE SMOOTH",
"652 1155 OFFCURVE",
"658 1116 OFFCURVE",
"658 1058 CURVE SMOOTH",
"658 863 OFFCURVE",
"335 759 OFFCURVE",
"213 598 CURVE SMOOTH",
"160 528 OFFCURVE",
"128 446 OFFCURVE",
"132 301 CURVE",
"764 301 LINE",
"764 412 LINE",
"265 412 LINE",
"265 489 OFFCURVE",
"318 557 OFFCURVE",
"391 616 CURVE SMOOTH",
"540 737 OFFCURVE",
"776 857 OFFCURVE",
"776 1053 CURVE SMOOTH",
"776 1160 OFFCURVE",
"761 1212 OFFCURVE",
"710 1260 CURVE SMOOTH",
"657 1309 OFFCURVE",
"586 1333 OFFCURVE",
"453 1333 CURVE SMOOTH",
"322 1333 OFFCURVE",
"257 1306 OFFCURVE",
"199 1256 CURVE SMOOTH",
"141 1206 OFFCURVE",
"125 1153 OFFCURVE",
"125 1051 CURVE",
"239 1051 LINE"
);
}
);
width = 901;
}
);
note = twosuperior;
unicode = 00B2;
},
{
color = 4;
glyphname = threesuperior;
layers = (
{
layerId = "2F8B9CD4-7B7F-4ACC-ADF3-B6E0F7033A19";
paths = (
{
closed = 1;
nodes = (
"241 1130 OFFCURVE",
"252 1165 OFFCURVE",
"285 1199 CURVE SMOOTH",
"322 1238 OFFCURVE",
"391 1244 OFFCURVE",
"456 1244 CURVE SMOOTH",
"525 1244 OFFCURVE",
"580 1239 OFFCURVE",
"613 1208 CURVE SMOOTH",
"642 1180 OFFCURVE",
"655 1153 OFFCURVE",
"655 1067 CURVE SMOOTH",
"655 956 OFFCURVE",
"550 887 OFFCURVE",
"409 887 CURVE SMOOTH",
"320 887 LINE",
"320 788 LINE",
"409 789 LINE",
"552 789 OFFCURVE",
"677 728 OFFCURVE",
"677 595 CURVE SMOOTH",
"677 487 OFFCURVE",
"662 459 OFFCURVE",
"635 431 CURVE SMOOTH",
"601 396 OFFCURVE",
"528 386 OFFCURVE",
"471 386 CURVE SMOOTH",
"400 386 OFFCURVE",
"324 396 OFFCURVE",
"286 431 CURVE SMOOTH",
"256 458 OFFCURVE",
"239 487 OFFCURVE",
"239 557 CURVE",
"131 554 LINE",
"131 452 OFFCURVE",
"161 398 OFFCURVE",
"203 360 CURVE SMOOTH",
"260 308 OFFCURVE",
"340 284 OFFCURVE",
"470 284 CURVE SMOOTH",
"725 284 OFFCURVE",
"790 427 OFFCURVE",
"790 600 CURVE SMOOTH",
"790 738 OFFCURVE",
"681 817 OFFCURVE",
"575 838 CURVE",
"687 876 OFFCURVE",
"766 959 OFFCURVE",
"766 1086 CURVE SMOOTH",
"766 1166 OFFCURVE",
"745 1225 OFFCURVE",
"705 1267 CURVE SMOOTH",
"652 1322 OFFCURVE",
"566 1345 OFFCURVE",
"453 1345 CURVE SMOOTH",
"351 1345 OFFCURVE",
"268 1323 OFFCURVE",
"205 1268 CURVE SMOOTH",
"147 1217 OFFCURVE",
"132 1163 OFFCURVE",
"132 1060 CURVE",
"241 1060 LINE"
);
}
);
width = 910;
}
);
note = threesuperior;
unicode = 00B3;
},
{
glyphname = foursuperior;
layers = (
{
layerId = "2F8B9CD4-7B7F-4ACC-ADF3-B6E0F7033A19";
paths = (
{
closed = 1;
nodes = (
"168 635 LINE",
"506 1177 LINE",
"506 635 LINE"
);
},
{
closed = 1;
nodes = (
"64 540 LINE",
"506 540 LINE",
"506 304 LINE",
"621 304 LINE",
"621 540 LINE",
"750 540 LINE",
"750 637 LINE",
"621 637 LINE",
"621 1311 LINE",
"478 1311 LINE",
"64 651 LINE"
);
}
);
width = 837;
}
);
note = foursuperior;
unicode = 2074;
},
{
color = 4;
glyphname = fraction;
layers = (
{
layerId = "2F8B9CD4-7B7F-4ACC-ADF3-B6E0F7033A19";
paths = (
{
closed = 1;
nodes = (
"114 -17 LINE",
"726 1628 LINE",
"615 1644 LINE",
"4 1 LINE"
);
}
);
width = 724;
}
);
note = fraction;
unicode = 2044;
},
{
color = 4;
glyphname = asterisk;
layers = (
{
layerId = "2F8B9CD4-7B7F-4ACC-ADF3-B6E0F7033A19";
paths = (
{
closed = 1;
nodes = (
"575 1076 LINE",
"862 1203 LINE",
"797 1323 LINE",
"539 1151 LINE",
"561 1447 LINE",
"428 1447 LINE",
"449 1151 LINE",
"186 1323 LINE",
"121 1204 LINE",
"418 1076 LINE",
"122 937 LINE",
"186 825 LINE",
"449 997 LINE",
"428 701 LINE",
"561 701 LINE",
"539 997 LINE",
"797 825 LINE",
"862 945 LINE"
);
}
);
width = 982;
}
);
note = asterisk;
unicode = 002A;
},
{
color = 4;
glyphname = backslash;
layers = (
{
layerId = "2F8B9CD4-7B7F-4ACC-ADF3-B6E0F7033A19";
paths = (
{
closed = 1;
nodes = (
"577 -92 LINE",
"206 1509 LINE",
"100 1479 LINE",
"468 -121 LINE"
);
}
);
width = 676;
}
);
note = backslash;
unicode = 005C;
},
{
color = 4;
glyphname = periodcentered;
layers = (
{
layerId = "2F8B9CD4-7B7F-4ACC-ADF3-B6E0F7033A19";
paths = (
{
closed = 1;
nodes = (
"359 730 OFFCURVE",
"333 700 OFFCURVE",
"252 700 CURVE",
"171 700 OFFCURVE",
"136 730 OFFCURVE",
"136 809 CURVE",
"136 887 OFFCURVE",
"171 918 OFFCURVE",
"252 918 CURVE",
"333 918 OFFCURVE",
"359 887 OFFCURVE",
"359 809 CURVE"
);
}
);
width = 494;
}
);
note = periodcentered;
unicode = 00B7;
},
{
color = 4;
glyphname = bullet;
layers = (
{
layerId = "2F8B9CD4-7B7F-4ACC-ADF3-B6E0F7033A19";
paths = (
{
closed = 1;
nodes = (
"103 532 OFFCURVE",
"139 453 OFFCURVE",
"198 396 CURVE SMOOTH",
"257 339 OFFCURVE",
"340 302 OFFCURVE",
"432 302 CURVE SMOOTH",
"519 302 OFFCURVE",
"598 335 OFFCURVE",
"657 390 CURVE SMOOTH",
"716 445 OFFCURVE",
"752 521 OFFCURVE",
"752 608 CURVE SMOOTH",
"752 692 OFFCURVE",
"715 771 OFFCURVE",
"656 828 CURVE SMOOTH",
"596 885 OFFCURVE",
"514 922 OFFCURVE",
"423 922 CURVE SMOOTH",
"335 922 OFFCURVE",
"256 886 OFFCURVE",
"198 830 CURVE SMOOTH",
"140 774 OFFCURVE",
"103 697 OFFCURVE",
"103 616 CURVE SMOOTH"
);
}
);
width = 855;
}
);
note = bullet;
unicode = 2022;
},
{
color = 4;
glyphname = colon;
layers = (
{
layerId = "2F8B9CD4-7B7F-4ACC-ADF3-B6E0F7033A19";
paths = (
{
closed = 1;
nodes = (
"359 742 OFFCURVE",
"333 712 OFFCURVE",
"252 712 CURVE",
"171 712 OFFCURVE",
"136 742 OFFCURVE",
"136 821 CURVE",
"136 899 OFFCURVE",
"171 930 OFFCURVE",
"252 930 CURVE",
"333 930 OFFCURVE",
"359 899 OFFCURVE",
"359 821 CURVE"
);
},
{
closed = 1;
nodes = (
"360 275 OFFCURVE",
"334 245 OFFCURVE",
"253 245 CURVE",
"172 245 OFFCURVE",
"137 275 OFFCURVE",
"137 354 CURVE",
"137 432 OFFCURVE",
"172 463 OFFCURVE",
"253 463 CURVE",
"334 463 OFFCURVE",
"360 432 OFFCURVE",
"360 354 CURVE"
);
}
);
width = 494;
}
);
note = colon;
unicode = 003A;
},
{
color = 4;
glyphname = comma;
layers = (
{
layerId = "2F8B9CD4-7B7F-4ACC-ADF3-B6E0F7033A19";
paths = (
{
closed = 1;
nodes = (
"356 184 OFFCURVE",
"326 214 OFFCURVE",
"245 214 CURVE",
"164 214 OFFCURVE",
"126 184 OFFCURVE",
"126 99 CURVE",
"126 17 OFFCURVE",
"164 -4 OFFCURVE",
"235 -4 CURVE",
"235 -75 OFFCURVE",
"205 -120 OFFCURVE",
"148 -184 CURVE",
"196 -254 LINE",
"220 -239 OFFCURVE",
"251 -219 OFFCURVE",
"287 -174 CURVE SMOOTH",
"323 -128 OFFCURVE",
"356 -69 OFFCURVE",
"356 2 CURVE SMOOTH",
"356 99 LINE"
);
}
);
width = 474;
}
);
note = comma;
unicode = 002C;
},
{
color = 4;
glyphname = ellipsis;
layers = (
{
layerId = "2F8B9CD4-7B7F-4ACC-ADF3-B6E0F7033A19";
paths = (
{
closed = 1;
nodes = (
"359 28 OFFCURVE",
"333 -2 OFFCURVE",
"252 -2 CURVE",
"171 -2 OFFCURVE",
"136 28 OFFCURVE",
"136 107 CURVE",
"136 185 OFFCURVE",
"171 216 OFFCURVE",
"252 216 CURVE",
"333 216 OFFCURVE",
"359 185 OFFCURVE",
"359 107 CURVE"
);
},
{
closed = 1;
nodes = (
"1007 28 OFFCURVE",
"981 -2 OFFCURVE",
"900 -2 CURVE",
"819 -2 OFFCURVE",
"784 28 OFFCURVE",
"784 107 CURVE",
"784 185 OFFCURVE",
"819 216 OFFCURVE",
"900 216 CURVE",
"981 216 OFFCURVE",
"1007 185 OFFCURVE",
"1007 107 CURVE"
);
},
{
closed = 1;
nodes = (
"1654 28 OFFCURVE",
"1628 -2 OFFCURVE",
"1547 -2 CURVE",
"1466 -2 OFFCURVE",
"1431 28 OFFCURVE",
"1431 107 CURVE",
"1431 185 OFFCURVE",
"1466 216 OFFCURVE",
"1547 216 CURVE",
"1628 216 OFFCURVE",
"1654 185 OFFCURVE",
"1654 107 CURVE"
);
}
);
width = 1790;
}
);
note = ellipsis;
unicode = 2026;
},
{
color = 4;
glyphname = exclam;
layers = (
{
layerId = "2F8B9CD4-7B7F-4ACC-ADF3-B6E0F7033A19";
paths = (
{
closed = 1;
nodes = (
"329 1111 LINE",
"329 1366 LINE",
"167 1366 LINE",
"167 1111 LINE",
"187 335 LINE",
"310 335 LINE"
);
},
{
closed = 1;
nodes = (
"360 28 OFFCURVE",
"334 -2 OFFCURVE",
"253 -2 CURVE",
"172 -2 OFFCURVE",
"137 28 OFFCURVE",
"137 107 CURVE",
"137 185 OFFCURVE",
"172 216 OFFCURVE",
"253 216 CURVE",
"334 216 OFFCURVE",
"360 185 OFFCURVE",
"360 107 CURVE"
);
}
);
width = 496;
}
);
note = exclam;
unicode = 0021;
},
{
color = 4;
glyphname = numbersign;
layers = (
{
layerId = "2F8B9CD4-7B7F-4ACC-ADF3-B6E0F7033A19";
paths = (
{
closed = 1;
nodes = (
"66 0 LINE",
"193 0 LINE",
"467 1321 LINE",
"340 1321 LINE"
);
},
{
closed = 1;
nodes = (
"471 0 LINE",
"598 0 LINE",
"872 1321 LINE",
"745 1321 LINE"
);
},
{
closed = 1;
nodes = (
"27 822 LINE",
"989 822 LINE",
"989 941 LINE",
"27 941 LINE"
);
},
{
closed = 1;
nodes = (
"-33 392 LINE",
"929 392 LINE",
"929 511 LINE",
"-33 511 LINE"
);
}
);
width = 949;
}
);
note = numbersign;
unicode = 0023;
},
{
color = 4;
glyphname = period;
layers = (
{
layerId = "2F8B9CD4-7B7F-4ACC-ADF3-B6E0F7033A19";
paths = (
{
closed = 1;
nodes = (
"358 28 OFFCURVE",
"332 -2 OFFCURVE",
"251 -2 CURVE",
"170 -2 OFFCURVE",
"135 28 OFFCURVE",
"135 107 CURVE",
"135 185 OFFCURVE",
"170 216 OFFCURVE",
"251 216 CURVE",
"332 216 OFFCURVE",
"358 185 OFFCURVE",
"358 107 CURVE"
);
}
);
width = 494;
}
);
note = period;
unicode = 002E;
},
{
color = 4;
glyphname = question;
layers = (
{
layerId = "2F8B9CD4-7B7F-4ACC-ADF3-B6E0F7033A19";
paths = (
{
closed = 1;
nodes = (
"236 1216 OFFCURVE",
"355 1231 OFFCURVE",
"470 1231 CURVE SMOOTH",
"587 1231 OFFCURVE",
"673 1199 OFFCURVE",
"673 1069 CURVE SMOOTH",
"673 966 OFFCURVE",
"607 903 OFFCURVE",
"510 824 CURVE SMOOTH",
"405 738 OFFCURVE",
"320 651 OFFCURVE",
"320 534 CURVE SMOOTH",
"320 488 OFFCURVE",
"324 404 OFFCURVE",
"328 350 CURVE",
"459 349 LINE",
"465 543 OFFCURVE",
"464 578 OFFCURVE",
"494 621 CURVE SMOOTH",
"519 657 OFFCURVE",
"616 730 OFFCURVE",
"652 760 CURVE SMOOTH",
"746 839 OFFCURVE",
"818 947 OFFCURVE",
"818 1062 CURVE SMOOTH",
"818 1309 OFFCURVE",
"645 1366 OFFCURVE",
"449 1366 CURVE SMOOTH",
"340 1366 OFFCURVE",
"91 1335 OFFCURVE",
"91 1053 CURVE",
"236 1053 LINE"
);
},
{
closed = 1;
nodes = (
"509 28 OFFCURVE",
"483 -2 OFFCURVE",
"402 -2 CURVE",
"321 -2 OFFCURVE",
"286 28 OFFCURVE",
"286 107 CURVE",
"286 185 OFFCURVE",
"321 216 OFFCURVE",
"402 216 CURVE",
"483 216 OFFCURVE",
"509 185 OFFCURVE",
"509 107 CURVE"
);
}
);
width = 892;
}
);
note = question;
unicode = 003F;
},
{
color = 4;
glyphname = quotedbl;
layers = (
{
layerId = "2F8B9CD4-7B7F-4ACC-ADF3-B6E0F7033A19";
paths = (
{
closed = 1;
nodes = (
"468 1452 LINE",
"470 1260 LINE",
"501 952 LINE",
"630 952 LINE",
"661 1260 LINE",
"663 1452 LINE"
);
},
{
closed = 1;
nodes = (
"128 1452 LINE",
"132 1260 LINE",
"163 952 LINE",
"292 952 LINE",
"321 1260 LINE",
"325 1452 LINE"
);
}
);
width = 793;
}
);
note = quotedbl;
unicode = 0022;
},
{
color = 4;
glyphname = quotesingle;
layers = (
{
layerId = "2F8B9CD4-7B7F-4ACC-ADF3-B6E0F7033A19";
paths = (
{
closed = 1;
nodes = (
"130 1452 LINE",
"132 1260 LINE",
"163 952 LINE",
"292 952 LINE",
"323 1260 LINE",
"325 1452 LINE"
);
}
);
width = 455;
}
);
note = quotesingle;
unicode = 0027;
},
{
color = 4;
glyphname = semicolon;
layers = (
{
guideLines = (
{
angle = 90;
position = "{352, 584}";
},
{
angle = 90;
position = "{141, 577}";
}
);
layerId = "2F8B9CD4-7B7F-4ACC-ADF3-B6E0F7033A19";
paths = (
{
closed = 1;
nodes = (
"358 742 OFFCURVE",
"332 712 OFFCURVE",
"251 712 CURVE",
"170 712 OFFCURVE",
"135 742 OFFCURVE",
"135 821 CURVE",
"135 899 OFFCURVE",
"170 930 OFFCURVE",
"251 930 CURVE",
"332 930 OFFCURVE",
"358 899 OFFCURVE",
"358 821 CURVE"
);
},
{
closed = 1;
nodes = (
"358 438 OFFCURVE",
"328 468 OFFCURVE",
"247 468 CURVE",
"166 468 OFFCURVE",
"128 438 OFFCURVE",
"128 353 CURVE",
"128 271 OFFCURVE",
"166 250 OFFCURVE",
"237 250 CURVE",
"237 179 OFFCURVE",
"207 134 OFFCURVE",
"150 70 CURVE",
"198 0 LINE",
"222 15 OFFCURVE",
"253 35 OFFCURVE",
"289 80 CURVE SMOOTH",
"325 126 OFFCURVE",
"358 185 OFFCURVE",
"358 256 CURVE SMOOTH",
"358 353 LINE"
);
}
);
width = 494;
}
);
note = semicolon;
unicode = 003B;
},
{
color = 4;
glyphname = slash;
layers = (
{
layerId = "2F8B9CD4-7B7F-4ACC-ADF3-B6E0F7033A19";
paths = (
{
closed = 1;
nodes = (
"211 -171 LINE",
"609 1597 LINE",
"492 1624 LINE",
"96 -143 LINE"
);
}
);
width = 711;
}
);
note = slash;
unicode = 002F;
},
{
color = 4;
glyphname = underscore;
layers = (
{
layerId = "2F8B9CD4-7B7F-4ACC-ADF3-B6E0F7033A19";
paths = (
{
closed = 1;
nodes = (
"962 -22 LINE",
"123 -22 LINE",
"124 -126 LINE",
"961 -126 LINE"
);
}
);
width = 1085;
}
);
note = underscore;
unicode = 005F;
},
{
color = 4;
glyphname = braceleft;
layers = (
{
layerId = "2F8B9CD4-7B7F-4ACC-ADF3-B6E0F7033A19";
paths = (
{
closed = 1;
nodes = (
"273 692 OFFCURVE",
"336 733 OFFCURVE",
"336 917 CURVE",
"336 1291 LINE",
"336 1330 OFFCURVE",
"339 1357 OFFCURVE",
"358 1380 CURVE SMOOTH",
"377 1403 OFFCURVE",
"412 1407 OFFCURVE",
"491 1407 CURVE",
"491 1528 LINE",
"304 1528 OFFCURVE",
"280 1515 OFFCURVE",
"236 1459 CURVE SMOOTH",
"214 1431 OFFCURVE",
"202 1376 OFFCURVE",
"202 1300 CURVE",
"202 953 LINE",
"202 782 OFFCURVE",
"168 740 OFFCURVE",
"-2 709 CURVE",
"-2 581 LINE",
"168 550 OFFCURVE",
"202 508 OFFCURVE",
"202 337 CURVE SMOOTH",
"202 -10 LINE SMOOTH",
"202 -86 OFFCURVE",
"214 -141 OFFCURVE",
"236 -169 CURVE SMOOTH",
"280 -225 OFFCURVE",
"304 -238 OFFCURVE",
"491 -238 CURVE",
"491 -117 LINE",
"412 -117 OFFCURVE",
"376 -112 OFFCURVE",
"358 -90 CURVE SMOOTH",
"339 -67 OFFCURVE",
"336 -40 OFFCURVE",
"336 -1 CURVE SMOOTH",
"336 373 LINE SMOOTH",
"336 557 OFFCURVE",
"273 602 OFFCURVE",
"170 647 CURVE"
);
}
);
width = 573;
}
);
note = braceleft;
unicode = 007B;
},
{
color = 4;
glyphname = braceright;
layers = (
{
layerId = "2F8B9CD4-7B7F-4ACC-ADF3-B6E0F7033A19";
paths = (
{
closed = 1;
nodes = (
"296 602 OFFCURVE",
"233 557 OFFCURVE",
"233 373 CURVE SMOOTH",
"233 -1 LINE SMOOTH",
"233 -40 OFFCURVE",
"230 -67 OFFCURVE",
"211 -90 CURVE SMOOTH",
"193 -112 OFFCURVE",
"157 -117 OFFCURVE",
"78 -117 CURVE",
"78 -238 LINE",
"265 -238 OFFCURVE",
"289 -225 OFFCURVE",
"333 -169 CURVE SMOOTH",
"355 -141 OFFCURVE",
"367 -86 OFFCURVE",
"367 -10 CURVE SMOOTH",
"367 337 LINE SMOOTH",
"367 508 OFFCURVE",
"401 550 OFFCURVE",
"571 581 CURVE",
"571 709 LINE",
"401 740 OFFCURVE",
"367 782 OFFCURVE",
"367 953 CURVE",
"367 1300 LINE",
"367 1376 OFFCURVE",
"355 1431 OFFCURVE",
"333 1459 CURVE SMOOTH",
"289 1515 OFFCURVE",
"265 1528 OFFCURVE",
"78 1528 CURVE",
"78 1407 LINE",
"157 1407 OFFCURVE",
"192 1403 OFFCURVE",
"211 1380 CURVE SMOOTH",
"230 1357 OFFCURVE",
"233 1330 OFFCURVE",
"233 1291 CURVE",
"233 917 LINE",
"233 733 OFFCURVE",
"296 692 OFFCURVE",
"399 647 CURVE"
);
}
);
width = 574;
}
);
note = braceright;
unicode = 007D;
},
{
color = 4;
glyphname = bracketleft;
layers = (
{
layerId = "2F8B9CD4-7B7F-4ACC-ADF3-B6E0F7033A19";
paths = (
{
closed = 1;
nodes = (
"552 -218 LINE",
"552 -113 LINE",
"320 -113 LINE",
"320 1412 LINE",
"552 1412 LINE",
"552 1519 LINE",
"164 1519 LINE",
"164 -218 LINE"
);
}
);
width = 621;
}
);
note = bracketleft;
unicode = 005B;
},
{
color = 4;
glyphname = bracketright;
layers = (
{
layerId = "2F8B9CD4-7B7F-4ACC-ADF3-B6E0F7033A19";
paths = (
{
closed = 1;
nodes = (
"452 1519 LINE",
"64 1519 LINE",
"64 1412 LINE",
"296 1412 LINE",
"296 -113 LINE",
"64 -113 LINE",
"64 -218 LINE",
"452 -218 LINE"
);
}
);
width = 619;
}
);
note = bracketright;
unicode = 005D;
},
{
color = 4;
glyphname = parenleft;
layers = (
{
layerId = "2F8B9CD4-7B7F-4ACC-ADF3-B6E0F7033A19";
paths = (
{
closed = 1;
nodes = (
"91 390 OFFCURVE",
"90 3 OFFCURVE",
"186 -130 CURVE SMOOTH",
"260 -233 OFFCURVE",
"337 -255 OFFCURVE",
"504 -264 CURVE",
"504 -141 LINE",
"399 -141 OFFCURVE",
"340 -121 OFFCURVE",
"304 -23 CURVE SMOOTH",
"258 101 OFFCURVE",
"255 443 OFFCURVE",
"255 638 CURVE SMOOTH",
"255 824 OFFCURVE",
"258 1155 OFFCURVE",
"304 1279 CURVE SMOOTH",
"340 1376 OFFCURVE",
"399 1397 OFFCURVE",
"504 1397 CURVE",
"504 1520 LINE",
"337 1511 OFFCURVE",
"260 1488 OFFCURVE",
"186 1386 CURVE SMOOTH",
"90 1253 OFFCURVE",
"91 866 OFFCURVE",
"91 638 CURVE SMOOTH"
);
}
);
width = 586;
}
);
note = parenleft;
unicode = 0028;
},
{
color = 4;
glyphname = parenright;
layers = (
{
layerId = "2F8B9CD4-7B7F-4ACC-ADF3-B6E0F7033A19";
paths = (
{
closed = 1;
nodes = (
"504 866 OFFCURVE",
"505 1253 OFFCURVE",
"409 1386 CURVE SMOOTH",
"335 1488 OFFCURVE",
"258 1511 OFFCURVE",
"91 1520 CURVE",
"91 1397 LINE",
"196 1397 OFFCURVE",
"255 1376 OFFCURVE",
"291 1279 CURVE SMOOTH",
"337 1155 OFFCURVE",
"340 824 OFFCURVE",
"340 638 CURVE SMOOTH",
"340 443 OFFCURVE",
"337 101 OFFCURVE",
"291 -23 CURVE SMOOTH",
"255 -121 OFFCURVE",
"196 -141 OFFCURVE",
"91 -141 CURVE",
"91 -264 LINE",
"258 -255 OFFCURVE",
"335 -233 OFFCURVE",
"409 -130 CURVE SMOOTH",
"505 3 OFFCURVE",
"504 390 OFFCURVE",
"504 638 CURVE SMOOTH"
);
}
);
width = 584;
}
);
note = parenright;
unicode = 0029;
},
{
color = 4;
glyphname = emdash;
layers = (
{
layerId = "2F8B9CD4-7B7F-4ACC-ADF3-B6E0F7033A19";
paths = (
{
closed = 1;
nodes = (
"1037 684 LINE",
"123 684 LINE",
"123 575 LINE",
"1037 575 LINE"
);
}
);
width = 1160;
}
);
note = emdash;
unicode = 2014;
},
{
color = 4;
glyphname = endash;
layers = (
{
layerId = "2F8B9CD4-7B7F-4ACC-ADF3-B6E0F7033A19";
paths = (
{
closed = 1;
nodes = (
"852 684 LINE",
"123 684 LINE",
"123 575 LINE",
"852 575 LINE"
);
}
);
width = 974;
}
);
note = endash;
unicode = 2013;
},
{
color = 4;
glyphname = hyphen;
layers = (
{
layerId = "2F8B9CD4-7B7F-4ACC-ADF3-B6E0F7033A19";
paths = (
{
closed = 1;
nodes = (
"700 474 LINE",
"700 605 LINE",
"141 605 LINE",
"141 474 LINE"
);
}
);
width = 841;
}
);
note = hyphen;
unicode = 002D;
},
{
glyphname = guillemetleft;
layers = (
{
layerId = "2F8B9CD4-7B7F-4ACC-ADF3-B6E0F7033A19";
paths = (
{
closed = 1;
nodes = (
"549 1020 LINE",
"445 1112 LINE",
"58 721 LINE",
"445 330 LINE",
"549 420 LINE",
"226 721 LINE"
);
},
{
closed = 1;
nodes = (
"986 1020 LINE",
"885 1112 LINE",
"496 721 LINE",
"885 330 LINE",
"986 420 LINE",
"664 721 LINE"
);
}
);
width = 1100;
}
);
note = guillemotleft;
unicode = 00AB;
},
{
glyphname = guillemetright;
layers = (
{
layerId = "2F8B9CD4-7B7F-4ACC-ADF3-B6E0F7033A19";
paths = (
{
closed = 1;
nodes = (
"1042 721 LINE",
"655 1112 LINE",
"551 1020 LINE",
"874 721 LINE",
"551 420 LINE",
"655 330 LINE"
);
},
{
closed = 1;
nodes = (
"604 721 LINE",
"215 1112 LINE",
"114 1020 LINE",
"436 721 LINE",
"114 420 LINE",
"215 330 LINE"
);
}
);
width = 1100;
}
);
note = guillemotright;
unicode = 00BB;
},
{
color = 4;
glyphname = guilsinglleft;
layers = (
{
layerId = "2F8B9CD4-7B7F-4ACC-ADF3-B6E0F7033A19";
paths = (
{
closed = 1;
nodes = (
"80 609 LINE",
"398 218 LINE",
"539 286 LINE",
"241 662 LINE",
"539 1038 LINE",
"398 1106 LINE",
"80 715 LINE"
);
}
);
width = 642;
}
);
note = guilsinglleft;
unicode = 2039;
},
{
color = 4;
glyphname = guilsinglright;
layers = (
{
layerId = "2F8B9CD4-7B7F-4ACC-ADF3-B6E0F7033A19";
paths = (
{
closed = 1;
nodes = (
"102 1038 LINE",
"400 662 LINE",
"102 286 LINE",
"243 218 LINE",
"561 609 LINE",
"561 715 LINE",
"243 1106 LINE"
);
}
);
width = 642;
}
);
note = guilsinglright;
unicode = 203A;
},
{
color = 4;
glyphname = quotedblbase;
layers = (
{
layerId = "2F8B9CD4-7B7F-4ACC-ADF3-B6E0F7033A19";
paths = (
{
closed = 1;
nodes = (
"326 177 OFFCURVE",
"298 205 OFFCURVE",
"222 205 CURVE",
"147 205 OFFCURVE",
"111 177 OFFCURVE",
"111 98 CURVE",
"111 21 OFFCURVE",
"147 2 OFFCURVE",
"213 2 CURVE",
"213 -64 OFFCURVE",
"185 -106 OFFCURVE",
"132 -166 CURVE",
"177 -231 LINE",
"199 -217 OFFCURVE",
"228 -199 OFFCURVE",
"261 -157 CURVE SMOOTH",
"295 -114 OFFCURVE",
"326 -59 OFFCURVE",
"326 7 CURVE SMOOTH",
"326 98 LINE"
);
},
{
closed = 1;
nodes = (
"643 174 OFFCURVE",
"615 202 OFFCURVE",
"539 202 CURVE",
"464 202 OFFCURVE",
"428 174 OFFCURVE",
"428 95 CURVE",
"428 18 OFFCURVE",
"464 -1 OFFCURVE",
"530 -1 CURVE",
"530 -67 OFFCURVE",
"502 -109 OFFCURVE",
"449 -169 CURVE",
"494 -234 LINE",
"516 -220 OFFCURVE",
"545 -202 OFFCURVE",
"578 -160 CURVE SMOOTH",
"612 -117 OFFCURVE",
"643 -62 OFFCURVE",
"643 4 CURVE SMOOTH",
"643 95 LINE"
);
}
);
width = 745;
}
);
note = quotedblbase;
unicode = 201E;
},
{
color = 4;
glyphname = quotedblleft;
layers = (
{
layerId = "2F8B9CD4-7B7F-4ACC-ADF3-B6E0F7033A19";
paths = (
{
closed = 1;
nodes = (
"418 1045 OFFCURVE",
"446 1017 OFFCURVE",
"522 1017 CURVE",
"597 1017 OFFCURVE",
"633 1045 OFFCURVE",
"633 1124 CURVE",
"633 1201 OFFCURVE",
"597 1220 OFFCURVE",
"531 1220 CURVE",
"531 1286 OFFCURVE",
"559 1328 OFFCURVE",
"612 1388 CURVE",
"567 1453 LINE",
"545 1439 OFFCURVE",
"516 1421 OFFCURVE",
"483 1379 CURVE SMOOTH",
"449 1336 OFFCURVE",
"418 1281 OFFCURVE",
"418 1215 CURVE SMOOTH",
"418 1124 LINE"
);
},
{
closed = 1;
nodes = (
"91 1048 OFFCURVE",
"119 1020 OFFCURVE",
"195 1020 CURVE",
"270 1020 OFFCURVE",
"306 1048 OFFCURVE",
"306 1127 CURVE",
"306 1204 OFFCURVE",
"270 1223 OFFCURVE",
"204 1223 CURVE",
"204 1289 OFFCURVE",
"232 1331 OFFCURVE",
"285 1391 CURVE",
"240 1456 LINE",
"218 1442 OFFCURVE",
"189 1424 OFFCURVE",
"156 1382 CURVE SMOOTH",
"122 1339 OFFCURVE",
"91 1284 OFFCURVE",
"91 1218 CURVE SMOOTH",
"91 1127 LINE"
);
}
);
width = 746;
}
);
note = quotedblleft;
unicode = 201C;
},
{
color = 4;
glyphname = quotedblright;
layers = (
{
layerId = "2F8B9CD4-7B7F-4ACC-ADF3-B6E0F7033A19";
paths = (
{
closed = 1;
nodes = (
"306 1428 OFFCURVE",
"278 1456 OFFCURVE",
"202 1456 CURVE",
"127 1456 OFFCURVE",
"91 1428 OFFCURVE",
"91 1349 CURVE",
"91 1272 OFFCURVE",
"127 1253 OFFCURVE",
"193 1253 CURVE",
"193 1187 OFFCURVE",
"165 1145 OFFCURVE",
"112 1085 CURVE",
"157 1020 LINE",
"179 1034 OFFCURVE",
"208 1052 OFFCURVE",
"241 1094 CURVE SMOOTH",
"275 1137 OFFCURVE",
"306 1192 OFFCURVE",
"306 1258 CURVE SMOOTH",
"306 1349 LINE"
);
},
{
closed = 1;
nodes = (
"633 1425 OFFCURVE",
"605 1453 OFFCURVE",
"529 1453 CURVE",
"454 1453 OFFCURVE",
"418 1425 OFFCURVE",
"418 1346 CURVE",
"418 1269 OFFCURVE",
"454 1250 OFFCURVE",
"520 1250 CURVE",
"520 1184 OFFCURVE",
"492 1142 OFFCURVE",
"439 1082 CURVE",
"484 1017 LINE",
"506 1031 OFFCURVE",
"535 1049 OFFCURVE",
"568 1091 CURVE SMOOTH",
"602 1134 OFFCURVE",
"633 1189 OFFCURVE",
"633 1255 CURVE SMOOTH",
"633 1346 LINE"
);
}
);
width = 723;
}
);
note = quotedblright;
unicode = 201D;
},
{
color = 4;
glyphname = quoteleft;
layers = (
{
layerId = "2F8B9CD4-7B7F-4ACC-ADF3-B6E0F7033A19";
paths = (
{
closed = 1;
nodes = (
"113 1048 OFFCURVE",
"141 1020 OFFCURVE",
"217 1020 CURVE",
"292 1020 OFFCURVE",
"328 1048 OFFCURVE",
"328 1127 CURVE",
"328 1204 OFFCURVE",
"292 1223 OFFCURVE",
"226 1223 CURVE",
"226 1289 OFFCURVE",
"254 1331 OFFCURVE",
"307 1391 CURVE",
"262 1456 LINE",
"240 1442 OFFCURVE",
"211 1424 OFFCURVE",
"178 1382 CURVE SMOOTH",
"144 1339 OFFCURVE",
"113 1284 OFFCURVE",
"113 1218 CURVE SMOOTH",
"113 1127 LINE"
);
}
);
width = 440;
}
);
note = quoteleft;
unicode = 2018;
},
{
color = 4;
glyphname = quoteright;
layers = (
{
layerId = "2F8B9CD4-7B7F-4ACC-ADF3-B6E0F7033A19";
paths = (
{
closed = 1;
nodes = (
"306 1428 OFFCURVE",
"278 1456 OFFCURVE",
"202 1456 CURVE",
"127 1456 OFFCURVE",
"91 1428 OFFCURVE",
"91 1349 CURVE",
"91 1272 OFFCURVE",
"127 1253 OFFCURVE",
"193 1253 CURVE",
"193 1187 OFFCURVE",
"165 1145 OFFCURVE",
"112 1085 CURVE",
"157 1020 LINE",
"179 1034 OFFCURVE",
"208 1052 OFFCURVE",
"241 1094 CURVE SMOOTH",
"275 1137 OFFCURVE",
"306 1192 OFFCURVE",
"306 1258 CURVE SMOOTH",
"306 1349 LINE"
);
}
);
width = 414;
}
);
note = quoteright;
unicode = 2019;
},
{
color = 4;
glyphname = quotesinglbase;
layers = (
{
layerId = "2F8B9CD4-7B7F-4ACC-ADF3-B6E0F7033A19";
paths = (
{
closed = 1;
nodes = (
"336 177 OFFCURVE",
"308 205 OFFCURVE",
"232 205 CURVE",
"157 205 OFFCURVE",
"121 177 OFFCURVE",
"121 98 CURVE",
"121 21 OFFCURVE",
"157 2 OFFCURVE",
"223 2 CURVE",
"223 -64 OFFCURVE",
"195 -106 OFFCURVE",
"142 -166 CURVE",
"187 -231 LINE",
"209 -217 OFFCURVE",
"238 -199 OFFCURVE",
"271 -157 CURVE SMOOTH",
"305 -114 OFFCURVE",
"336 -59 OFFCURVE",
"336 7 CURVE SMOOTH",
"336 98 LINE"
);
}
);
width = 467;
}
);
note = quotesinglbase;
unicode = 201A;
},
{
glyphname = "leftanglebracket-math";
layers = (
{
layerId = "2F8B9CD4-7B7F-4ACC-ADF3-B6E0F7033A19";
paths = (
{
closed = 1;
nodes = (
"442 -123 LINE",
"527 -123 LINE",
"263 635 LINE",
"527 1393 LINE",
"442 1393 LINE",
"182 635 LINE"
);
}
);
width = 600;
}
);
unicode = 27E8;
},
{
glyphname = "rightanglebracket-math";
layers = (
{
layerId = "2F8B9CD4-7B7F-4ACC-ADF3-B6E0F7033A19";
paths = (
{
closed = 1;
nodes = (
"187 1393 LINE",
"102 1393 LINE",
"366 635 LINE",
"102 -123 LINE",
"187 -123 LINE",
"447 635 LINE"
);
}
);
width = 600;
}
);
unicode = 27E9;
},
{
glyphname = cedi;
layers = (
{
layerId = "2F8B9CD4-7B7F-4ACC-ADF3-B6E0F7033A19";
paths = (
{
closed = 1;
nodes = (
"1121 221 OFFCURVE",
"1093 178 OFFCURVE",
"1024 133 CURVE SMOOTH",
"951 85 OFFCURVE",
"874 78 OFFCURVE",
"757 77 CURVE SMOOTH",
"674 76 OFFCURVE",
"604 94 OFFCURVE",
"548 116 CURVE SMOOTH",
"438 160 OFFCURVE",
"392 216 OFFCURVE",
"358 330 CURVE SMOOTH",
"337 402 OFFCURVE",
"320 505 OFFCURVE",
"320 645 CURVE SMOOTH",
"320 784 OFFCURVE",
"338 889 OFFCURVE",
"361 964 CURVE SMOOTH",
"396 1076 OFFCURVE",
"445 1134 OFFCURVE",
"549 1177 CURVE SMOOTH",
"600 1198 OFFCURVE",
"688 1214 OFFCURVE",
"779 1214 CURVE SMOOTH",
"874 1214 OFFCURVE",
"951 1208 OFFCURVE",
"1024 1160 CURVE SMOOTH",
"1093 1115 OFFCURVE",
"1121 1072 OFFCURVE",
"1133 944 CURVE",
"1291 944 LINE",
"1293 1084 OFFCURVE",
"1237 1178 OFFCURVE",
"1162 1241 CURVE SMOOTH",
"1061 1327 OFFCURVE",
"901 1356 OFFCURVE",
"758 1356 CURVE SMOOTH",
"634 1356 OFFCURVE",
"534 1330 OFFCURVE",
"459 1296 CURVE SMOOTH",
"327 1237 OFFCURVE",
"256 1153 OFFCURVE",
"205 1004 CURVE SMOOTH",
"175 914 OFFCURVE",
"152 792 OFFCURVE",
"152 630 CURVE SMOOTH",
"152 499 OFFCURVE",
"171 383 OFFCURVE",
"201 290 CURVE SMOOTH",
"251 141 OFFCURVE",
"320 53 OFFCURVE",
"464 -7 CURVE SMOOTH",
"535 -37 OFFCURVE",
"633 -63 OFFCURVE",
"757 -63 CURVE SMOOTH",
"901 -63 OFFCURVE",
"1065 -33 OFFCURVE",
"1162 52 CURVE SMOOTH",
"1234 115 OFFCURVE",
"1293 209 OFFCURVE",
"1291 349 CURVE",
"1133 349 LINE"
);
},
{
closed = 1;
nodes = (
"680 -295 LINE",
"816 -295 LINE",
"816 1606 LINE",
"680 1606 LINE"
);
}
);
width = 1433;
}
);
unicode = 20B5;
},
{
color = 4;
glyphname = cent;
layers = (
{
layerId = "2F8B9CD4-7B7F-4ACC-ADF3-B6E0F7033A19";
paths = (
{
closed = 1;
nodes = (
"818 250 OFFCURVE",
"800 179 OFFCURVE",
"721 153 CURVE SMOOTH",
"688 142 OFFCURVE",
"641 130 OFFCURVE",
"577 130 CURVE SMOOTH",
"502 130 OFFCURVE",
"451 141 OFFCURVE",
"414 156 CURVE SMOOTH",
"357 179 OFFCURVE",
"325 213 OFFCURVE",
"307 287 CURVE SMOOTH",
"296 332 OFFCURVE",
"287 402 OFFCURVE",
"287 511 CURVE SMOOTH",
"287 616 OFFCURVE",
"296 684 OFFCURVE",
"307 729 CURVE SMOOTH",
"324 797 OFFCURVE",
"350 834 OFFCURVE",
"410 860 CURVE SMOOTH",
"445 875 OFFCURVE",
"495 886 OFFCURVE",
"573 886 CURVE SMOOTH",
"651 886 OFFCURVE",
"740 873 OFFCURVE",
"778 826 CURVE SMOOTH",
"806 792 OFFCURVE",
"816 744 OFFCURVE",
"820 692 CURVE",
"943 692 LINE",
"941 795 OFFCURVE",
"914 865 OFFCURVE",
"867 912 CURVE SMOOTH",
"801 978 OFFCURVE",
"683 1002 OFFCURVE",
"576 1002 CURVE SMOOTH",
"480 1002 OFFCURVE",
"406 984 OFFCURVE",
"351 961 CURVE SMOOTH",
"186 892 OFFCURVE",
"142 736 OFFCURVE",
"142 513 CURVE SMOOTH",
"142 393 OFFCURVE",
"157 309 OFFCURVE",
"176 250 CURVE SMOOTH",
"207 155 OFFCURVE",
"258 94 OFFCURVE",
"350 59 CURVE SMOOTH",
"406 38 OFFCURVE",
"479 18 OFFCURVE",
"575 18 CURVE SMOOTH",
"668 18 OFFCURVE",
"737 31 OFFCURVE",
"786 52 CURVE SMOOTH",
"894 98 OFFCURVE",
"942 195 OFFCURVE",
"943 328 CURVE",
"820 328 LINE"
);
},
{
closed = 1;
nodes = (
"503 -273 LINE",
"608 -273 LINE",
"608 1293 LINE",
"503 1293 LINE"
);
}
);
width = 1028;
}
);
note = cent;
unicode = 00A2;
},
{
glyphname = colonsign;
layers = (
{
guideLines = (
{
position = "{807, 1334}";
}
);
layerId = "2F8B9CD4-7B7F-4ACC-ADF3-B6E0F7033A19";
paths = (
{
closed = 1;
nodes = (
"1118 262 OFFCURVE",
"1092 221 OFFCURVE",
"1026 178 CURVE SMOOTH",
"956 132 OFFCURVE",
"881 125 OFFCURVE",
"769 125 CURVE SMOOTH",
"690 125 OFFCURVE",
"623 141 OFFCURVE",
"569 161 CURVE SMOOTH",
"462 201 OFFCURVE",
"419 258 OFFCURVE",
"387 367 CURVE SMOOTH",
"367 436 OFFCURVE",
"351 534 OFFCURVE",
"351 667 CURVE SMOOTH",
"351 801 OFFCURVE",
"368 902 OFFCURVE",
"391 974 CURVE SMOOTH",
"425 1081 OFFCURVE",
"472 1137 OFFCURVE",
"570 1178 CURVE SMOOTH",
"620 1199 OFFCURVE",
"704 1214 OFFCURVE",
"791 1214 CURVE SMOOTH",
"881 1214 OFFCURVE",
"956 1208 OFFCURVE",
"1026 1162 CURVE SMOOTH",
"1092 1119 OFFCURVE",
"1118 1077 OFFCURVE",
"1129 954 CURVE",
"1281 954 LINE",
"1283 1089 OFFCURVE",
"1228 1180 OFFCURVE",
"1157 1240 CURVE SMOOTH",
"1061 1321 OFFCURVE",
"907 1349 OFFCURVE",
"770 1349 CURVE SMOOTH",
"651 1349 OFFCURVE",
"556 1323 OFFCURVE",
"484 1291 CURVE SMOOTH",
"358 1235 OFFCURVE",
"291 1154 OFFCURVE",
"241 1012 CURVE SMOOTH",
"211 926 OFFCURVE",
"189 809 OFFCURVE",
"189 654 CURVE SMOOTH",
"189 528 OFFCURVE",
"208 418 OFFCURVE",
"238 329 CURVE SMOOTH",
"286 187 OFFCURVE",
"351 100 OFFCURVE",
"489 44 CURVE SMOOTH",
"558 16 OFFCURVE",
"650 -9 OFFCURVE",
"769 -9 CURVE SMOOTH",
"907 -9 OFFCURVE",
"1065 20 OFFCURVE",
"1157 99 CURVE SMOOTH",
"1227 159 OFFCURVE",
"1283 250 OFFCURVE",
"1281 385 CURVE",
"1129 385 LINE"
);
},
{
closed = 1;
nodes = (
"582 -202 LINE",
"704 -202 LINE",
"1141 1553 LINE",
"1020 1553 LINE"
);
},
{
closed = 1;
nodes = (
"310 -202 LINE",
"432 -202 LINE",
"869 1553 LINE",
"748 1553 LINE"
);
}
);
width = 1433;
}
);
unicode = 20A1;
},
{
glyphname = currency;
layers = (
{
layerId = "2F8B9CD4-7B7F-4ACC-ADF3-B6E0F7033A19";
paths = (
{
closed = 1;
nodes = (
"520 1217 OFFCURVE",
"441 1194 OFFCURVE",
"385 1157 CURVE",
"240 1304 LINE",
"130 1196 LINE",
"276 1047 LINE",
"237 971 OFFCURVE",
"219 881 OFFCURVE",
"219 793 CURVE SMOOTH",
"219 714 OFFCURVE",
"233 638 OFFCURVE",
"264 567 CURVE",
"120 411 LINE",
"230 304 LINE",
"360 444 LINE",
"420 399 OFFCURVE",
"505 375 OFFCURVE",
"621 375 CURVE SMOOTH",
"737 375 OFFCURVE",
"822 399 OFFCURVE",
"882 444 CURVE",
"1012 304 LINE",
"1122 411 LINE",
"978 567 LINE",
"1009 638 OFFCURVE",
"1023 714 OFFCURVE",
"1023 793 CURVE SMOOTH",
"1023 881 OFFCURVE",
"1005 971 OFFCURVE",
"966 1047 CURVE",
"1112 1196 LINE",
"1002 1304 LINE",
"857 1157 LINE",
"801 1194 OFFCURVE",
"722 1217 OFFCURVE",
"621 1217 CURVE SMOOTH"
);
},
{
closed = 1;
nodes = (
"501 500 OFFCURVE",
"442 533 OFFCURVE",
"406 596 CURVE SMOOTH",
"374 650 OFFCURVE",
"366 719 OFFCURVE",
"366 793 CURVE SMOOTH",
"366 881 OFFCURVE",
"371 956 OFFCURVE",
"422 1020 CURVE SMOOTH",
"461 1067 OFFCURVE",
"521 1092 OFFCURVE",
"621 1092 CURVE SMOOTH",
"721 1092 OFFCURVE",
"781 1067 OFFCURVE",
"820 1020 CURVE SMOOTH",
"872 955 OFFCURVE",
"876 886 OFFCURVE",
"876 793 CURVE SMOOTH",
"876 722 OFFCURVE",
"869 652 OFFCURVE",
"836 596 CURVE SMOOTH",
"800 533 OFFCURVE",
"741 500 OFFCURVE",
"621 500 CURVE SMOOTH"
);
}
);
width = 1242;
}
);
note = currency;
unicode = 00A4;
},
{
color = 4;
glyphname = dollar;
layers = (
{
layerId = "2F8B9CD4-7B7F-4ACC-ADF3-B6E0F7033A19";
paths = (
{
closed = 1;
nodes = (
"75 260 OFFCURVE",
"91 160 OFFCURVE",
"179 93 CURVE SMOOTH",
"262 30 OFFCURVE",
"352 7 OFFCURVE",
"537 7 CURVE SMOOTH",
"817 7 OFFCURVE",
"965 105 OFFCURVE",
"965 384 CURVE SMOOTH",
"965 626 OFFCURVE",
"863 715 OFFCURVE",
"527 766 CURVE SMOOTH",
"276 804 OFFCURVE",
"228 847 OFFCURVE",
"228 1001 CURVE SMOOTH",
"228 1181 OFFCURVE",
"359 1199 OFFCURVE",
"514 1199 CURVE SMOOTH",
"646 1199 OFFCURVE",
"726 1192 OFFCURVE",
"766 1132 CURVE SMOOTH",
"790 1096 OFFCURVE",
"793 1056 OFFCURVE",
"793 1011 CURVE",
"930 1011 LINE",
"930 1076 OFFCURVE",
"928 1127 OFFCURVE",
"900 1179 CURVE SMOOTH",
"841 1288 OFFCURVE",
"721 1333 OFFCURVE",
"527 1333 CURVE SMOOTH",
"267 1333 OFFCURVE",
"79 1263 OFFCURVE",
"79 999 CURVE SMOOTH",
"79 771 OFFCURVE",
"168 678 OFFCURVE",
"468 631 CURVE SMOOTH",
"744 588 OFFCURVE",
"814 545 OFFCURVE",
"814 377 CURVE SMOOTH",
"814 194 OFFCURVE",
"722 140 OFFCURVE",
"543 140 CURVE SMOOTH",
"416 140 OFFCURVE",
"341 140 OFFCURVE",
"274 191 CURVE SMOOTH",
"228 226 OFFCURVE",
"217 286 OFFCURVE",
"217 354 CURVE",
"75 354 LINE"
);
},
{
closed = 1;
nodes = (
"459 -200 LINE",
"575 -200 LINE",
"575 1500 LINE",
"459 1500 LINE"
);
}
);
width = 1088;
}
);
note = dollar;
unicode = 0024;
},
{
glyphname = dong;
layers = (
{
guideLines = (
{
position = "{1071, 1309}";
}
);
layerId = "2F8B9CD4-7B7F-4ACC-ADF3-B6E0F7033A19";
paths = (
{
closed = 1;
nodes = (
"782 914 OFFCURVE",
"815 809 OFFCURVE",
"815 508 CURVE SMOOTH",
"815 219 OFFCURVE",
"770 102 OFFCURVE",
"512 102 CURVE SMOOTH",
"255 102 OFFCURVE",
"224 219 OFFCURVE",
"224 498 CURVE SMOOTH",
"224 610 OFFCURVE",
"232 685 OFFCURVE",
"243 736 CURVE SMOOTH",
"274 876 OFFCURVE",
"350 914 OFFCURVE",
"515 914 CURVE SMOOTH"
);
},
{
closed = 1;
nodes = (
"763 979 OFFCURVE",
"703 1040 OFFCURVE",
"479 1040 CURVE SMOOTH",
"386 1040 OFFCURVE",
"316 1023 OFFCURVE",
"267 1001 CURVE SMOOTH",
"174 960 OFFCURVE",
"127 902 OFFCURVE",
"100 808 CURVE SMOOTH",
"58 662 OFFCURVE",
"54 381 OFFCURVE",
"90 237 CURVE SMOOTH",
"135 53 OFFCURVE",
"269 -25 OFFCURVE",
"476 -25 CURVE SMOOTH",
"698 -25 OFFCURVE",
"780 58 OFFCURVE",
"828 134 CURVE",
"846 -1 LINE",
"971 -1 LINE",
"971 1420 LINE",
"815 1420 LINE",
"815 911 LINE"
);
},
{
closed = 1;
nodes = (
"492 1190 LINE",
"1114 1190 LINE",
"1114 1306 LINE",
"492 1306 LINE"
);
},
{
closed = 1;
nodes = (
"85 -275 LINE",
"1113 -275 LINE",
"1113 -159 LINE",
"85 -159 LINE"
);
}
);
width = 1091;
}
);
unicode = 20AB;
},
{
glyphname = euro;
layers = (
{
layerId = "2F8B9CD4-7B7F-4ACC-ADF3-B6E0F7033A19";
paths = (
{
closed = 1;
nodes = (
"1148 244 OFFCURVE",
"1122 202 OFFCURVE",
"1055 158 CURVE SMOOTH",
"984 111 OFFCURVE",
"908 105 OFFCURVE",
"793 104 CURVE SMOOTH",
"713 103 OFFCURVE",
"645 121 OFFCURVE",
"590 142 CURVE SMOOTH",
"482 183 OFFCURVE",
"437 239 OFFCURVE",
"404 351 CURVE SMOOTH",
"383 422 OFFCURVE",
"368 521 OFFCURVE",
"368 657 CURVE SMOOTH",
"368 793 OFFCURVE",
"385 896 OFFCURVE",
"408 969 CURVE SMOOTH",
"442 1078 OFFCURVE",
"490 1134 OFFCURVE",
"591 1176 CURVE SMOOTH",
"641 1197 OFFCURVE",
"727 1213 OFFCURVE",
"815 1213 CURVE SMOOTH",
"908 1213 OFFCURVE",
"984 1207 OFFCURVE",
"1055 1160 CURVE SMOOTH",
"1122 1116 OFFCURVE",
"1148 1074 OFFCURVE",
"1160 949 CURVE",
"1315 949 LINE",
"1317 1086 OFFCURVE",
"1261 1178 OFFCURVE",
"1188 1240 CURVE SMOOTH",
"1091 1323 OFFCURVE",
"934 1350 OFFCURVE",
"794 1350 CURVE SMOOTH",
"673 1350 OFFCURVE",
"576 1325 OFFCURVE",
"503 1292 CURVE SMOOTH",
"375 1234 OFFCURVE",
"306 1153 OFFCURVE",
"256 1007 CURVE SMOOTH",
"226 920 OFFCURVE",
"203 801 OFFCURVE",
"203 643 CURVE SMOOTH",
"203 515 OFFCURVE",
"222 402 OFFCURVE",
"252 312 CURVE SMOOTH",
"300 167 OFFCURVE",
"368 80 OFFCURVE",
"508 22 CURVE SMOOTH",
"578 -7 OFFCURVE",
"672 -32 OFFCURVE",
"793 -32 CURVE SMOOTH",
"934 -32 OFFCURVE",
"1094 -3 OFFCURVE",
"1188 78 CURVE SMOOTH",
"1260 140 OFFCURVE",
"1317 232 OFFCURVE",
"1315 369 CURVE",
"1160 369 LINE"
);
},
{
closed = 1;
nodes = (
"41 717 LINE",
"761 717 LINE",
"761 836 LINE",
"41 836 LINE"
);
},
{
closed = 1;
nodes = (
"41 462 LINE",
"761 462 LINE",
"761 581 LINE",
"41 581 LINE"
);
}
);
width = 1425;
}
);
note = Euro;
unicode = 20AC;
},
{
color = 4;
glyphname = florin;
layers = (
{
layerId = "2F8B9CD4-7B7F-4ACC-ADF3-B6E0F7033A19";
paths = (
{
closed = 1;
nodes = (
"738 860 LINE",
"763 993 LINE",
"478 993 LINE",
"517 1219 LINE SMOOTH",
"529 1288 OFFCURVE",
"538 1337 OFFCURVE",
"565 1369 CURVE SMOOTH",
"592 1401 OFFCURVE",
"635 1415 OFFCURVE",
"718 1415 CURVE SMOOTH",
"757 1415 OFFCURVE",
"798 1412 OFFCURVE",
"837 1409 CURVE",
"859 1544 LINE",
"818 1547 OFFCURVE",
"775 1548 OFFCURVE",
"734 1548 CURVE SMOOTH",
"598 1548 OFFCURVE",
"514 1527 OFFCURVE",
"459 1473 CURVE SMOOTH",
"403 1419 OFFCURVE",
"376 1332 OFFCURVE",
"353 1204 CURVE SMOOTH",
"315 993 LINE",
"104 993 LINE",
"81 860 LINE",
"292 860 LINE",
"116 -139 LINE SMOOTH",
"104 -207 OFFCURVE",
"93 -258 OFFCURVE",
"66 -292 CURVE SMOOTH",
"39 -326 OFFCURVE",
"-5 -344 OFFCURVE",
"-85 -344 CURVE SMOOTH",
"-124 -344 OFFCURVE",
"-165 -338 OFFCURVE",
"-204 -330 CURVE",
"-226 -461 LINE",
"-185 -472 OFFCURVE",
"-146 -477 OFFCURVE",
"-105 -477 CURVE SMOOTH",
"36 -477 OFFCURVE",
"121 -455 OFFCURVE",
"177 -399 CURVE SMOOTH",
"232 -344 OFFCURVE",
"256 -257 OFFCURVE",
"280 -125 CURVE SMOOTH",
"456 860 LINE"
);
}
);
width = 807;
}
);
note = florin;
unicode = 0192;
},
{
glyphname = franc;
layers = (
{
guideLines = (
{
position = "{1061, 1337}";
}
);
layerId = "2F8B9CD4-7B7F-4ACC-ADF3-B6E0F7033A19";
paths = (
{
closed = 1;
nodes = (
"387 -3 LINE",
"387 628 LINE",
"1003 628 LINE",
"1003 768 LINE",
"387 768 LINE",
"387 1197 LINE",
"1118 1197 LINE",
"1118 1339 LINE",
"225 1339 LINE",
"225 -3 LINE"
);
},
{
closed = 1;
nodes = (
"26 233 LINE",
"627 233 LINE",
"627 370 LINE",
"26 370 LINE"
);
}
);
width = 1252;
}
);
unicode = 20A3;
},
{
glyphname = guarani;
layers = (
{
guideLines = (
{
position = "{-719, 1303}";
}
);
layerId = "2F8B9CD4-7B7F-4ACC-ADF3-B6E0F7033A19";
paths = (
{
closed = 1;
nodes = (
"194 791 OFFCURVE",
"216 908 OFFCURVE",
"246 993 CURVE SMOOTH",
"296 1134 OFFCURVE",
"363 1213 OFFCURVE",
"487 1270 CURVE SMOOTH",
"557 1302 OFFCURVE",
"652 1327 OFFCURVE",
"771 1327 CURVE SMOOTH",
"906 1327 OFFCURVE",
"1058 1299 OFFCURVE",
"1155 1219 CURVE SMOOTH",
"1225 1161 OFFCURVE",
"1279 1069 OFFCURVE",
"1277 935 CURVE",
"1127 935 LINE",
"1116 1058 OFFCURVE",
"1089 1099 OFFCURVE",
"1025 1142 CURVE SMOOTH",
"956 1188 OFFCURVE",
"880 1194 OFFCURVE",
"773 1194 CURVE SMOOTH",
"687 1194 OFFCURVE",
"621 1178 OFFCURVE",
"572 1158 CURVE SMOOTH",
"474 1118 OFFCURVE",
"428 1062 OFFCURVE",
"395 955 CURVE SMOOTH",
"373 883 OFFCURVE",
"354 784 OFFCURVE",
"354 651 CURVE SMOOTH",
"354 519 OFFCURVE",
"369 421 OFFCURVE",
"390 353 CURVE SMOOTH",
"424 244 OFFCURVE",
"466 189 OFFCURVE",
"571 149 CURVE SMOOTH",
"624 129 OFFCURVE",
"691 112 OFFCURVE",
"770 112 CURVE SMOOTH",
"849 112 OFFCURVE",
"934 132 OFFCURVE",
"994 163 CURVE SMOOTH",
"1102 219 OFFCURVE",
"1132 313 OFFCURVE",
"1132 428 CURVE SMOOTH",
"1132 500 LINE",
"743 500 LINE",
"743 642 LINE",
"1288 642 LINE",
"1288 5 LINE",
"1177 5 LINE",
"1162 186 LINE",
"1105 78 OFFCURVE",
"1048 30 OFFCURVE",
"917 -7 CURVE SMOOTH",
"874 -19 OFFCURVE",
"825 -21 OFFCURVE",
"770 -21 CURVE SMOOTH",
"651 -21 OFFCURVE",
"558 3 OFFCURVE",
"491 32 CURVE SMOOTH",
"355 91 OFFCURVE",
"288 172 OFFCURVE",
"243 315 CURVE SMOOTH",
"215 404 OFFCURVE",
"194 512 OFFCURVE",
"194 637 CURVE SMOOTH"
);
},
{
closed = 1;
nodes = (
"819 1606 LINE",
"819 -295 LINE",
"683 -295 LINE",
"683 1606 LINE"
);
}
);
width = 1444;
}
);
unicode = 20B2;
},
{
glyphname = kip;
layers = (
{
guideLines = (
{
angle = 180;
position = "{1400, 1338}";
}
);
layerId = "2F8B9CD4-7B7F-4ACC-ADF3-B6E0F7033A19";
paths = (
{
closed = 1;
nodes = (
"340 763 LINE",
"340 1323 LINE",
"182 1323 LINE",
"182 2 LINE",
"340 2 LINE",
"340 632 LINE",
"634 633 LINE SMOOTH",
"752 633 OFFCURVE",
"796 622 OFFCURVE",
"847 589 CURVE SMOOTH",
"909 549 OFFCURVE",
"908 494 OFFCURVE",
"922 382 CURVE SMOOTH",
"969 2 LINE",
"1130 0 LINE",
"1084 370 LINE SMOOTH",
"1068 495 OFFCURVE",
"1058 561 OFFCURVE",
"1013 613 CURVE SMOOTH",
"984 647 OFFCURVE",
"925 680 OFFCURVE",
"852 699 CURVE",
"920 716 OFFCURVE",
"964 750 OFFCURVE",
"995 783 CURVE SMOOTH",
"1042 834 OFFCURVE",
"1067 901 OFFCURVE",
"1067 1027 CURVE SMOOTH",
"1067 1324 LINE",
"906 1322 LINE",
"906 1014 LINE SMOOTH",
"906 902 OFFCURVE",
"887 850 OFFCURVE",
"821 808 CURVE SMOOTH",
"771 776 OFFCURVE",
"732 763 OFFCURVE",
"672 763 CURVE SMOOTH"
);
},
{
closed = 1;
nodes = (
"25 632 LINE",
"1309 632 LINE",
"1309 764 LINE",
"25 764 LINE"
);
}
);
width = 1327;
}
);
unicode = 20AD;
},
{
glyphname = lira;
layers = (
{
layerId = "2F8B9CD4-7B7F-4ACC-ADF3-B6E0F7033A19";
paths = (
{
closed = 1;
nodes = (
"67 461 LINE",
"241 461 LINE",
"237 401 LINE SMOOTH",
"232 330 OFFCURVE",
"230 266 OFFCURVE",
"207 212 CURVE SMOOTH",
"184 158 OFFCURVE",
"142 116 OFFCURVE",
"73 96 CURVE",
"104 -9 LINE",
"189 6 OFFCURVE",
"246 16 OFFCURVE",
"287 22 CURVE SMOOTH",
"328 28 OFFCURVE",
"355 30 OFFCURVE",
"382 30 CURVE SMOOTH",
"441 30 OFFCURVE",
"502 16 OFFCURVE",
"562 4 CURVE SMOOTH",
"622 -8 OFFCURVE",
"682 -23 OFFCURVE",
"739 -23 CURVE SMOOTH",
"842 -23 OFFCURVE",
"935 20 OFFCURVE",
"1016 64 CURVE",
"975 198 LINE",
"886 135 OFFCURVE",
"795 108 OFFCURVE",
"703 108 CURVE SMOOTH",
"659 108 OFFCURVE",
"613 118 OFFCURVE",
"569 127 CURVE SMOOTH",
"524 136 OFFCURVE",
"478 146 OFFCURVE",
"433 146 CURVE SMOOTH",
"391 146 OFFCURVE",
"342 137 OFFCURVE",
"307 125 CURVE",
"335 158 OFFCURVE",
"351 197 OFFCURVE",
"362 245 CURVE SMOOTH",
"371 283 OFFCURVE",
"385 380 OFFCURVE",
"385 461 CURVE",
"709 461 LINE",
"709 579 LINE",
"387 579 LINE",
"387 939 LINE SMOOTH",
"387 1115 OFFCURVE",
"394 1223 OFFCURVE",
"601 1223 CURVE SMOOTH",
"821 1223 OFFCURVE",
"808 1115 OFFCURVE",
"808 1011 CURVE",
"945 1011 LINE",
"945 1241 OFFCURVE",
"864 1350 OFFCURVE",
"601 1350 CURVE SMOOTH",
"312 1350 OFFCURVE",
"241 1183 OFFCURVE",
"241 931 CURVE SMOOTH",
"241 579 LINE",
"67 579 LINE"
);
},
{
closed = 1;
nodes = (
"67 685 LINE",
"709 685 LINE",
"709 803 LINE",
"67 803 LINE"
);
}
);
width = 1086;
}
);
unicode = 20A4;
},
{
glyphname = liraTurkish;
layers = (
{
guideLines = (
{
position = "{-105, 1314}";
}
);
layerId = "2F8B9CD4-7B7F-4ACC-ADF3-B6E0F7033A19";
paths = (
{
closed = 1;
nodes = (
"234 -1 LINE",
"383 -1 LINE",
"383 1314 LINE",
"234 1314 LINE"
);
},
{
closed = 1;
nodes = (
"566 0 LINE",
"858 0 OFFCURVE",
"928 143 OFFCURVE",
"928 390 CURVE SMOOTH",
"928 633 LINE",
"792 633 LINE",
"792 436 LINE SMOOTH",
"792 179 OFFCURVE",
"747 133 OFFCURVE",
"566 133 CURVE",
"373 131 LINE",
"373 -1 LINE"
);
},
{
closed = 1;
nodes = (
"101 565 LINE",
"692 817 LINE",
"692 943 LINE",
"101 691 LINE"
);
},
{
closed = 1;
nodes = (
"101 799 LINE",
"692 1051 LINE",
"692 1176 LINE",
"101 924 LINE"
);
}
);
width = 1047;
}
);
unicode = 20BA;
},
{
glyphname = manat;
layers = (
{
guideLines = (
{
position = "{962, 1305}";
}
);
layerId = "2F8B9CD4-7B7F-4ACC-ADF3-B6E0F7033A19";
paths = (
{
closed = 1;
nodes = (
"1131 -3 LINE",
"1131 583 LINE SMOOTH",
"1131 1089 OFFCURVE",
"1095 1157 OFFCURVE",
"680 1157 CURVE SMOOTH",
"256 1157 OFFCURVE",
"220 1089 OFFCURVE",
"220 583 CURVE SMOOTH",
"220 -3 LINE",
"62 -3 LINE",
"62 583 LINE SMOOTH",
"62 1241 OFFCURVE",
"216 1317 OFFCURVE",
"680 1317 CURVE SMOOTH",
"1134 1317 OFFCURVE",
"1281 1241 OFFCURVE",
"1281 583 CURVE SMOOTH",
"1281 -3 LINE"
);
},
{
closed = 1;
nodes = (
"756 1535 LINE",
"756 180 LINE",
"596 180 LINE",
"596 1535 LINE"
);
}
);
width = 1333;
}
);
unicode = 20BC;
},
{
glyphname = naira;
layers = (
{
guideLines = (
{
position = "{1358, 1297}";
}
);
layerId = "2F8B9CD4-7B7F-4ACC-ADF3-B6E0F7033A19";
paths = (
{
closed = 1;
nodes = (
"429 4 LINE",
"420 1152 LINE",
"449 1152 LINE",
"963 4 LINE",
"1202 4 LINE",
"1202 1292 LINE",
"1063 1292 LINE",
"1063 158 LINE",
"1035 158 LINE",
"534 1292 LINE",
"289 1292 LINE",
"289 4 LINE"
);
},
{
closed = 1;
nodes = (
"90 722 LINE",
"1398 722 LINE",
"1398 836 LINE",
"90 836 LINE"
);
},
{
closed = 1;
nodes = (
"90 495 LINE",
"1398 495 LINE",
"1398 610 LINE",
"90 610 LINE"
);
}
);
width = 1488;
}
);
unicode = 20A6;
},
{
glyphname = peseta;
layers = (
{
guideLines = (
{
position = "{1538, 1335}";
}
);
layerId = "2F8B9CD4-7B7F-4ACC-ADF3-B6E0F7033A19";
paths = (
{
closed = 1;
nodes = (
"529 0 LINE",
"529 537 LINE",
"813 537 LINE SMOOTH",
"1034 537 OFFCURVE",
"1192 575 OFFCURVE",
"1253 697 CURVE SMOOTH",
"1277 745 OFFCURVE",
"1296 832 OFFCURVE",
"1296 930 CURVE SMOOTH",
"1296 1013 OFFCURVE",
"1281 1102 OFFCURVE",
"1260 1150 CURVE SMOOTH",
"1193 1303 OFFCURVE",
"1022 1327 OFFCURVE",
"772 1327 CURVE SMOOTH",
"368 1327 LINE",
"368 0 LINE"
);
},
{
closed = 1;
nodes = (
"1042 687 OFFCURVE",
"992 672 OFFCURVE",
"772 672 CURVE SMOOTH",
"529 672 LINE",
"529 1196 LINE",
"772 1196 LINE SMOOTH",
"992 1196 OFFCURVE",
"1042 1181 OFFCURVE",
"1086 1137 CURVE SMOOTH",
"1127 1096 OFFCURVE",
"1144 1034 OFFCURVE",
"1144 930 CURVE SMOOTH",
"1144 835 OFFCURVE",
"1130 773 OFFCURVE",
"1086 732 CURVE"
);
},
{
closed = 1;
nodes = (
"162 871 LINE",
"1520 871 LINE",
"1520 1000 LINE",
"162 1000 LINE"
);
}
);
width = 1560;
}
);
unicode = 20A7;
},
{
glyphname = peso;
layers = (
{
layerId = "2F8B9CD4-7B7F-4ACC-ADF3-B6E0F7033A19";
paths = (
{
closed = 1;
nodes = (
"407 0 LINE",
"407 537 LINE",
"691 537 LINE SMOOTH",
"912 537 OFFCURVE",
"1070 575 OFFCURVE",
"1131 697 CURVE SMOOTH",
"1155 745 OFFCURVE",
"1174 832 OFFCURVE",
"1174 930 CURVE SMOOTH",
"1174 1013 OFFCURVE",
"1159 1102 OFFCURVE",
"1138 1150 CURVE SMOOTH",
"1071 1303 OFFCURVE",
"900 1327 OFFCURVE",
"650 1327 CURVE SMOOTH",
"246 1327 LINE",
"246 0 LINE"
);
},
{
closed = 1;
nodes = (
"920 687 OFFCURVE",
"870 672 OFFCURVE",
"650 672 CURVE SMOOTH",
"407 672 LINE",
"407 1196 LINE",
"650 1196 LINE SMOOTH",
"870 1196 OFFCURVE",
"920 1181 OFFCURVE",
"964 1137 CURVE SMOOTH",
"1005 1096 OFFCURVE",
"1022 1034 OFFCURVE",
"1022 930 CURVE SMOOTH",
"1022 835 OFFCURVE",
"1008 773 OFFCURVE",
"964 732 CURVE"
);
},
{
closed = 1;
nodes = (
"35 973 LINE",
"1393 973 LINE",
"1393 1082 LINE",
"35 1082 LINE"
);
},
{
closed = 1;
nodes = (
"35 770 LINE",
"1393 770 LINE",
"1393 878 LINE",
"35 878 LINE"
);
}
);
width = 1448;
}
);
unicode = 20B1;
},
{
glyphname = ruble;
layers = (
{
layerId = "2F8B9CD4-7B7F-4ACC-ADF3-B6E0F7033A19";
paths = (
{
closed = 1;
nodes = (
"397 0 LINE",
"397 537 LINE",
"681 537 LINE SMOOTH",
"902 537 OFFCURVE",
"1060 575 OFFCURVE",
"1121 697 CURVE SMOOTH",
"1145 745 OFFCURVE",
"1164 832 OFFCURVE",
"1164 930 CURVE SMOOTH",
"1164 1013 OFFCURVE",
"1149 1102 OFFCURVE",
"1128 1150 CURVE SMOOTH",
"1061 1303 OFFCURVE",
"890 1327 OFFCURVE",
"640 1327 CURVE SMOOTH",
"236 1327 LINE",
"236 0 LINE"
);
},
{
closed = 1;
nodes = (
"910 687 OFFCURVE",
"860 672 OFFCURVE",
"640 672 CURVE SMOOTH",
"397 672 LINE",
"397 1196 LINE",
"640 1196 LINE SMOOTH",
"860 1196 OFFCURVE",
"910 1181 OFFCURVE",
"954 1137 CURVE SMOOTH",
"995 1096 OFFCURVE",
"1012 1034 OFFCURVE",
"1012 930 CURVE SMOOTH",
"1012 835 OFFCURVE",
"998 773 OFFCURVE",
"954 732 CURVE"
);
},
{
closed = 1;
nodes = (
"45 275 LINE",
"883 275 LINE",
"883 404 LINE",
"45 404 LINE"
);
},
{
closed = 1;
nodes = (
"45 537 LINE",
"681 537 LINE",
"681 671 LINE",
"45 671 LINE"
);
}
);
width = 600;
}
);
unicode = 20BD;
},
{
glyphname = rupeeIndian;
layers = (
{
layerId = "2F8B9CD4-7B7F-4ACC-ADF3-B6E0F7033A19";
paths = (
{
closed = 1;
nodes = (
"544 639 LINE SMOOTH",
"671 639 OFFCURVE",
"719 627 OFFCURVE",
"773 590 CURVE SMOOTH",
"839 545 OFFCURVE",
"841 487 OFFCURVE",
"855 365 CURVE SMOOTH",
"898 0 LINE",
"1074 0 LINE",
"1030 361 LINE SMOOTH",
"1013 498 OFFCURVE",
"1004 571 OFFCURVE",
"954 627 CURVE SMOOTH",
"921 664 OFFCURVE",
"859 696 OFFCURVE",
"780 716 CURVE",
"859 735 OFFCURVE",
"921 775 OFFCURVE",
"954 811 CURVE SMOOTH",
"1006 868 OFFCURVE",
"1029 954 OFFCURVE",
"1029 1040 CURVE SMOOTH",
"1029 1120 OFFCURVE",
"1013 1197 OFFCURVE",
"990 1249 CURVE SMOOTH",
"941 1361 OFFCURVE",
"853 1400 OFFCURVE",
"758 1420 CURVE SMOOTH",
"679 1437 OFFCURVE",
"597 1441 OFFCURVE",
"427 1441 CURVE SMOOTH",
"249 1441 LINE",
"249 1293 LINE",
"493 1293 LINE SMOOTH",
"640 1293 OFFCURVE",
"726 1291 OFFCURVE",
"788 1244 CURVE",
"835 1203 OFFCURVE",
"861 1151 OFFCURVE",
"861 1040 CURVE SMOOTH",
"861 965 OFFCURVE",
"845 898 OFFCURVE",
"798 853 CURVE",
"732 783 OFFCURVE",
"625 785 OFFCURVE",
"463 785 CURVE SMOOTH",
"249 785 LINE",
"249 639 LINE"
);
},
{
closed = 1;
nodes = (
"251 970 LINE",
"1241 970 LINE",
"1241 1118 LINE",
"251 1118 LINE"
);
},
{
closed = 1;
nodes = (
"249 1293 LINE",
"1239 1293 LINE",
"1239 1441 LINE",
"249 1441 LINE"
);
}
);
width = 1204;
}
);
unicode = 20B9;
},
{
color = 4;
glyphname = sterling;
layers = (
{
layerId = "2F8B9CD4-7B7F-4ACC-ADF3-B6E0F7033A19";
paths = (
{
closed = 1;
nodes = (
"107 591 LINE",
"281 591 LINE",
"277 401 LINE SMOOTH",
"276 330 OFFCURVE",
"270 266 OFFCURVE",
"247 212 CURVE SMOOTH",
"224 158 OFFCURVE",
"182 116 OFFCURVE",
"113 96 CURVE",
"144 -9 LINE",
"229 6 OFFCURVE",
"286 16 OFFCURVE",
"327 22 CURVE SMOOTH",
"368 28 OFFCURVE",
"395 30 OFFCURVE",
"422 30 CURVE SMOOTH",
"481 30 OFFCURVE",
"542 16 OFFCURVE",
"602 4 CURVE SMOOTH",
"662 -8 OFFCURVE",
"722 -23 OFFCURVE",
"779 -23 CURVE SMOOTH",
"882 -23 OFFCURVE",
"975 20 OFFCURVE",
"1056 64 CURVE",
"1015 198 LINE",
"926 135 OFFCURVE",
"835 108 OFFCURVE",
"743 108 CURVE SMOOTH",
"699 108 OFFCURVE",
"653 118 OFFCURVE",
"609 127 CURVE SMOOTH",
"564 136 OFFCURVE",
"518 146 OFFCURVE",
"473 146 CURVE SMOOTH",
"431 146 OFFCURVE",
"382 137 OFFCURVE",
"347 125 CURVE",
"375 158 OFFCURVE",
"391 197 OFFCURVE",
"402 245 CURVE SMOOTH",
"413 292 OFFCURVE",
"417 347 OFFCURVE",
"419 414 CURVE SMOOTH",
"425 591 LINE",
"749 591 LINE",
"749 709 LINE",
"427 709 LINE",
"427 939 LINE SMOOTH",
"427 1115 OFFCURVE",
"434 1223 OFFCURVE",
"641 1223 CURVE SMOOTH",
"861 1223 OFFCURVE",
"848 1115 OFFCURVE",
"848 1011 CURVE",
"985 1011 LINE",
"985 1241 OFFCURVE",
"904 1350 OFFCURVE",
"641 1350 CURVE SMOOTH",
"352 1350 OFFCURVE",
"281 1183 OFFCURVE",
"281 931 CURVE SMOOTH",
"281 709 LINE",
"107 709 LINE"
);
}
);
width = 1130;
}
);
note = sterling;
unicode = 00A3;
},
{
glyphname = won;
layers = (
{
guideLines = (
{
position = "{1367, 1308}";
}
);
layerId = "2F8B9CD4-7B7F-4ACC-ADF3-B6E0F7033A19";
paths = (
{
closed = 1;
nodes = (
"481 3 LINE",
"675 3 LINE",
"880 1125 LINE",
"912 1125 LINE",
"1108 3 LINE",
"1302 3 LINE",
"1622 1312 LINE",
"1473 1312 LINE",
"1223 179 LINE",
"1197 179 LINE",
"1012 1312 LINE",
"781 1312 LINE",
"588 180 LINE",
"562 180 LINE",
"311 1312 LINE",
"162 1312 LINE"
);
},
{
closed = 1;
nodes = (
"70 795 LINE",
"1713 795 LINE",
"1713 922 LINE",
"70 922 LINE"
);
},
{
closed = 1;
nodes = (
"70 558 LINE",
"1713 558 LINE",
"1713 686 LINE",
"70 686 LINE"
);
}
);
width = 1783;
}
);
unicode = 20A9;
},
{
color = 4;
glyphname = yen;
layers = (
{
layerId = "2F8B9CD4-7B7F-4ACC-ADF3-B6E0F7033A19";
paths = (
{
closed = 1;
nodes = (
"970 497 LINE",
"675 497 LINE",
"675 540 LINE",
"715 606 LINE",
"970 606 LINE",
"970 715 LINE",
"782 715 LINE",
"1149 1328 LINE",
"986 1328 LINE",
"671 784 LINE",
"611 666 LINE",
"601 666 LINE",
"538 784 LINE",
"220 1328 LINE",
"60 1328 LINE",
"425 715 LINE",
"237 715 LINE",
"237 606 LINE",
"491 606 LINE",
"532 540 LINE",
"532 497 LINE",
"237 497 LINE",
"237 386 LINE",
"532 386 LINE",
"532 0 LINE",
"675 0 LINE",
"675 386 LINE",
"970 386 LINE"
);
}
);
width = 1209;
}
);
note = yen;
unicode = 00A5;
},
{
glyphname = bulletoperator;
layers = (
{
layerId = "2F8B9CD4-7B7F-4ACC-ADF3-B6E0F7033A19";
paths = (
{
closed = 1;
nodes = (
"597 380 OFFCURVE",
"527 299 OFFCURVE",
"309 299 CURVE",
"92 299 OFFCURVE",
"-2 380 OFFCURVE",
"-2 592 CURVE",
"-2 802 OFFCURVE",
"92 885 OFFCURVE",
"309 885 CURVE",
"527 885 OFFCURVE",
"597 802 OFFCURVE",
"597 592 CURVE"
);
}
);
width = 600;
}
);
unicode = 2219;
},
{
glyphname = commercialMinusSign;
layers = (
{
layerId = "2F8B9CD4-7B7F-4ACC-ADF3-B6E0F7033A19";
paths = (
{
closed = 1;
nodes = (
"211 -171 LINE",
"609 1597 LINE",
"492 1624 LINE",
"96 -143 LINE"
);
},
{
closed = 1;
nodes = (
"686 28 OFFCURVE",
"660 -2 OFFCURVE",
"579 -2 CURVE",
"498 -2 OFFCURVE",
"463 28 OFFCURVE",
"463 107 CURVE",
"463 185 OFFCURVE",
"498 216 OFFCURVE",
"579 216 CURVE",
"660 216 OFFCURVE",
"686 185 OFFCURVE",
"686 107 CURVE"
);
},
{
closed = 1;
nodes = (
"243 1256 OFFCURVE",
"217 1226 OFFCURVE",
"136 1226 CURVE",
"55 1226 OFFCURVE",
"20 1256 OFFCURVE",
"20 1335 CURVE",
"20 1413 OFFCURVE",
"55 1444 OFFCURVE",
"136 1444 CURVE",
"217 1444 OFFCURVE",
"243 1413 OFFCURVE",
"243 1335 CURVE"
);
}
);
width = 600;
}
);
unicode = 2052;
},
{
color = 4;
glyphname = plus;
layers = (
{
layerId = "2F8B9CD4-7B7F-4ACC-ADF3-B6E0F7033A19";
paths = (
{
closed = 1;
nodes = (
"834 684 LINE",
"548 684 LINE",
"548 961 LINE",
"401 961 LINE",
"401 684 LINE",
"109 684 LINE",
"109 562 LINE",
"401 562 LINE",
"401 283 LINE",
"548 283 LINE",
"548 562 LINE",
"834 562 LINE"
);
}
);
width = 942;
}
);
note = plus;
unicode = 002B;
},
{
color = 4;
glyphname = minus;
layers = (
{
layerId = "2F8B9CD4-7B7F-4ACC-ADF3-B6E0F7033A19";
paths = (
{
closed = 1;
nodes = (
"906 683 LINE",
"153 683 LINE",
"153 562 LINE",
"906 562 LINE"
);
}
);
width = 1060;
}
);
note = minus;
unicode = 2212;
},
{
color = 4;
glyphname = multiply;
layers = (
{
layerId = "2F8B9CD4-7B7F-4ACC-ADF3-B6E0F7033A19";
paths = (
{
closed = 1;
nodes = (
"646 930 LINE",
"446 729 LINE",
"245 930 LINE",
"143 829 LINE",
"343 629 LINE",
"143 428 LINE",
"245 328 LINE",
"446 528 LINE",
"646 328 LINE",
"749 428 LINE",
"548 629 LINE",
"749 829 LINE"
);
}
);
width = 892;
}
);
note = multiply;
unicode = 00D7;
},
{
color = 4;
glyphname = divide;
layers = (
{
components = (
{
name = minus;
transform = "{1, 0, 0, 1, -25, 0}";
}
);
layerId = "2F8B9CD4-7B7F-4ACC-ADF3-B6E0F7033A19";
paths = (
{
closed = 1;
nodes = (
"611 233 LINE",
"611 454 LINE",
"400 454 LINE",
"400 233 LINE"
);
},
{
closed = 1;
nodes = (
"611 792 LINE",
"611 1013 LINE",
"400 1013 LINE",
"400 792 LINE"
);
}
);
width = 1006;
}
);
note = divide;
unicode = 00F7;
},
{
color = 4;
glyphname = equal;
layers = (
{
layerId = "2F8B9CD4-7B7F-4ACC-ADF3-B6E0F7033A19";
paths = (
{
closed = 1;
nodes = (
"886 557 LINE",
"153 557 LINE",
"153 436 LINE",
"886 436 LINE"
);
},
{
closed = 1;
nodes = (
"886 817 LINE",
"153 817 LINE",
"153 698 LINE",
"886 698 LINE"
);
}
);
width = 1039;
}
);
note = equal;
unicode = 003D;
},
{
color = 4;
glyphname = notequal;
layers = (
{
layerId = "2F8B9CD4-7B7F-4ACC-ADF3-B6E0F7033A19";
paths = (
{
closed = 1;
nodes = (
"899 1176 LINE",
"764 901 LINE",
"141 901 LINE",
"141 781 LINE",
"719 781 LINE",
"551 444 LINE",
"141 444 LINE",
"141 322 LINE",
"504 322 LINE",
"385 82 LINE",
"507 41 LINE",
"646 322 LINE",
"1292 322 LINE",
"1292 444 LINE",
"691 444 LINE",
"863 781 LINE",
"1292 781 LINE",
"1292 901 LINE",
"906 901 LINE",
"1023 1125 LINE"
);
}
);
width = 1433;
}
);
note = notequal;
unicode = 2260;
},
{
color = 4;
glyphname = greater;
layers = (
{
layerId = "2F8B9CD4-7B7F-4ACC-ADF3-B6E0F7033A19";
paths = (
{
closed = 1;
nodes = (
"186 1126 LINE",
"106 1016 LINE",
"820 592 LINE",
"106 170 LINE",
"186 59 LINE",
"1009 551 LINE",
"1009 637 LINE"
);
}
);
width = 1073;
}
);
note = greater;
unicode = 003E;
},
{
color = 4;
glyphname = less;
layers = (
{
layerId = "2F8B9CD4-7B7F-4ACC-ADF3-B6E0F7033A19";
paths = (
{
closed = 1;
nodes = (
"63 551 LINE",
"886 59 LINE",
"966 170 LINE",
"252 592 LINE",
"966 1016 LINE",
"886 1126 LINE",
"63 637 LINE"
);
}
);
width = 1072;
}
);
note = less;
unicode = 003C;
},
{
color = 4;
glyphname = greaterequal;
layers = (
{
layerId = "2F8B9CD4-7B7F-4ACC-ADF3-B6E0F7033A19";
paths = (
{
closed = 1;
nodes = (
"139 1211 LINE",
"1149 764 LINE",
"1139 760 LINE",
"139 311 LINE",
"139 182 LINE",
"1268 697 LINE",
"1268 825 LINE",
"139 1341 LINE"
);
},
{
closed = 1;
nodes = (
"1268 86 LINE",
"139 86 LINE",
"139 -24 LINE",
"1268 -24 LINE"
);
}
);
width = 1385;
}
);
note = greaterequal;
unicode = 2265;
},
{
color = 4;
glyphname = lessequal;
layers = (
{
layerId = "2F8B9CD4-7B7F-4ACC-ADF3-B6E0F7033A19";
paths = (
{
closed = 1;
nodes = (
"139 825 LINE",
"139 697 LINE",
"1268 182 LINE",
"1268 311 LINE",
"268 760 LINE",
"258 764 LINE",
"1268 1211 LINE",
"1268 1341 LINE"
);
},
{
closed = 1;
nodes = (
"1268 -24 LINE",
"1268 86 LINE",
"139 86 LINE",
"139 -24 LINE"
);
}
);
width = 1389;
}
);
note = lessequal;
unicode = 2264;
},
{
color = 4;
glyphname = plusminus;
layers = (
{
layerId = "2F8B9CD4-7B7F-4ACC-ADF3-B6E0F7033A19";
paths = (
{
closed = 1;
nodes = (
"564 764 LINE",
"144 764 LINE",
"144 610 LINE",
"564 610 LINE",
"564 299 LINE",
"718 299 LINE",
"718 610 LINE",
"1136 610 LINE",
"1136 764 LINE",
"718 764 LINE",
"718 1075 LINE",
"564 1075 LINE"
);
},
{
closed = 1;
nodes = (
"1136 20 LINE",
"1136 174 LINE",
"144 174 LINE",
"144 20 LINE"
);
}
);
width = 1280;
}
);
note = plusminus;
unicode = 00B1;
},
{
color = 4;
glyphname = approxequal;
layers = (
{
layerId = "2F8B9CD4-7B7F-4ACC-ADF3-B6E0F7033A19";
paths = (
{
closed = 1;
nodes = (
"1200 808 OFFCURVE",
"1165 764 OFFCURVE",
"1126 736 CURVE SMOOTH",
"1087 708 OFFCURVE",
"1044 694 OFFCURVE",
"995 694 CURVE SMOOTH",
"974 694 OFFCURVE",
"954 696 OFFCURVE",
"936 700 CURVE SMOOTH",
"900 708 OFFCURVE",
"867 721 OFFCURVE",
"835 738 CURVE",
"818 746 OFFCURVE",
"801 754 OFFCURVE",
"784 763 CURVE SMOOTH",
"758 777 OFFCURVE",
"733 789 OFFCURVE",
"710 802 CURVE SMOOTH",
"686 815 OFFCURVE",
"662 826 OFFCURVE",
"638 837 CURVE SMOOTH",
"590 859 OFFCURVE",
"541 873 OFFCURVE",
"486 873 CURVE SMOOTH",
"345 873 OFFCURVE",
"226 789 OFFCURVE",
"147 652 CURVE",
"221 572 LINE",
"253 617 OFFCURVE",
"287 662 OFFCURVE",
"327 695 CURVE SMOOTH",
"367 728 OFFCURVE",
"413 749 OFFCURVE",
"469 749 CURVE SMOOTH",
"494 749 OFFCURVE",
"517 746 OFFCURVE",
"539 740 CURVE SMOOTH",
"582 728 OFFCURVE",
"622 710 OFFCURVE",
"663 688 CURVE SMOOTH",
"683 677 OFFCURVE",
"704 666 OFFCURVE",
"726 657 CURVE",
"726 658 LINE",
"779 630 OFFCURVE",
"822 609 OFFCURVE",
"863 594 CURVE SMOOTH",
"904 578 OFFCURVE",
"945 570 OFFCURVE",
"993 570 CURVE SMOOTH",
"1068 570 OFFCURVE",
"1129 594 OFFCURVE",
"1181 633 CURVE SMOOTH",
"1232 672 OFFCURVE",
"1273 727 OFFCURVE",
"1309 787 CURVE",
"1237 868 LINE"
);
},
{
closed = 1;
nodes = (
"1220 448 OFFCURVE",
"1185 404 OFFCURVE",
"1146 376 CURVE SMOOTH",
"1107 348 OFFCURVE",
"1064 334 OFFCURVE",
"1015 334 CURVE SMOOTH",
"994 334 OFFCURVE",
"974 336 OFFCURVE",
"956 340 CURVE SMOOTH",
"920 348 OFFCURVE",
"887 361 OFFCURVE",
"855 378 CURVE",
"838 386 OFFCURVE",
"821 394 OFFCURVE",
"804 403 CURVE SMOOTH",
"778 417 OFFCURVE",
"753 429 OFFCURVE",
"730 442 CURVE SMOOTH",
"706 455 OFFCURVE",
"682 466 OFFCURVE",
"658 477 CURVE SMOOTH",
"610 499 OFFCURVE",
"561 513 OFFCURVE",
"506 513 CURVE SMOOTH",
"365 513 OFFCURVE",
"246 429 OFFCURVE",
"167 292 CURVE",
"241 212 LINE",
"273 257 OFFCURVE",
"307 302 OFFCURVE",
"347 335 CURVE SMOOTH",
"387 368 OFFCURVE",
"433 389 OFFCURVE",
"489 389 CURVE SMOOTH",
"514 389 OFFCURVE",
"537 386 OFFCURVE",
"559 380 CURVE SMOOTH",
"602 368 OFFCURVE",
"642 350 OFFCURVE",
"683 328 CURVE SMOOTH",
"703 317 OFFCURVE",
"724 306 OFFCURVE",
"746 297 CURVE",
"746 298 LINE",
"799 270 OFFCURVE",
"842 249 OFFCURVE",
"883 234 CURVE SMOOTH",
"924 219 OFFCURVE",
"965 210 OFFCURVE",
"1013 210 CURVE SMOOTH",
"1088 210 OFFCURVE",
"1149 234 OFFCURVE",
"1201 273 CURVE SMOOTH",
"1252 312 OFFCURVE",
"1293 367 OFFCURVE",
"1329 427 CURVE",
"1257 508 LINE"
);
}
);
width = 1453;
}
);
note = approxequal;
unicode = 2248;
},
{
color = 4;
glyphname = asciitilde;
layers = (
{
layerId = "2F8B9CD4-7B7F-4ACC-ADF3-B6E0F7033A19";
paths = (
{
closed = 1;
nodes = (
"243 534 OFFCURVE",
"260 567 OFFCURVE",
"282 591 CURVE SMOOTH",
"304 615 OFFCURVE",
"329 629 OFFCURVE",
"364 629 CURVE SMOOTH",
"378 629 OFFCURVE",
"395 625 OFFCURVE",
"415 617 CURVE SMOOTH",
"454 601 OFFCURVE",
"501 576 OFFCURVE",
"552 548 CURVE",
"577 533 OFFCURVE",
"603 520 OFFCURVE",
"630 508 CURVE SMOOTH",
"682 484 OFFCURVE",
"734 466 OFFCURVE",
"782 466 CURVE SMOOTH",
"861 466 OFFCURVE",
"918 497 OFFCURVE",
"958 541 CURVE SMOOTH",
"998 585 OFFCURVE",
"1021 641 OFFCURVE",
"1030 692 CURVE",
"919 748 LINE",
"904 712 OFFCURVE",
"892 679 OFFCURVE",
"873 656 CURVE SMOOTH",
"853 632 OFFCURVE",
"827 618 OFFCURVE",
"787 618 CURVE SMOOTH",
"770 618 OFFCURVE",
"752 622 OFFCURVE",
"732 631 CURVE SMOOTH",
"691 648 OFFCURVE",
"644 675 OFFCURVE",
"594 705 CURVE SMOOTH",
"569 720 OFFCURVE",
"543 733 OFFCURVE",
"517 746 CURVE SMOOTH",
"464 771 OFFCURVE",
"410 791 OFFCURVE",
"358 791 CURVE SMOOTH",
"281 791 OFFCURVE",
"227 755 OFFCURVE",
"188 707 CURVE SMOOTH",
"149 659 OFFCURVE",
"128 598 OFFCURVE",
"116 547 CURVE",
"227 494 LINE"
);
}
);
width = 1142;
}
);
note = asciitilde;
unicode = 007E;
},
{
color = 4;
glyphname = logicalnot;
layers = (
{
layerId = "2F8B9CD4-7B7F-4ACC-ADF3-B6E0F7033A19";
paths = (
{
closed = 1;
nodes = (
"1229 653 LINE",
"153 653 LINE",
"153 532 LINE",
"1108 532 LINE",
"1108 0 LINE",
"1229 0 LINE"
);
}
);
width = 1388;
}
);
note = logicalnot;
unicode = 00AC;
},
{
color = 4;
glyphname = infinity;
layers = (
{
layerId = "2F8B9CD4-7B7F-4ACC-ADF3-B6E0F7033A19";
paths = (
{
closed = 1;
nodes = (
"1740 728 OFFCURVE",
"1707 818 OFFCURVE",
"1647 882 CURVE SMOOTH",
"1587 945 OFFCURVE",
"1501 982 OFFCURVE",
"1397 983 CURVE SMOOTH",
"1298 983 OFFCURVE",
"1219 947 OFFCURVE",
"1148 892 CURVE SMOOTH",
"1076 837 OFFCURVE",
"1013 765 OFFCURVE",
"949 694 CURVE",
"885 767 OFFCURVE",
"819 840 OFFCURVE",
"747 894 CURVE SMOOTH",
"674 948 OFFCURVE",
"594 983 OFFCURVE",
"505 983 CURVE SMOOTH",
"400 983 OFFCURVE",
"308 944 OFFCURVE",
"242 878 CURVE SMOOTH",
"176 812 OFFCURVE",
"136 719 OFFCURVE",
"136 614 CURVE SMOOTH",
"136 513 OFFCURVE",
"176 422 OFFCURVE",
"240 357 CURVE SMOOTH",
"304 292 OFFCURVE",
"391 252 OFFCURVE",
"486 252 CURVE SMOOTH",
"585 252 OFFCURVE",
"667 289 OFFCURVE",
"740 343 CURVE SMOOTH",
"813 397 OFFCURVE",
"877 468 OFFCURVE",
"941 539 CURVE",
"1025 447 OFFCURVE",
"1097 375 OFFCURVE",
"1167 327 CURVE SMOOTH",
"1237 278 OFFCURVE",
"1305 252 OFFCURVE",
"1381 252 CURVE SMOOTH",
"1473 252 OFFCURVE",
"1562 288 OFFCURVE",
"1630 352 CURVE SMOOTH",
"1697 416 OFFCURVE",
"1740 508 OFFCURVE",
"1740 621 CURVE SMOOTH",
"1740 623 LINE SMOOTH"
);
},
{
closed = 1;
nodes = (
"431 371 OFFCURVE",
"371 398 OFFCURVE",
"329 441 CURVE SMOOTH",
"287 485 OFFCURVE",
"264 544 OFFCURVE",
"264 610 CURVE",
"263 678 OFFCURVE",
"285 742 OFFCURVE",
"324 789 CURVE SMOOTH",
"363 836 OFFCURVE",
"418 867 OFFCURVE",
"489 867 CURVE SMOOTH",
"570 867 OFFCURVE",
"638 832 OFFCURVE",
"697 783 CURVE SMOOTH",
"756 734 OFFCURVE",
"807 669 OFFCURVE",
"857 610 CURVE",
"796 541 OFFCURVE",
"789 531 OFFCURVE",
"702 455 CURVE SMOOTH",
"644 405 OFFCURVE",
"578 371 OFFCURVE",
"506 371 CURVE SMOOTH",
"504 371 LINE SMOOTH"
);
},
{
closed = 1;
nodes = (
"1375 371 LINE SMOOTH",
"1303 371 OFFCURVE",
"1237 405 OFFCURVE",
"1179 455 CURVE SMOOTH",
"1092 530 OFFCURVE",
"1085 541 OFFCURVE",
"1024 610 CURVE",
"1074 669 OFFCURVE",
"1125 734 OFFCURVE",
"1184 783 CURVE SMOOTH",
"1243 832 OFFCURVE",
"1311 867 OFFCURVE",
"1392 867 CURVE SMOOTH",
"1463 867 OFFCURVE",
"1518 836 OFFCURVE",
"1557 789 CURVE SMOOTH",
"1596 742 OFFCURVE",
"1618 678 OFFCURVE",
"1617 610 CURVE",
"1617 544 OFFCURVE",
"1595 485 OFFCURVE",
"1552 441 CURVE SMOOTH",
"1510 398 OFFCURVE",
"1450 371 OFFCURVE",
"1377 371 CURVE SMOOTH"
);
}
);
width = 1877;
}
);
note = infinity;
unicode = 221E;
},
{
color = 4;
glyphname = integral;
layers = (
{
layerId = "2F8B9CD4-7B7F-4ACC-ADF3-B6E0F7033A19";
paths = (
{
closed = 1;
nodes = (
"305 175 LINE",
"305 -182 OFFCURVE",
"287 -248 OFFCURVE",
"51 -248 CURVE",
"45 -381 LINE",
"424 -381 OFFCURVE",
"451 -211 OFFCURVE",
"451 159 CURVE SMOOTH",
"451 749 LINE",
"451 1282 LINE",
"451 1639 OFFCURVE",
"469 1705 OFFCURVE",
"705 1705 CURVE",
"705 1838 LINE",
"332 1838 OFFCURVE",
"305 1668 OFFCURVE",
"305 1298 CURVE SMOOTH",
"305 749 LINE"
);
}
);
width = 778;
}
);
note = integral;
unicode = 222B;
},
{
color = 4;
glyphname = increment;
layers = (
{
layerId = "2F8B9CD4-7B7F-4ACC-ADF3-B6E0F7033A19";
paths = (
{
closed = 1;
nodes = (
"1540 0 LINE",
"1540 141 LINE",
"897 1438 LINE",
"711 1438 LINE",
"62 141 LINE",
"62 0 LINE"
);
},
{
closed = 1;
nodes = (
"800 1289 LINE",
"1348 155 LINE",
"242 155 LINE"
);
}
);
width = 1602;
}
);
note = Delta;
unicode = 2206;
},
{
color = 4;
glyphname = product;
layers = (
{
layerId = "2F8B9CD4-7B7F-4ACC-ADF3-B6E0F7033A19";
paths = (
{
closed = 1;
nodes = (
"1473 1440 LINE",
"65 1440 LINE",
"65 1305 LINE",
"351 1305 LINE",
"351 1 LINE",
"507 1 LINE",
"507 1305 LINE",
"1033 1305 LINE",
"1033 1 LINE",
"1187 1 LINE",
"1187 1305 LINE",
"1473 1305 LINE"
);
}
);
width = 1537;
}
);
note = product;
unicode = 220F;
},
{
color = 4;
glyphname = summation;
layers = (
{
layerId = "2F8B9CD4-7B7F-4ACC-ADF3-B6E0F7033A19";
paths = (
{
closed = 1;
nodes = (
"1030 139 LINE",
"294 139 LINE",
"824 733 LINE",
"294 1308 LINE",
"1030 1308 LINE",
"1030 1441 LINE",
"90 1441 LINE",
"90 1317 LINE",
"637 733 LINE",
"90 116 LINE",
"90 0 LINE",
"1030 0 LINE"
);
}
);
width = 1134;
}
);
note = summation;
unicode = 2211;
},
{
color = 4;
glyphname = radical;
layers = (
{
layerId = "2F8B9CD4-7B7F-4ACC-ADF3-B6E0F7033A19";
paths = (
{
closed = 1;
nodes = (
"1019 1439 LINE",
"735 338 LINE",
"684 115 LINE",
"613 338 LINE",
"343 1034 LINE",
"28 909 LINE",
"63 819 LINE",
"249 889 LINE",
"613 -23 LINE",
"780 -23 LINE",
"1164 1439 LINE"
);
}
);
width = 1181;
}
);
note = radical;
unicode = 221A;
},
{
glyphname = micro;
layers = (
{
guideLines = (
{
position = "{469, -215}";
}
);
layerId = "2F8B9CD4-7B7F-4ACC-ADF3-B6E0F7033A19";
paths = (
{
closed = 1;
nodes = (
"165 269 OFFCURVE",
"176 199 OFFCURVE",
"190 152 CURVE SMOOTH",
"211 82 OFFCURVE",
"245 43 OFFCURVE",
"324 10 CURVE SMOOTH",
"370 -9 OFFCURVE",
"439 -23 OFFCURVE",
"519 -23 CURVE SMOOTH",
"641 -23 OFFCURVE",
"714 4 OFFCURVE",
"769 41 CURVE SMOOTH",
"824 78 OFFCURVE",
"851 115 OFFCURVE",
"864 135 CURVE",
"877 0 LINE",
"1005 0 LINE",
"1005 1011 LINE",
"852 1011 LINE",
"852 422 LINE SMOOTH",
"852 250 OFFCURVE",
"815 183 OFFCURVE",
"721 137 CURVE SMOOTH",
"686 120 OFFCURVE",
"641 102 OFFCURVE",
"561 102 CURVE SMOOTH",
"497 102 OFFCURVE",
"443 113 OFFCURVE",
"412 128 CURVE SMOOTH",
"331 167 OFFCURVE",
"319 273 OFFCURVE",
"319 403 CURVE SMOOTH",
"319 1011 LINE",
"165 1011 LINE",
"165 376 LINE SMOOTH"
);
},
{
closed = 1;
nodes = (
"165 -265 LINE",
"319 -265 LINE",
"319 624 LINE",
"165 624 LINE"
);
}
);
width = 1164;
}
);
note = mu;
unicode = 00B5;
},
{
color = 4;
glyphname = percent;
layers = (
{
layerId = "2F8B9CD4-7B7F-4ACC-ADF3-B6E0F7033A19";
paths = (
{
closed = 1;
nodes = (
"241 1392 OFFCURVE",
"180 1358 OFFCURVE",
"133 1299 CURVE SMOOTH",
"85 1240 OFFCURVE",
"71 1157 OFFCURVE",
"71 1061 CURVE SMOOTH",
"71 965 OFFCURVE",
"85 883 OFFCURVE",
"133 825 CURVE SMOOTH",
"181 767 OFFCURVE",
"242 733 OFFCURVE",
"355 733 CURVE SMOOTH",
"467 733 OFFCURVE",
"526 767 OFFCURVE",
"574 826 CURVE SMOOTH",
"621 885 OFFCURVE",
"634 967 OFFCURVE",
"634 1063 CURVE SMOOTH",
"634 1159 OFFCURVE",
"621 1242 OFFCURVE",
"574 1300 CURVE SMOOTH",
"526 1358 OFFCURVE",
"466 1392 OFFCURVE",
"354 1392 CURVE SMOOTH"
);
},
{
closed = 1;
nodes = (
"433 1300 OFFCURVE",
"460 1271 OFFCURVE",
"482 1228 CURVE SMOOTH",
"504 1184 OFFCURVE",
"511 1117 OFFCURVE",
"511 1061 CURVE SMOOTH",
"511 1006 OFFCURVE",
"504 941 OFFCURVE",
"481 898 CURVE SMOOTH",
"458 854 OFFCURVE",
"431 825 OFFCURVE",
"354 825 CURVE SMOOTH",
"274 825 OFFCURVE",
"246 854 OFFCURVE",
"224 898 CURVE SMOOTH",
"202 942 OFFCURVE",
"194 1010 OFFCURVE",
"194 1069 CURVE SMOOTH",
"194 1120 OFFCURVE",
"202 1185 OFFCURVE",
"225 1228 CURVE SMOOTH",
"248 1271 OFFCURVE",
"275 1300 OFFCURVE",
"354 1300 CURVE SMOOTH"
);
},
{
closed = 1;
nodes = (
"517 -70 LINE",
"1092 1349 LINE",
"986 1390 LINE",
"410 -28 LINE"
);
},
{
closed = 1;
nodes = (
"1069 711 OFFCURVE",
"1008 677 OFFCURVE",
"961 618 CURVE SMOOTH",
"914 559 OFFCURVE",
"899 476 OFFCURVE",
"899 380 CURVE SMOOTH",
"899 284 OFFCURVE",
"913 202 OFFCURVE",
"961 144 CURVE SMOOTH",
"1009 86 OFFCURVE",
"1070 52 OFFCURVE",
"1183 52 CURVE SMOOTH",
"1295 52 OFFCURVE",
"1354 86 OFFCURVE",
"1402 145 CURVE SMOOTH",
"1450 204 OFFCURVE",
"1462 286 OFFCURVE",
"1462 382 CURVE SMOOTH",
"1462 478 OFFCURVE",
"1449 561 OFFCURVE",
"1402 619 CURVE SMOOTH",
"1355 677 OFFCURVE",
"1294 711 OFFCURVE",
"1182 711 CURVE SMOOTH"
);
},
{
closed = 1;
nodes = (
"1261 619 OFFCURVE",
"1288 590 OFFCURVE",
"1310 547 CURVE SMOOTH",
"1332 503 OFFCURVE",
"1339 436 OFFCURVE",
"1339 380 CURVE SMOOTH",
"1339 325 OFFCURVE",
"1332 260 OFFCURVE",
"1309 217 CURVE SMOOTH",
"1286 173 OFFCURVE",
"1259 144 OFFCURVE",
"1182 144 CURVE SMOOTH",
"1102 144 OFFCURVE",
"1074 173 OFFCURVE",
"1052 217 CURVE SMOOTH",
"1030 261 OFFCURVE",
"1022 329 OFFCURVE",
"1022 388 CURVE SMOOTH",
"1022 439 OFFCURVE",
"1030 504 OFFCURVE",
"1053 547 CURVE SMOOTH",
"1076 590 OFFCURVE",
"1103 619 OFFCURVE",
"1182 619 CURVE SMOOTH"
);
}
);
width = 1524;
}
);
note = percent;
unicode = 0025;
},
{
color = 4;
glyphname = perthousand;
layers = (
{
layerId = "2F8B9CD4-7B7F-4ACC-ADF3-B6E0F7033A19";
paths = (
{
closed = 1;
nodes = (
"517 -70 LINE",
"1092 1349 LINE",
"986 1390 LINE",
"410 -28 LINE"
);
},
{
closed = 1;
nodes = (
"241 1392 OFFCURVE",
"180 1358 OFFCURVE",
"133 1299 CURVE SMOOTH",
"85 1240 OFFCURVE",
"71 1157 OFFCURVE",
"71 1061 CURVE SMOOTH",
"71 965 OFFCURVE",
"85 883 OFFCURVE",
"133 825 CURVE SMOOTH",
"181 767 OFFCURVE",
"242 733 OFFCURVE",
"355 733 CURVE SMOOTH",
"467 733 OFFCURVE",
"526 767 OFFCURVE",
"574 826 CURVE SMOOTH",
"621 885 OFFCURVE",
"634 967 OFFCURVE",
"634 1063 CURVE SMOOTH",
"634 1159 OFFCURVE",
"621 1242 OFFCURVE",
"574 1300 CURVE SMOOTH",
"526 1358 OFFCURVE",
"466 1392 OFFCURVE",
"354 1392 CURVE SMOOTH"
);
},
{
closed = 1;
nodes = (
"433 1300 OFFCURVE",
"460 1271 OFFCURVE",
"482 1228 CURVE SMOOTH",
"504 1184 OFFCURVE",
"511 1117 OFFCURVE",
"511 1061 CURVE SMOOTH",
"511 1006 OFFCURVE",
"504 941 OFFCURVE",
"481 898 CURVE SMOOTH",
"458 854 OFFCURVE",
"431 825 OFFCURVE",
"354 825 CURVE SMOOTH",
"274 825 OFFCURVE",
"246 854 OFFCURVE",
"224 898 CURVE SMOOTH",
"202 942 OFFCURVE",
"194 1010 OFFCURVE",
"194 1069 CURVE SMOOTH",
"194 1120 OFFCURVE",
"202 1185 OFFCURVE",
"225 1228 CURVE SMOOTH",
"248 1271 OFFCURVE",
"275 1300 OFFCURVE",
"354 1300 CURVE SMOOTH"
);
},
{
closed = 1;
nodes = (
"1069 711 OFFCURVE",
"1008 677 OFFCURVE",
"961 618 CURVE SMOOTH",
"914 559 OFFCURVE",
"899 476 OFFCURVE",
"899 380 CURVE SMOOTH",
"899 284 OFFCURVE",
"913 202 OFFCURVE",
"961 144 CURVE SMOOTH",
"1009 86 OFFCURVE",
"1070 52 OFFCURVE",
"1183 52 CURVE SMOOTH",
"1295 52 OFFCURVE",
"1354 86 OFFCURVE",
"1402 145 CURVE SMOOTH",
"1450 204 OFFCURVE",
"1462 286 OFFCURVE",
"1462 382 CURVE SMOOTH",
"1462 478 OFFCURVE",
"1449 561 OFFCURVE",
"1402 619 CURVE SMOOTH",
"1355 677 OFFCURVE",
"1294 711 OFFCURVE",
"1182 711 CURVE SMOOTH"
);
},
{
closed = 1;
nodes = (
"1261 619 OFFCURVE",
"1288 590 OFFCURVE",
"1310 547 CURVE SMOOTH",
"1332 503 OFFCURVE",
"1339 436 OFFCURVE",
"1339 380 CURVE SMOOTH",
"1339 325 OFFCURVE",
"1332 260 OFFCURVE",
"1309 217 CURVE SMOOTH",
"1286 173 OFFCURVE",
"1259 144 OFFCURVE",
"1182 144 CURVE SMOOTH",
"1102 144 OFFCURVE",
"1074 173 OFFCURVE",
"1052 217 CURVE SMOOTH",
"1030 261 OFFCURVE",
"1022 329 OFFCURVE",
"1022 388 CURVE SMOOTH",
"1022 439 OFFCURVE",
"1030 504 OFFCURVE",
"1053 547 CURVE SMOOTH",
"1076 590 OFFCURVE",
"1103 619 OFFCURVE",
"1182 619 CURVE SMOOTH"
);
},
{
closed = 1;
nodes = (
"1760 711 OFFCURVE",
"1699 677 OFFCURVE",
"1652 618 CURVE SMOOTH",
"1605 559 OFFCURVE",
"1590 476 OFFCURVE",
"1590 380 CURVE SMOOTH",
"1590 284 OFFCURVE",
"1604 202 OFFCURVE",
"1652 144 CURVE SMOOTH",
"1700 86 OFFCURVE",
"1761 52 OFFCURVE",
"1874 52 CURVE SMOOTH",
"1986 52 OFFCURVE",
"2045 86 OFFCURVE",
"2093 145 CURVE SMOOTH",
"2141 204 OFFCURVE",
"2153 286 OFFCURVE",
"2153 382 CURVE SMOOTH",
"2153 478 OFFCURVE",
"2140 561 OFFCURVE",
"2093 619 CURVE SMOOTH",
"2046 677 OFFCURVE",
"1985 711 OFFCURVE",
"1873 711 CURVE SMOOTH"
);
},
{
closed = 1;
nodes = (
"1952 619 OFFCURVE",
"1979 590 OFFCURVE",
"2001 547 CURVE SMOOTH",
"2023 503 OFFCURVE",
"2030 436 OFFCURVE",
"2030 380 CURVE SMOOTH",
"2030 325 OFFCURVE",
"2023 260 OFFCURVE",
"2000 217 CURVE SMOOTH",
"1977 173 OFFCURVE",
"1950 144 OFFCURVE",
"1873 144 CURVE SMOOTH",
"1793 144 OFFCURVE",
"1765 173 OFFCURVE",
"1743 217 CURVE SMOOTH",
"1721 261 OFFCURVE",
"1713 329 OFFCURVE",
"1713 388 CURVE SMOOTH",
"1713 439 OFFCURVE",
"1721 504 OFFCURVE",
"1744 547 CURVE SMOOTH",
"1767 590 OFFCURVE",
"1794 619 OFFCURVE",
"1873 619 CURVE SMOOTH"
);
}
);
width = 2205;
}
);
note = perthousand;
unicode = 2030;
},
{
color = 4;
glyphname = lozenge;
layers = (
{
layerId = "2F8B9CD4-7B7F-4ACC-ADF3-B6E0F7033A19";
paths = (
{
closed = 1;
nodes = (
"689 -113 LINE",
"1189 750 LINE",
"687 1614 LINE",
"562 1614 LINE",
"60 750 LINE",
"560 -113 LINE",
"564 -113 LINE"
);
},
{
closed = 1;
nodes = (
"679 1391 LINE",
"1046 754 LINE",
"671 104 LINE",
"625 13 LINE",
"578 104 LINE",
"203 754 LINE",
"570 1391 LINE",
"626 1491 LINE"
);
}
);
width = 1249;
}
);
note = lozenge;
unicode = 25CA;
},
{
color = 4;
glyphname = at;
layers = (
{
layerId = "2F8B9CD4-7B7F-4ACC-ADF3-B6E0F7033A19";
paths = (
{
closed = 1;
nodes = (
"747 281 OFFCURVE",
"706 306 OFFCURVE",
"679 349 CURVE SMOOTH",
"614 453 OFFCURVE",
"656 661 OFFCURVE",
"727 777 CURVE SMOOTH",
"788 877 OFFCURVE",
"891 902 OFFCURVE",
"949 891 CURVE SMOOTH",
"1010 879 OFFCURVE",
"1042 856 OFFCURVE",
"1082 824 CURVE",
"1014 520 OFFCURVE",
"951 281 OFFCURVE",
"804 281 CURVE SMOOTH"
);
},
{
closed = 1;
nodes = (
"1230 993 OFFCURVE",
"1198 996 OFFCURVE",
"1179 996 CURVE SMOOTH",
"1156 996 OFFCURVE",
"1137 983 OFFCURVE",
"1114 932 CURVE",
"1050 992 OFFCURVE",
"984 1028 OFFCURVE",
"891 1028 CURVE SMOOTH",
"698 1028 OFFCURVE",
"520 804 OFFCURVE",
"502 542 CURVE SMOOTH",
"487 322 OFFCURVE",
"571 153 OFFCURVE",
"767 153 CURVE SMOOTH",
"918 153 OFFCURVE",
"1014 241 OFFCURVE",
"1070 396 CURVE",
"1070 256 OFFCURVE",
"1137 161 OFFCURVE",
"1292 161 CURVE SMOOTH",
"1407 161 OFFCURVE",
"1509 231 OFFCURVE",
"1581 329 CURVE SMOOTH",
"1700 491 OFFCURVE",
"1710 878 OFFCURVE",
"1565 1086 CURVE SMOOTH",
"1432 1278 OFFCURVE",
"1189 1379 OFFCURVE",
"944 1379 CURVE SMOOTH",
"650 1379 OFFCURVE",
"368 1228 OFFCURVE",
"212 980 CURVE SMOOTH",
"133 855 OFFCURVE",
"86 705 OFFCURVE",
"86 536 CURVE SMOOTH",
"86 244 OFFCURVE",
"226 9 OFFCURVE",
"486 -106 CURVE SMOOTH",
"597 -155 OFFCURVE",
"718 -179 OFFCURVE",
"834 -179 CURVE SMOOTH",
"983 -179 OFFCURVE",
"1120 -142 OFFCURVE",
"1241 -93 CURVE",
"1186 27 LINE",
"1090 -8 OFFCURVE",
"978 -45 OFFCURVE",
"855 -45 CURVE SMOOTH",
"471 -45 OFFCURVE",
"231 176 OFFCURVE",
"231 550 CURVE SMOOTH",
"231 686 OFFCURVE",
"269 809 OFFCURVE",
"334 911 CURVE SMOOTH",
"461 1114 OFFCURVE",
"693 1246 OFFCURVE",
"934 1246 CURVE SMOOTH",
"1315 1246 OFFCURVE",
"1544 1044 OFFCURVE",
"1544 705 CURVE SMOOTH",
"1544 506 OFFCURVE",
"1468 289 OFFCURVE",
"1313 289 CURVE SMOOTH",
"1179 289 OFFCURVE",
"1160 395 OFFCURVE",
"1185 552 CURVE SMOOTH",
"1256 989 LINE"
);
}
);
width = 1753;
}
);
note = at;
unicode = 0040;
},
{
color = 4;
glyphname = ampersand;
layers = (
{
layerId = "2F8B9CD4-7B7F-4ACC-ADF3-B6E0F7033A19";
paths = (
{
closed = 1;
nodes = (
"982 206 OFFCURVE",
"914 150 OFFCURVE",
"860 137 CURVE SMOOTH",
"816 126 OFFCURVE",
"745 124 OFFCURVE",
"630 124 CURVE SMOOTH",
"344 124 OFFCURVE",
"258 155 OFFCURVE",
"258 438 CURVE SMOOTH",
"258 606 OFFCURVE",
"294 694 OFFCURVE",
"454 753 CURVE",
"996 295 LINE"
);
},
{
closed = 1;
nodes = (
"1003 1416 OFFCURVE",
"875 1472 OFFCURVE",
"630 1472 CURVE SMOOTH",
"364 1472 OFFCURVE",
"238 1355 OFFCURVE",
"238 1131 CURVE SMOOTH",
"238 1024 OFFCURVE",
"276 959 OFFCURVE",
"360 865 CURVE",
"151 765 OFFCURVE",
"88 665 OFFCURVE",
"88 416 CURVE SMOOTH",
"88 58 OFFCURVE",
"246 -21 OFFCURVE",
"620 -21 CURVE SMOOTH",
"884 -21 OFFCURVE",
"1033 16 OFFCURVE",
"1111 198 CURVE",
"1337 3 LINE",
"1422 113 LINE",
"1150 347 LINE",
"1161 411 OFFCURVE",
"1163 579 OFFCURVE",
"1163 732 CURVE",
"1028 732 LINE",
"1028 615 OFFCURVE",
"1034 517 OFFCURVE",
"1026 446 CURVE",
"504 911 LINE SMOOTH",
"419 987 OFFCURVE",
"392 1032 OFFCURVE",
"392 1165 CURVE SMOOTH",
"392 1294 OFFCURVE",
"495 1331 OFFCURVE",
"634 1331 CURVE SMOOTH",
"797 1331 OFFCURVE",
"866 1308 OFFCURVE",
"866 1126 CURVE",
"1003 1126 LINE"
);
}
);
width = 1449;
}
);
note = ampersand;
unicode = 0026;
},
{
color = 4;
glyphname = paragraph;
layers = (
{
layerId = "2F8B9CD4-7B7F-4ACC-ADF3-B6E0F7033A19";
paths = (
{
closed = 1;
nodes = (
"534 1300 LINE",
"798 1300 LINE",
"798 -235 LINE",
"938 -235 LINE",
"938 1300 LINE",
"1100 1300 LINE",
"1100 1440 LINE",
"434 1440 LINE SMOOTH",
"319 1440 OFFCURVE",
"223 1406 OFFCURVE",
"155 1347 CURVE SMOOTH",
"87 1288 OFFCURVE",
"47 1204 OFFCURVE",
"47 1103 CURVE SMOOTH",
"47 1008 OFFCURVE",
"82 930 OFFCURVE",
"143 872 CURVE SMOOTH",
"204 814 OFFCURVE",
"291 777 OFFCURVE",
"395 769 CURVE",
"395 -235 LINE",
"534 -235 LINE"
);
}
);
width = 1166;
}
);
note = paragraph;
unicode = 00B6;
},
{
color = 4;
glyphname = section;
layers = (
{
layerId = "2F8B9CD4-7B7F-4ACC-ADF3-B6E0F7033A19";
paths = (
{
closed = 1;
nodes = (
"72 17 OFFCURVE",
"86 -74 OFFCURVE",
"168 -134 CURVE SMOOTH",
"245 -190 OFFCURVE",
"326 -212 OFFCURVE",
"497 -212 CURVE SMOOTH",
"755 -212 OFFCURVE",
"891 -123 OFFCURVE",
"891 128 CURVE SMOOTH",
"891 229.262 OFFCURVE",
"868 321 OFFCURVE",
"773 380 CURVE",
"840 413 OFFCURVE",
"931 494 OFFCURVE",
"931 628 CURVE SMOOTH",
"931 845 OFFCURVE",
"837 927 OFFCURVE",
"528 972 CURVE SMOOTH",
"297 1006 OFFCURVE",
"253 1044 OFFCURVE",
"253 1184 CURVE SMOOTH",
"253 1345 OFFCURVE",
"373 1361 OFFCURVE",
"517 1361 CURVE SMOOTH",
"638 1361 OFFCURVE",
"711 1355 OFFCURVE",
"748 1300 CURVE SMOOTH",
"769 1269 OFFCURVE",
"773 1231 OFFCURVE",
"773 1192 CURVE",
"899 1192 LINE",
"899 1251 OFFCURVE",
"897 1296 OFFCURVE",
"871 1342 CURVE SMOOTH",
"816 1439 OFFCURVE",
"706 1481 OFFCURVE",
"528 1481 CURVE SMOOTH",
"288 1481 OFFCURVE",
"115 1418 OFFCURVE",
"115 1181 CURVE SMOOTH",
"115 1063.821 OFFCURVE",
"173 977 OFFCURVE",
"265 933 CURVE",
"181 904 OFFCURVE",
"75 811.893 OFFCURVE",
"75 681 CURVE SMOOTH",
"75 476 OFFCURVE",
"157 393 OFFCURVE",
"434 350 CURVE SMOOTH",
"688 311 OFFCURVE",
"753 272 OFFCURVE",
"753 122 CURVE SMOOTH",
"753 -42 OFFCURVE",
"667 -92 OFFCURVE",
"502 -92 CURVE SMOOTH",
"386 -92 OFFCURVE",
"316 -92 OFFCURVE",
"256 -46 CURVE SMOOTH",
"214 -14 OFFCURVE",
"202 39 OFFCURVE",
"202 102 CURVE",
"72 102 LINE"
);
},
{
closed = 1;
nodes = (
"213 816 OFFCURVE",
"310 877 OFFCURVE",
"474 850 CURVE SMOOTH",
"728 808 OFFCURVE",
"809 770 OFFCURVE",
"793 622 CURVE SMOOTH",
"773 433 OFFCURVE",
"671 441 OFFCURVE",
"488 472 CURVE SMOOTH",
"257 511 OFFCURVE",
"213 544 OFFCURVE",
"213 684 CURVE SMOOTH"
);
}
);
width = 1016;
}
);
note = section;
unicode = 00A7;
},
{
color = 4;
glyphname = copyright;
layers = (
{
layerId = "2F8B9CD4-7B7F-4ACC-ADF3-B6E0F7033A19";
paths = (
{
closed = 1;
nodes = (
"892 576 OFFCURVE",
"877 553 OFFCURVE",
"840 528 CURVE SMOOTH",
"802 502 OFFCURVE",
"759 500 OFFCURVE",
"697 499 CURVE SMOOTH",
"652 498 OFFCURVE",
"615 508 OFFCURVE",
"585 520 CURVE SMOOTH",
"527 543 OFFCURVE",
"501 573 OFFCURVE",
"483 635 CURVE SMOOTH",
"472 673 OFFCURVE",
"463 728 OFFCURVE",
"463 802 CURVE SMOOTH",
"463 877 OFFCURVE",
"472 933 OFFCURVE",
"485 974 CURVE SMOOTH",
"504 1033 OFFCURVE",
"530 1065 OFFCURVE",
"586 1088 CURVE SMOOTH",
"613 1099 OFFCURVE",
"660 1108 OFFCURVE",
"709 1108 CURVE SMOOTH",
"759 1108 OFFCURVE",
"801 1104 OFFCURVE",
"840 1078 CURVE SMOOTH",
"877 1054 OFFCURVE",
"892 1031 OFFCURVE",
"898 963 CURVE",
"983 963 LINE",
"984 1038 OFFCURVE",
"953 1089 OFFCURVE",
"914 1122 CURVE SMOOTH",
"860 1168 OFFCURVE",
"774 1183 OFFCURVE",
"697 1183 CURVE SMOOTH",
"631 1183 OFFCURVE",
"577 1169 OFFCURVE",
"537 1151 CURVE SMOOTH",
"468 1120 OFFCURVE",
"429 1075 OFFCURVE",
"402 995 CURVE SMOOTH",
"386 947 OFFCURVE",
"373 881 OFFCURVE",
"373 795 CURVE SMOOTH",
"373 724 OFFCURVE",
"383 663 OFFCURVE",
"400 613 CURVE SMOOTH",
"427 534 OFFCURVE",
"463 486 OFFCURVE",
"540 454 CURVE SMOOTH",
"579 438 OFFCURVE",
"630 424 OFFCURVE",
"697 424 CURVE SMOOTH",
"774 424 OFFCURVE",
"862 440 OFFCURVE",
"914 485 CURVE SMOOTH",
"953 519 OFFCURVE",
"984 569 OFFCURVE",
"983 645 CURVE",
"898 645 LINE"
);
},
{
closed = 1;
nodes = (
"1289 975 OFFCURVE",
"1222 1121 OFFCURVE",
"1115 1226 CURVE SMOOTH",
"1008 1331 OFFCURVE",
"858 1395 OFFCURVE",
"694 1395 CURVE SMOOTH",
"530 1395 OFFCURVE",
"383 1330 OFFCURVE",
"276 1225 CURVE SMOOTH",
"169 1120 OFFCURVE",
"104 974 OFFCURVE",
"104 811 CURVE SMOOTH",
"104 651 OFFCURVE",
"169 505 OFFCURVE",
"276 400 CURVE SMOOTH",
"383 295 OFFCURVE",
"530 230 OFFCURVE",
"694 230 CURVE SMOOTH",
"858 230 OFFCURVE",
"1007 294 OFFCURVE",
"1115 401 CURVE SMOOTH",
"1222 507 OFFCURVE",
"1289 652 OFFCURVE",
"1289 815 CURVE SMOOTH"
);
},
{
closed = 1;
nodes = (
"1199 674 OFFCURVE",
"1145 549 OFFCURVE",
"1053 457 CURVE SMOOTH",
"961 365 OFFCURVE",
"836 310 OFFCURVE",
"698 310 CURVE SMOOTH",
"559 310 OFFCURVE",
"433 365 OFFCURVE",
"344 457 CURVE SMOOTH",
"254 550 OFFCURVE",
"195 674 OFFCURVE",
"195 812 CURVE SMOOTH",
"195 952 OFFCURVE",
"252 1077 OFFCURVE",
"344 1169 CURVE SMOOTH",
"434 1259 OFFCURVE",
"559 1316 OFFCURVE",
"698 1316 CURVE SMOOTH",
"836 1316 OFFCURVE",
"962 1260 OFFCURVE",
"1053 1169 CURVE SMOOTH",
"1145 1077 OFFCURVE",
"1199 952 OFFCURVE",
"1199 812 CURVE SMOOTH"
);
}
);
width = 1458;
}
);
note = copyright;
unicode = 00A9;
},
{
color = 4;
glyphname = registered;
layers = (
{
layerId = "2F8B9CD4-7B7F-4ACC-ADF3-B6E0F7033A19";
paths = (
{
closed = 1;
nodes = (
"1289 975 OFFCURVE",
"1222 1121 OFFCURVE",
"1115 1226 CURVE SMOOTH",
"1007 1330 OFFCURVE",
"858 1395 OFFCURVE",
"694 1395 CURVE SMOOTH",
"530 1395 OFFCURVE",
"383 1330 OFFCURVE",
"276 1225 CURVE SMOOTH",
"169 1120 OFFCURVE",
"104 974 OFFCURVE",
"104 811 CURVE SMOOTH",
"104 651 OFFCURVE",
"169 505 OFFCURVE",
"276 400 CURVE SMOOTH",
"383 295 OFFCURVE",
"530 230 OFFCURVE",
"694 230 CURVE SMOOTH",
"858 230 OFFCURVE",
"1007 295 OFFCURVE",
"1115 401 CURVE SMOOTH",
"1222 507 OFFCURVE",
"1289 652 OFFCURVE",
"1289 815 CURVE SMOOTH"
);
},
{
closed = 1;
nodes = (
"1199 674 OFFCURVE",
"1145 549 OFFCURVE",
"1053 457 CURVE SMOOTH",
"962 365 OFFCURVE",
"836 310 OFFCURVE",
"698 310 CURVE SMOOTH",
"559 310 OFFCURVE",
"433 365 OFFCURVE",
"344 457 CURVE SMOOTH",
"253 549 OFFCURVE",
"195 674 OFFCURVE",
"195 812 CURVE SMOOTH",
"195 952 OFFCURVE",
"253 1077 OFFCURVE",
"344 1169 CURVE SMOOTH",
"433 1260 OFFCURVE",
"559 1316 OFFCURVE",
"698 1316 CURVE SMOOTH",
"836 1316 OFFCURVE",
"962 1260 OFFCURVE",
"1053 1169 CURVE SMOOTH",
"1145 1077 OFFCURVE",
"1199 952 OFFCURVE",
"1199 812 CURVE SMOOTH"
);
},
{
closed = 1;
nodes = (
"571 474 LINE",
"571 767 LINE",
"722 767 LINE SMOOTH",
"781 767 OFFCURVE",
"803 762 OFFCURVE",
"827 745 CURVE SMOOTH",
"858 723 OFFCURVE",
"864 697 OFFCURVE",
"865 641 CURVE SMOOTH",
"867 474 LINE",
"947 473 LINE",
"945 640 LINE SMOOTH",
"944 702 OFFCURVE",
"933 736 OFFCURVE",
"910 762 CURVE SMOOTH",
"895 779 OFFCURVE",
"866 795 OFFCURVE",
"830 804 CURVE",
"866 813 OFFCURVE",
"895 830 OFFCURVE",
"910 846 CURVE SMOOTH",
"934 872 OFFCURVE",
"944 912 OFFCURVE",
"944 951 CURVE SMOOTH",
"944 988 OFFCURVE",
"937 1023 OFFCURVE",
"926 1047 CURVE SMOOTH",
"903 1097 OFFCURVE",
"859 1116 OFFCURVE",
"815 1125 CURVE SMOOTH",
"779 1132 OFFCURVE",
"746 1135 OFFCURVE",
"668 1135 CURVE SMOOTH",
"492 1135 LINE",
"492 474 LINE"
);
},
{
closed = 1;
nodes = (
"571 1067 LINE",
"698 1067 LINE SMOOTH",
"766 1067 OFFCURVE",
"805 1066 OFFCURVE",
"834 1045 CURVE",
"855 1026 OFFCURVE",
"867 1002 OFFCURVE",
"867 951 CURVE SMOOTH",
"867 917 OFFCURVE",
"860 886 OFFCURVE",
"838 865 CURVE",
"808 833 OFFCURVE",
"759 834 OFFCURVE",
"685 834 CURVE SMOOTH",
"571 834 LINE"
);
}
);
width = 1392;
}
);
note = registered;
unicode = 00AE;
},
{
color = 4;
glyphname = trademark;
layers = (
{
layerId = "2F8B9CD4-7B7F-4ACC-ADF3-B6E0F7033A19";
paths = (
{
closed = 1;
nodes = (
"276 1326 LINE",
"276 785 LINE",
"349 785 LINE",
"349 1326 LINE",
"536 1326 LINE",
"536 1390 LINE",
"89 1390 LINE",
"89 1326 LINE"
);
},
{
closed = 1;
nodes = (
"657 786 LINE",
"657 1325 LINE",
"673 1325 LINE",
"817 850 LINE",
"913 850 LINE",
"1059 1325 LINE",
"1074 1325 LINE",
"1074 786 LINE",
"1140 786 LINE",
"1140 1390 LINE",
"1015 1390 LINE",
"872 916 LINE",
"858 916 LINE",
"716 1390 LINE",
"592 1390 LINE",
"592 786 LINE"
);
}
);
width = 1271;
}
);
note = trademark;
unicode = 2122;
},
{
color = 4;
glyphname = degree;
layers = (
{
layerId = "2F8B9CD4-7B7F-4ACC-ADF3-B6E0F7033A19";
paths = (
{
closed = 1;
nodes = (
"390 1011 OFFCURVE",
"443 1037 OFFCURVE",
"479 1076 CURVE SMOOTH",
"514 1115 OFFCURVE",
"532 1167 OFFCURVE",
"532 1219 CURVE SMOOTH",
"532 1271 OFFCURVE",
"514 1323 OFFCURVE",
"479 1362 CURVE SMOOTH",
"443 1401 OFFCURVE",
"390 1427 OFFCURVE",
"318 1427 CURVE SMOOTH",
"246 1427 OFFCURVE",
"192 1401 OFFCURVE",
"156 1362 CURVE SMOOTH",
"120 1323 OFFCURVE",
"102 1271 OFFCURVE",
"102 1219 CURVE SMOOTH",
"102 1167 OFFCURVE",
"120 1115 OFFCURVE",
"156 1076 CURVE SMOOTH",
"192 1037 OFFCURVE",
"246 1011 OFFCURVE",
"318 1011 CURVE SMOOTH"
);
},
{
closed = 1;
nodes = (
"351 1329 OFFCURVE",
"377 1315 OFFCURVE",
"394 1295 CURVE",
"410 1274 OFFCURVE",
"419 1247 OFFCURVE",
"419 1219 CURVE SMOOTH",
"419 1191 OFFCURVE",
"410 1164 OFFCURVE",
"394 1144 CURVE SMOOTH",
"377 1123 OFFCURVE",
"351 1109 OFFCURVE",
"318 1109 CURVE SMOOTH",
"283 1109 OFFCURVE",
"257 1123 OFFCURVE",
"241 1144 CURVE",
"224 1164 OFFCURVE",
"215 1191 OFFCURVE",
"215 1219 CURVE SMOOTH",
"215 1247 OFFCURVE",
"224 1274 OFFCURVE",
"241 1295 CURVE SMOOTH",
"257 1315 OFFCURVE",
"283 1329 OFFCURVE",
"318 1329 CURVE SMOOTH"
);
}
);
width = 634;
}
);
note = degree;
unicode = 00B0;
},
{
color = 4;
glyphname = bar;
layers = (
{
layerId = "2F8B9CD4-7B7F-4ACC-ADF3-B6E0F7033A19";
paths = (
{
closed = 1;
nodes = (
"318 -301 LINE",
"318 1536 LINE",
"182 1536 LINE",
"182 -301 LINE"
);
}
);
width = 500;
}
);
note = bar;
unicode = 007C;
},
{
color = 4;
glyphname = brokenbar;
layers = (
{
layerId = "2F8B9CD4-7B7F-4ACC-ADF3-B6E0F7033A19";
paths = (
{
closed = 1;
nodes = (
"357 1530 LINE",
"198 1530 LINE",
"198 776 LINE",
"357 776 LINE"
);
},
{
closed = 1;
nodes = (
"357 590 LINE",
"198 590 LINE",
"198 -162 LINE",
"357 -162 LINE"
);
}
);
width = 546;
}
);
note = brokenbar;
unicode = 00A6;
},
{
color = 4;
glyphname = dagger;
layers = (
{
layerId = "2F8B9CD4-7B7F-4ACC-ADF3-B6E0F7033A19";
paths = (
{
closed = 1;
nodes = (
"71 997 LINE",
"71 873 LINE",
"364 873 LINE",
"364 -232 LINE",
"531 -232 LINE",
"531 873 LINE",
"818 873 LINE",
"818 997 LINE",
"531 997 LINE",
"531 1428 LINE",
"364 1428 LINE",
"364 997 LINE"
);
}
);
width = 889;
}
);
note = dagger;
unicode = 2020;
},
{
color = 4;
glyphname = daggerdbl;
layers = (
{
layerId = "2F8B9CD4-7B7F-4ACC-ADF3-B6E0F7033A19";
paths = (
{
closed = 1;
nodes = (
"108 1014 LINE",
"108 889 LINE",
"400 889 LINE",
"400 307 LINE",
"108 307 LINE",
"108 184 LINE",
"400 184 LINE",
"400 -236 LINE",
"556 -236 LINE",
"556 184 LINE",
"851 184 LINE",
"851 307 LINE",
"556 307 LINE",
"556 889 LINE",
"851 889 LINE",
"851 1014 LINE",
"556 1014 LINE",
"556 1429 LINE",
"400 1429 LINE",
"400 1014 LINE"
);
}
);
width = 959;
}
);
note = daggerdbl;
unicode = 2021;
},
{
glyphname = numero;
layers = (
{
components = (
{
name = N;
transform = "{0.9163, 0, 0, 0.9163, -60, 0}";
},
{
name = o;
transform = "{0.9163, 0, 0, 0.9163, 1350, 382}";
}
);
guideLines = (
{
position = "{830, 1311}";
}
);
layerId = "2F8B9CD4-7B7F-4ACC-ADF3-B6E0F7033A19";
paths = (
{
closed = 1;
nodes = (
"1456 126 LINE",
"2300 126 LINE",
"2300 240 LINE",
"1456 240 LINE"
);
}
);
width = 2349;
}
);
unicode = 2116;
},
{
color = 4;
glyphname = asciicircum;
layers = (
{
layerId = "2F8B9CD4-7B7F-4ACC-ADF3-B6E0F7033A19";
paths = (
{
closed = 1;
nodes = (
"263 586 LINE",
"459 1020 LINE",
"573 1265 LINE",
"689 1022 LINE",
"880 586 LINE",
"1044 586 LINE",
"653 1452 LINE",
"494 1452 LINE",
"102 586 LINE"
);
}
);
width = 1147;
}
);
note = asciicircum;
unicode = 005E;
},
{
glyphname = minute;
layers = (
{
layerId = "2F8B9CD4-7B7F-4ACC-ADF3-B6E0F7033A19";
paths = (
{
closed = 1;
nodes = (
"208 940 LINE",
"340 940 LINE",
"430 1441 LINE",
"298 1441 LINE"
);
}
);
width = 600;
}
);
unicode = 2032;
},
{
glyphname = dotaccentcomb;
layers = (
{
layerId = "2F8B9CD4-7B7F-4ACC-ADF3-B6E0F7033A19";
paths = (
{
closed = 1;
nodes = (
"407 1258 OFFCURVE",
"381 1228 OFFCURVE",
"300 1228 CURVE",
"219 1228 OFFCURVE",
"184 1258 OFFCURVE",
"184 1337 CURVE",
"184 1415 OFFCURVE",
"219 1446 OFFCURVE",
"300 1446 CURVE",
"381 1446 OFFCURVE",
"407 1415 OFFCURVE",
"407 1337 CURVE"
);
}
);
width = 600;
}
);
unicode = 0307;
},
{
glyphname = gravecomb;
layers = (
{
layerId = "2F8B9CD4-7B7F-4ACC-ADF3-B6E0F7033A19";
paths = (
{
closed = 1;
nodes = (
"132 1442 LINE",
"337 1176 LINE",
"469 1176 LINE",
"319 1442 LINE"
);
}
);
width = 600;
}
);
unicode = 0300;
},
{
glyphname = acutecomb;
layers = (
{
layerId = "2F8B9CD4-7B7F-4ACC-ADF3-B6E0F7033A19";
paths = (
{
closed = 1;
nodes = (
"132 1176 LINE",
"264 1176 LINE",
"469 1442 LINE",
"282 1442 LINE"
);
}
);
width = 600;
}
);
unicode = 0301;
},
{
glyphname = hungarumlautcomb;
layers = (
{
layerId = "2F8B9CD4-7B7F-4ACC-ADF3-B6E0F7033A19";
paths = (
{
closed = 1;
nodes = (
"42 1176 LINE",
"174 1176 LINE",
"379 1442 LINE",
"192 1442 LINE"
);
},
{
closed = 1;
nodes = (
"333 1170 LINE",
"465 1170 LINE",
"670 1436 LINE",
"483 1436 LINE"
);
}
);
width = 600;
}
);
unicode = 030B;
},
{
glyphname = circumflexcomb;
layers = (
{
layerId = "2F8B9CD4-7B7F-4ACC-ADF3-B6E0F7033A19";
paths = (
{
closed = 1;
nodes = (
"368 1562 LINE",
"224 1562 LINE",
"46 1225 LINE",
"191 1225 LINE",
"299 1459 LINE",
"402 1225 LINE",
"547 1225 LINE"
);
}
);
width = 600;
}
);
unicode = 0302;
},
{
glyphname = caroncomb;
layers = (
{
layerId = "2F8B9CD4-7B7F-4ACC-ADF3-B6E0F7033A19";
paths = (
{
closed = 1;
nodes = (
"412 1472 LINE",
"309 1238 LINE",
"201 1472 LINE",
"56 1472 LINE",
"234 1135 LINE",
"378 1135 LINE",
"557 1472 LINE"
);
}
);
width = 600;
}
);
unicode = 030C;
},
{
glyphname = brevecomb;
layers = (
{
layerId = "2F8B9CD4-7B7F-4ACC-ADF3-B6E0F7033A19";
paths = (
{
closed = 1;
nodes = (
"10 1403 OFFCURVE",
"47 1335 OFFCURVE",
"102 1286 CURVE SMOOTH",
"157 1237 OFFCURVE",
"227 1207 OFFCURVE",
"304 1207 CURVE SMOOTH",
"381 1207 OFFCURVE",
"453 1236 OFFCURVE",
"507 1286 CURVE SMOOTH",
"561 1336 OFFCURVE",
"599 1403 OFFCURVE",
"607 1480 CURVE",
"510 1480 LINE",
"500 1430 OFFCURVE",
"475 1388 OFFCURVE",
"438 1358 CURVE SMOOTH",
"401 1328 OFFCURVE",
"354 1309 OFFCURVE",
"304 1309 CURVE SMOOTH",
"254 1309 OFFCURVE",
"207 1327 OFFCURVE",
"170 1358 CURVE SMOOTH",
"133 1389 OFFCURVE",
"106 1430 OFFCURVE",
"96 1480 CURVE",
"2 1480 LINE"
);
}
);
width = 600;
}
);
unicode = 0306;
},
{
glyphname = ringcomb;
layers = (
{
layerId = "2F8B9CD4-7B7F-4ACC-ADF3-B6E0F7033A19";
paths = (
{
closed = 1;
nodes = (
"138 1288 OFFCURVE",
"158 1242 OFFCURVE",
"191 1210 CURVE SMOOTH",
"224 1178 OFFCURVE",
"269 1160 OFFCURVE",
"323 1160 CURVE SMOOTH",
"376 1160 OFFCURVE",
"422 1178 OFFCURVE",
"456 1210 CURVE SMOOTH",
"489 1241 OFFCURVE",
"508 1286 OFFCURVE",
"508 1341 CURVE SMOOTH",
"508 1394 OFFCURVE",
"489 1439 OFFCURVE",
"457 1471 CURVE",
"423 1502 OFFCURVE",
"376 1521 OFFCURVE",
"325 1521 CURVE SMOOTH",
"271 1521 OFFCURVE",
"224 1503 OFFCURVE",
"191 1472 CURVE SMOOTH",
"157 1440 OFFCURVE",
"138 1397 OFFCURVE",
"138 1343 CURVE SMOOTH"
);
},
{
closed = 1;
nodes = (
"229 1397 OFFCURVE",
"260 1438 OFFCURVE",
"324 1438 CURVE SMOOTH",
"389 1438 OFFCURVE",
"420 1397 OFFCURVE",
"420 1341 CURVE SMOOTH",
"420 1286 OFFCURVE",
"389 1244 OFFCURVE",
"324 1244 CURVE SMOOTH",
"258 1244 OFFCURVE",
"229 1284 OFFCURVE",
"229 1343 CURVE SMOOTH"
);
}
);
width = 600;
}
);
unicode = 030A;
},
{
glyphname = tildecomb;
layers = (
{
layerId = "2F8B9CD4-7B7F-4ACC-ADF3-B6E0F7033A19";
paths = (
{
closed = 1;
nodes = (
"280 1308 OFFCURVE",
"295 1343 OFFCURVE",
"334 1343 CURVE SMOOTH",
"359 1343 OFFCURVE",
"385 1326 OFFCURVE",
"436 1295 CURVE SMOOTH",
"479 1268 OFFCURVE",
"516 1255 OFFCURVE",
"559 1255 CURVE SMOOTH",
"600 1255 OFFCURVE",
"640 1266 OFFCURVE",
"669 1295 CURVE SMOOTH",
"697 1323 OFFCURVE",
"717 1369 OFFCURVE",
"717 1440 CURVE",
"605 1440 LINE",
"602 1389 OFFCURVE",
"591 1356 OFFCURVE",
"552 1356 CURVE SMOOTH",
"544 1356 OFFCURVE",
"532 1361 OFFCURVE",
"515 1370 CURVE SMOOTH",
"498 1379 OFFCURVE",
"479 1388 OFFCURVE",
"459 1399 CURVE",
"418 1419 OFFCURVE",
"371 1441 OFFCURVE",
"332 1441 CURVE SMOOTH",
"291 1441 OFFCURVE",
"250 1431 OFFCURVE",
"219 1403 CURVE SMOOTH",
"187 1375 OFFCURVE",
"167 1329 OFFCURVE",
"167 1257 CURVE",
"280 1257 LINE"
);
}
);
width = 837;
}
);
unicode = 0303;
},
{
glyphname = macroncomb;
layers = (
{
layerId = "2F8B9CD4-7B7F-4ACC-ADF3-B6E0F7033A19";
paths = (
{
closed = 1;
nodes = (
"174 1293 LINE",
"793 1293 LINE",
"793 1411 LINE",
"174 1411 LINE"
);
}
);
width = 893;
}
);
unicode = 0304;
},
{
glyphname = hookabovecomb;
layers = (
{
layerId = "2F8B9CD4-7B7F-4ACC-ADF3-B6E0F7033A19";
paths = (
{
closed = 1;
nodes = (
"547 1349 OFFCURVE",
"453 1348 OFFCURVE",
"234 1348 CURVE",
"234 1257 LINE",
"403 1257 OFFCURVE",
"433 1253 OFFCURVE",
"433 1178 CURVE",
"433 1109 OFFCURVE",
"409 1098 OFFCURVE",
"358 1098 CURVE",
"240 1098 OFFCURVE",
"228 1009 OFFCURVE",
"228 948 CURVE",
"335 948 LINE",
"335 1003 OFFCURVE",
"344 1009 OFFCURVE",
"391 1009 CURVE",
"437 1009 OFFCURVE",
"547 1024 OFFCURVE",
"547 1180 CURVE"
);
}
);
width = 600;
}
);
unicode = 0309;
},
{
glyphname = dblgravecomb;
layers = (
{
layerId = "2F8B9CD4-7B7F-4ACC-ADF3-B6E0F7033A19";
paths = (
{
closed = 1;
nodes = (
"785 1194 LINE",
"848 1272 LINE",
"570 1534 LINE",
"478 1432 LINE"
);
},
{
closed = 1;
nodes = (
"461 1194 LINE",
"525 1272 LINE",
"246 1534 LINE",
"154 1432 LINE"
);
}
);
width = 1001;
}
);
note = uni030F;
unicode = 030F;
},
{
glyphname = breveinvertedcomb;
layers = (
{
layerId = "2F8B9CD4-7B7F-4ACC-ADF3-B6E0F7033A19";
paths = (
{
closed = 1;
nodes = (
"273 1254 OFFCURVE",
"304 1302 OFFCURVE",
"346 1337 CURVE SMOOTH",
"388 1372 OFFCURVE",
"442 1392 OFFCURVE",
"498 1392 CURVE SMOOTH",
"555 1392 OFFCURVE",
"609 1372 OFFCURVE",
"651 1337 CURVE SMOOTH",
"693 1302 OFFCURVE",
"722 1254 OFFCURVE",
"733 1198 CURVE",
"844 1198 LINE",
"835 1285 OFFCURVE",
"792 1363 OFFCURVE",
"730 1419 CURVE SMOOTH",
"668 1475 OFFCURVE",
"586 1509 OFFCURVE",
"498 1509 CURVE SMOOTH",
"411 1509 OFFCURVE",
"330 1475 OFFCURVE",
"268 1419 CURVE SMOOTH",
"206 1363 OFFCURVE",
"163 1285 OFFCURVE",
"154 1198 CURVE",
"262 1198 LINE"
);
}
);
width = 997;
}
);
note = uni0311;
unicode = 0311;
},
{
glyphname = commaturnedabovecomb;
layers = (
{
layerId = "2F8B9CD4-7B7F-4ACC-ADF3-B6E0F7033A19";
paths = (
{
closed = 1;
nodes = (
"126 1038 OFFCURVE",
"156 1008 OFFCURVE",
"237 1008 CURVE",
"318 1008 OFFCURVE",
"356 1038 OFFCURVE",
"356 1123 CURVE",
"356 1205 OFFCURVE",
"318 1226 OFFCURVE",
"247 1226 CURVE",
"247 1297 OFFCURVE",
"277 1342 OFFCURVE",
"334 1406 CURVE",
"286 1476 LINE",
"262 1461 OFFCURVE",
"231 1441 OFFCURVE",
"195 1396 CURVE SMOOTH",
"159 1350 OFFCURVE",
"126 1291 OFFCURVE",
"126 1220 CURVE SMOOTH",
"126 1123 LINE"
);
}
);
width = 600;
}
);
unicode = 0312;
},
{
glyphname = horncomb;
layers = (
{
layerId = "2F8B9CD4-7B7F-4ACC-ADF3-B6E0F7033A19";
paths = (
{
closed = 1;
nodes = (
"144 1009 LINE",
"234 1009 OFFCURVE",
"330 1009 OFFCURVE",
"366 1009 CURVE SMOOTH",
"442 1009 OFFCURVE",
"494 1051 OFFCURVE",
"494 1126 CURVE SMOOTH",
"494 1161 OFFCURVE",
"494 1207 OFFCURVE",
"494 1242 CURVE SMOOTH",
"494 1282 OFFCURVE",
"494 1322 OFFCURVE",
"494 1355 CURVE",
"379 1355 LINE",
"379 1290 OFFCURVE",
"381 1223 OFFCURVE",
"381 1176 CURVE SMOOTH",
"381 1141 OFFCURVE",
"370 1120 OFFCURVE",
"312 1120 CURVE",
"269 1120 OFFCURVE",
"184 1119 OFFCURVE",
"144 1119 CURVE"
);
}
);
width = 600;
}
);
unicode = 031B;
},
{
glyphname = dotbelowcomb;
layers = (
{
layerId = "2F8B9CD4-7B7F-4ACC-ADF3-B6E0F7033A19";
paths = (
{
closed = 1;
nodes = (
"478 -363 OFFCURVE",
"452 -393 OFFCURVE",
"371 -393 CURVE",
"290 -393 OFFCURVE",
"255 -363 OFFCURVE",
"255 -284 CURVE",
"255 -206 OFFCURVE",
"290 -175 OFFCURVE",
"371 -175 CURVE",
"452 -175 OFFCURVE",
"478 -206 OFFCURVE",
"478 -284 CURVE"
);
}
);
width = 600;
}
);
unicode = 0323;
},
{
glyphname = commaaccentcomb;
layers = (
{
layerId = "2F8B9CD4-7B7F-4ACC-ADF3-B6E0F7033A19";
paths = (
{
closed = 1;
nodes = (
"342 169 OFFCURVE",
"314 197 OFFCURVE",
"237 197 CURVE",
"161 197 OFFCURVE",
"125 169 OFFCURVE",
"125 89 CURVE",
"125 11 OFFCURVE",
"161 -8 OFFCURVE",
"228 -8 CURVE",
"228 -75 OFFCURVE",
"200 -118 OFFCURVE",
"146 -178 CURVE",
"191 -244 LINE",
"214 -230 OFFCURVE",
"243 -211 OFFCURVE",
"277 -169 CURVE SMOOTH",
"311 -125 OFFCURVE",
"342 -70 OFFCURVE",
"342 -3 CURVE SMOOTH",
"342 89 LINE"
);
}
);
width = 474;
}
);
note = uni0326;
unicode = 0326;
},
{
glyphname = cedillacomb;
layers = (
{
layerId = "2F8B9CD4-7B7F-4ACC-ADF3-B6E0F7033A19";
paths = (
{
closed = 1;
nodes = (
"468 -136 OFFCURVE",
"422 -110 OFFCURVE",
"289 -110 CURVE",
"353 -1 LINE",
"247 -1 LINE",
"183 -113 LINE",
"183 -188 LINE",
"285 -188 LINE SMOOTH",
"338 -188 OFFCURVE",
"350 -208 OFFCURVE",
"350 -251 CURVE SMOOTH",
"350 -294 OFFCURVE",
"336 -311 OFFCURVE",
"272 -311 CURVE",
"129 -311 LINE",
"129 -393 LINE",
"290 -393 LINE",
"422 -393 OFFCURVE",
"468 -346 OFFCURVE",
"468 -253 CURVE SMOOTH"
);
}
);
width = 600;
}
);
unicode = 0327;
},
{
glyphname = ogonekcomb;
layers = (
{
layerId = "2F8B9CD4-7B7F-4ACC-ADF3-B6E0F7033A19";
paths = (
{
closed = 1;
nodes = (
"454 -236 OFFCURVE",
"369 -235 OFFCURVE",
"326 -235 CURVE",
"268 -235 OFFCURVE",
"257 -214 OFFCURVE",
"257 -179 CURVE SMOOTH",
"257 -132 OFFCURVE",
"259 -65 OFFCURVE",
"259 0 CURVE",
"144 0 LINE",
"144 -33 OFFCURVE",
"144 -73 OFFCURVE",
"144 -113 CURVE SMOOTH",
"144 -148 OFFCURVE",
"144 -194 OFFCURVE",
"144 -229 CURVE SMOOTH",
"144 -304 OFFCURVE",
"196 -346 OFFCURVE",
"272 -346 CURVE SMOOTH",
"308 -346 OFFCURVE",
"404 -346 OFFCURVE",
"494 -346 CURVE",
"494 -236 LINE"
);
}
);
width = 600;
}
);
unicode = 0328;
},
{
glyphname = brevebelowcomb;
layers = (
{
layerId = "2F8B9CD4-7B7F-4ACC-ADF3-B6E0F7033A19";
paths = (
{
closed = 1;
nodes = (
"5 -193 OFFCURVE",
"42 -261 OFFCURVE",
"97 -310 CURVE SMOOTH",
"152 -359 OFFCURVE",
"222 -389 OFFCURVE",
"299 -389 CURVE SMOOTH",
"376 -389 OFFCURVE",
"448 -360 OFFCURVE",
"502 -310 CURVE SMOOTH",
"556 -260 OFFCURVE",
"594 -193 OFFCURVE",
"602 -116 CURVE",
"505 -116 LINE",
"495 -166 OFFCURVE",
"470 -208 OFFCURVE",
"433 -238 CURVE SMOOTH",
"396 -268 OFFCURVE",
"349 -287 OFFCURVE",
"299 -287 CURVE SMOOTH",
"249 -287 OFFCURVE",
"202 -269 OFFCURVE",
"165 -238 CURVE SMOOTH",
"128 -207 OFFCURVE",
"101 -166 OFFCURVE",
"91 -116 CURVE",
"-3 -116 LINE"
);
}
);
width = 600;
}
);
unicode = 032E;
},
{
glyphname = macronbelowcomb;
layers = (
{
layerId = "2F8B9CD4-7B7F-4ACC-ADF3-B6E0F7033A19";
paths = (
{
closed = 1;
nodes = (
"-9 -252 LINE",
"610 -252 LINE",
"610 -134 LINE",
"-9 -134 LINE"
);
}
);
width = 600;
}
);
unicode = 0331;
},
{
glyphname = strokeshortcomb;
layers = (
{
layerId = "2F8B9CD4-7B7F-4ACC-ADF3-B6E0F7033A19";
paths = (
{
closed = 1;
nodes = (
"30 451 LINE",
"994 451 LINE",
"994 569 LINE",
"30 569 LINE"
);
}
);
width = 1024;
}
);
unicode = 0335;
},
{
glyphname = apostrophemod;
layers = (
{
layerId = "2F8B9CD4-7B7F-4ACC-ADF3-B6E0F7033A19";
paths = (
{
closed = 1;
nodes = (
"531 1441 LINE",
"384 1515 LINE",
"182 1050 LINE",
"298 994 LINE"
);
}
);
width = 600;
}
);
unicode = 02BC;
},
{
glyphname = doubleprimemod;
layers = (
{
layerId = "2F8B9CD4-7B7F-4ACC-ADF3-B6E0F7033A19";
paths = (
{
closed = 1;
nodes = (
"362 1478 LINE",
"175 1478 LINE",
"-17 992 LINE",
"109 992 LINE"
);
},
{
closed = 1;
nodes = (
"672 1478 LINE",
"485 1478 LINE",
"293 992 LINE",
"419 992 LINE"
);
}
);
width = 600;
}
);
unicode = 02BA;
},
{
glyphname = firsttonechinese;
layers = (
{
layerId = "2F8B9CD4-7B7F-4ACC-ADF3-B6E0F7033A19";
paths = (
{
closed = 1;
nodes = (
"174 1293 LINE",
"793 1293 LINE",
"793 1411 LINE",
"174 1411 LINE"
);
}
);
width = 893;
}
);
unicode = 02C9;
},
{
glyphname = primemod;
layers = (
{
layerId = "2F8B9CD4-7B7F-4ACC-ADF3-B6E0F7033A19";
paths = (
{
closed = 1;
nodes = (
"551 1478 LINE",
"364 1478 LINE",
"172 992 LINE",
"298 992 LINE"
);
}
);
width = 600;
}
);
unicode = 02B9;
},
{
color = 4;
glyphname = acute;
layers = (
{
layerId = "2F8B9CD4-7B7F-4ACC-ADF3-B6E0F7033A19";
paths = (
{
closed = 1;
nodes = (
"579 1506 LINE",
"436 1580 LINE",
"187 1212 LINE",
"281 1180 LINE"
);
}
);
width = 846;
}
);
note = acute;
unicode = 00B4;
},
{
color = 4;
glyphname = breve;
layers = (
{
layerId = "2F8B9CD4-7B7F-4ACC-ADF3-B6E0F7033A19";
paths = (
{
closed = 1;
nodes = (
"214 1403 OFFCURVE",
"251 1335 OFFCURVE",
"306 1286 CURVE SMOOTH",
"360 1236 OFFCURVE",
"431 1207 OFFCURVE",
"508 1207 CURVE SMOOTH",
"585 1207 OFFCURVE",
"657 1236 OFFCURVE",
"711 1286 CURVE SMOOTH",
"766 1335 OFFCURVE",
"803 1403 OFFCURVE",
"811 1480 CURVE",
"714 1480 LINE",
"704 1430 OFFCURVE",
"679 1388 OFFCURVE",
"642 1358 CURVE SMOOTH",
"605 1327 OFFCURVE",
"558 1309 OFFCURVE",
"508 1309 CURVE SMOOTH",
"458 1309 OFFCURVE",
"411 1327 OFFCURVE",
"374 1358 CURVE SMOOTH",
"337 1388 OFFCURVE",
"310 1430 OFFCURVE",
"300 1480 CURVE",
"206 1480 LINE"
);
}
);
width = 997;
}
);
note = breve;
unicode = 02D8;
},
{
color = 4;
glyphname = caron;
layers = (
{
layerId = "2F8B9CD4-7B7F-4ACC-ADF3-B6E0F7033A19";
paths = (
{
closed = 1;
nodes = (
"221 1472 LINE",
"76 1472 LINE",
"254 1135 LINE",
"398 1135 LINE",
"577 1472 LINE",
"432 1472 LINE",
"329 1205 LINE"
);
}
);
width = 705;
}
);
note = caron;
unicode = 02C7;
},
{
color = 4;
glyphname = cedilla;
layers = (
{
layerId = "2F8B9CD4-7B7F-4ACC-ADF3-B6E0F7033A19";
paths = (
{
closed = 1;
nodes = (
"468 -136 OFFCURVE",
"422 -110 OFFCURVE",
"289 -110 CURVE",
"353 -1 LINE",
"247 -1 LINE",
"183 -113 LINE",
"183 -188 LINE",
"285 -188 LINE SMOOTH",
"338 -188 OFFCURVE",
"350 -208 OFFCURVE",
"350 -251 CURVE SMOOTH",
"350 -294 OFFCURVE",
"336 -311 OFFCURVE",
"272 -311 CURVE",
"129 -311 LINE",
"129 -393 LINE",
"290 -393 LINE",
"422 -393 OFFCURVE",
"468 -346 OFFCURVE",
"468 -253 CURVE SMOOTH"
);
}
);
width = 563;
}
);
note = cedilla;
unicode = 00B8;
},
{
color = 4;
glyphname = circumflex;
layers = (
{
layerId = "2F8B9CD4-7B7F-4ACC-ADF3-B6E0F7033A19";
paths = (
{
closed = 1;
nodes = (
"398 1472 LINE",
"254 1472 LINE",
"76 1135 LINE",
"221 1135 LINE",
"329 1369 LINE",
"432 1135 LINE",
"577 1135 LINE"
);
}
);
width = 705;
}
);
note = circumflex;
unicode = 02C6;
},
